<svg viewBox="0 0 330 200" xmlns="http://www.w3.org/2000/svg"><g><g><g><g><g><line x1="58" y1="178" x2="53" y2="178" style="visibility: inherit;" fill="rgb(0, 0, 0)" stroke="rgb(204, 204, 204)" stroke-width="1px"></line><line x1="58" y1="160.2" x2="53" y2="160.2" style="visibility: inherit;" fill="rgb(0, 0, 0)" stroke="rgb(204, 204, 204)" stroke-width="1px"></line><line x1="58" y1="142.4" x2="53" y2="142.4" style="visibility: inherit;" fill="rgb(0, 0, 0)" stroke="rgb(204, 204, 204)" stroke-width="1px"></line><line x1="58" y1="124.6" x2="53" y2="124.6" style="visibility: inherit;" fill="rgb(0, 0, 0)" stroke="rgb(204, 204, 204)" stroke-width="1px"></line><line x1="58" y1="106.8" x2="53" y2="106.8" style="visibility: inherit;" fill="rgb(0, 0, 0)" stroke="rgb(204, 204, 204)" stroke-width="1px"></line><line x1="58" y1="89" x2="53" y2="89" style="visibility: inherit;" fill="rgb(0, 0, 0)" stroke="rgb(204, 204, 204)" stroke-width="1px"></line><line x1="58" y1="71.2" x2="53" y2="71.2" style="visibility: inherit;" fill="rgb(0, 0, 0)" stroke="rgb(204, 204, 204)" stroke-width="1px"></line><line x1="58" y1="53.400000000000006" x2="53" y2="53.400000000000006" style="visibility: inherit;" fill="rgb(0, 0, 0)" stroke="rgb(204, 204, 204)" stroke-width="1px"></line><line x1="58" y1="35.60000000000002" x2="53" y2="35.60000000000002" style="visibility: inherit;" fill="rgb(0, 0, 0)" stroke="rgb(204, 204, 204)" stroke-width="1px"></line><line x1="58" y1="17.799999999999983" x2="53" y2="17.799999999999983" style="visibility: inherit;" fill="rgb(0, 0, 0)" stroke="rgb(204, 204, 204)" stroke-width="1px"></line><line x1="58" y1="0" x2="53" y2="0" style="visibility: inherit;" fill="rgb(0, 0, 0)" stroke="rgb(204, 204, 204)" stroke-width="1px"></line></g><g transform="translate(48, 0)"><text x="0" y="178" dx="0em" dy="0.3em" style="text-anchor: end; visibility: hidden; font-family: &quot;Helvetica Neue&quot;, sans-serif; font-size: 12px; font-weight: 200;" fill="rgb(50, 49, 63)" stroke="none" stroke-width="1px">-0.1</text><text x="0" y="160.2" dx="0em" dy="0.3em" style="text-anchor: end; visibility: inherit; font-family: &quot;Helvetica Neue&quot;, sans-serif; font-size: 12px; font-weight: 200;" fill="rgb(50, 49, 63)" stroke="none" stroke-width="1px">0</text><text x="0" y="142.4" dx="0em" dy="0.3em" style="text-anchor: end; visibility: hidden; font-family: &quot;Helvetica Neue&quot;, sans-serif; font-size: 12px; font-weight: 200;" fill="rgb(50, 49, 63)" stroke="none" stroke-width="1px">0.1</text><text x="0" y="124.6" dx="0em" dy="0.3em" style="text-anchor: end; visibility: inherit; font-family: &quot;Helvetica Neue&quot;, sans-serif; font-size: 12px; font-weight: 200;" fill="rgb(50, 49, 63)" stroke="none" stroke-width="1px">0.2</text><text x="0" y="106.8" dx="0em" dy="0.3em" style="text-anchor: end; visibility: hidden; font-family: &quot;Helvetica Neue&quot;, sans-serif; font-size: 12px; font-weight: 200;" fill="rgb(50, 49, 63)" stroke="none" stroke-width="1px">0.3</text><text x="0" y="89" dx="0em" dy="0.3em" style="text-anchor: end; visibility: inherit; font-family: &quot;Helvetica Neue&quot;, sans-serif; font-size: 12px; font-weight: 200;" fill="rgb(50, 49, 63)" stroke="none" stroke-width="1px">0.4</text><text x="0" y="71.2" dx="0em" dy="0.3em" style="text-anchor: end; visibility: hidden; font-family: &quot;Helvetica Neue&quot;, sans-serif; font-size: 12px; font-weight: 200;" fill="rgb(50, 49, 63)" stroke="none" stroke-width="1px">0.5</text><text x="0" y="53.400000000000006" dx="0em" dy="0.3em" style="text-anchor: end; visibility: inherit; font-family: &quot;Helvetica Neue&quot;, sans-serif; font-size: 12px; font-weight: 200;" fill="rgb(50, 49, 63)" stroke="none" stroke-width="1px">0.6</text><text x="0" y="35.60000000000002" dx="0em" dy="0.3em" style="text-anchor: end; visibility: hidden; font-family: &quot;Helvetica Neue&quot;, sans-serif; font-size: 12px; font-weight: 200;" fill="rgb(50, 49, 63)" stroke="none" stroke-width="1px">0.7</text><text x="0" y="17.799999999999983" dx="0em" dy="0.3em" style="text-anchor: end; visibility: inherit; font-family: &quot;Helvetica Neue&quot;, sans-serif; font-size: 12px; font-weight: 200;" fill="rgb(50, 49, 63)" stroke="none" stroke-width="1px">0.8</text><text x="0" y="0" dx="0em" dy="0.3em" style="text-anchor: end; visibility: hidden; font-family: &quot;Helvetica Neue&quot;, sans-serif; font-size: 12px; font-weight: 200;" fill="rgb(50, 49, 63)" stroke="none" stroke-width="1px">0.9</text></g><line x1="58" y1="0" x2="58" y2="178" fill="rgb(0, 0, 0)" stroke="rgb(204, 204, 204)" stroke-width="1px"></line></g></g><g transform="translate(58, 0)" clip-path="url(#clip_0)"><clipPath id="clip_0"><rect width="272" height="178"></rect></clipPath><g><g><g><line x1="0" y1="0" x2="0" y2="178" fill="rgb(0, 0, 0)" stroke="rgb(60, 60, 60)" stroke-width="1px" opacity="0.25"></line><line x1="30.22222222222222" y1="0" x2="30.22222222222222" y2="178" fill="rgb(0, 0, 0)" stroke="rgb(60, 60, 60)" stroke-width="1px" opacity="0.25"></line><line x1="60.44444444444444" y1="0" x2="60.44444444444444" y2="178" fill="rgb(0, 0, 0)" stroke="rgb(60, 60, 60)" stroke-width="1px" opacity="0.25"></line><line x1="90.66666666666666" y1="0" x2="90.66666666666666" y2="178" fill="rgb(0, 0, 0)" stroke="rgb(60, 60, 60)" stroke-width="1px" opacity="0.25"></line><line x1="120.88888888888889" y1="0" x2="120.88888888888889" y2="178" fill="rgb(0, 0, 0)" stroke="rgb(60, 60, 60)" stroke-width="1px" opacity="0.25"></line><line x1="151.11111111111111" y1="0" x2="151.11111111111111" y2="178" fill="rgb(0, 0, 0)" stroke="rgb(60, 60, 60)" stroke-width="1px" opacity="0.25"></line><line x1="181.33333333333331" y1="0" x2="181.33333333333331" y2="178" fill="rgb(0, 0, 0)" stroke="rgb(60, 60, 60)" stroke-width="1px" opacity="0.25"></line><line x1="211.55555555555557" y1="0" x2="211.55555555555557" y2="178" fill="rgb(0, 0, 0)" stroke="rgb(60, 60, 60)" stroke-width="1px" opacity="0.25"></line><line x1="241.77777777777777" y1="0" x2="241.77777777777777" y2="178" fill="rgb(0, 0, 0)" stroke="rgb(60, 60, 60)" stroke-width="1px" opacity="0.25"></line><line x1="272" y1="0" x2="272" y2="178" fill="rgb(0, 0, 0)" stroke="rgb(60, 60, 60)" stroke-width="1px" opacity="0.25"></line></g><g><line x1="0" y1="178" x2="272" y2="178" fill="rgb(0, 0, 0)" stroke="rgb(60, 60, 60)" stroke-width="1px" opacity="0.25"></line><line x1="0" y1="160.2" x2="272" y2="160.2" fill="rgb(0, 0, 0)" stroke="rgb(60, 60, 60)" stroke-width="1px" opacity="0.25"></line><line x1="0" y1="142.4" x2="272" y2="142.4" fill="rgb(0, 0, 0)" stroke="rgb(60, 60, 60)" stroke-width="1px" opacity="0.25"></line><line x1="0" y1="124.6" x2="272" y2="124.6" fill="rgb(0, 0, 0)" stroke="rgb(60, 60, 60)" stroke-width="1px" opacity="0.25"></line><line x1="0" y1="106.8" x2="272" y2="106.8" fill="rgb(0, 0, 0)" stroke="rgb(60, 60, 60)" stroke-width="1px" opacity="0.25"></line><line x1="0" y1="89" x2="272" y2="89" fill="rgb(0, 0, 0)" stroke="rgb(60, 60, 60)" stroke-width="1px" opacity="0.25"></line><line x1="0" y1="71.2" x2="272" y2="71.2" fill="rgb(0, 0, 0)" stroke="rgb(60, 60, 60)" stroke-width="1px" opacity="0.25"></line><line x1="0" y1="53.400000000000006" x2="272" y2="53.400000000000006" fill="rgb(0, 0, 0)" stroke="rgb(60, 60, 60)" stroke-width="1px" opacity="0.25"></line><line x1="0" y1="35.60000000000002" x2="272" y2="35.60000000000002" fill="rgb(0, 0, 0)" stroke="rgb(60, 60, 60)" stroke-width="1px" opacity="0.25"></line><line x1="0" y1="17.799999999999983" x2="272" y2="17.799999999999983" fill="rgb(0, 0, 0)" stroke="rgb(60, 60, 60)" stroke-width="1px" opacity="0.25"></line><line x1="0" y1="0" x2="272" y2="0" fill="rgb(0, 0, 0)" stroke="rgb(60, 60, 60)" stroke-width="1px" opacity="0.25"></line></g></g></g><g><g><line x1="0" y1="160.2" x2="272" y2="160.2" fill="rgb(0, 0, 0)" stroke="rgb(153, 153, 153)" stroke-width="1.5px"></line></g></g><g><g><line x1="30.22222222222222" y1="0" x2="30.22222222222222" y2="178" fill="rgb(0, 0, 0)" stroke="rgb(153, 153, 153)" stroke-width="1.5px"></line></g></g><g><g><g><g><g><path stroke="rgb(0, 119, 187)" stroke-width="2px" d="M30.506231358024692,-0.40351964832839826L30.6293449382716,1.3165687104785775L30.747039506172836,2.9799317738795423L30.859764197530865,4.582602500987576L31.01273061728395,6.366311004109207L31.130047407407407,8.06430412423947L31.25313580246914,9.73659908780266L31.39112962962963,11.469001101125599L31.50457209876543,13.106478248703098L31.631488641975306,14.756795657341371L31.74486395061728,16.34504819702147L31.864044444444446,17.925979353438322L32.00883827160494,19.637085740689514L32.15549160493827,21.43626321235908L32.27509185185185,23.144464269562775L32.378107654320985,24.71193020035622L32.50015086419753,26.293918086759504L32.61919283950618,27.87252017111348L32.74022864197531,29.461903119093535L32.87646790123457,31.13821385207956L33.04806716049383,33.05393698384L33.18680395061729,34.93886832279364L33.29568790123457,36.64583221010895L33.41781925925926,38.31365838374347L33.52685432098765,39.890363444412316L33.65199111111111,41.49712007892563L33.789989135802465,43.185281083012285L33.897366172839504,44.760657655544975L34.04100148148148,46.45917983004878L34.18565679012346,48.23728461378036L34.309173333333334,49.95206465871132L34.43917925925926,51.663029834233996L34.56210395061729,53.33254383390458L34.68906666666667,54.99712473877871L34.79679209876543,56.55977918830489L34.93854691358024,58.235717004165025L35.110280493827155,60.136974092541095L35.30162913580247,62.2752412106194L35.43403185185185,64.25026319181116L35.552788395061725,66.05115672681725L35.71437654320988,67.97043052634557L35.871108148148146,69.93581047130544L36.06054691358025,72.09546131654561L36.20718345679012,74.14739780166266L36.3586387654321,76.1610472520509L36.52530592592593,78.2300447464184L36.67032222222222,80.22046591759923L36.83968839506173,82.28905584049957L36.97180987654321,84.21088100929711L37.12923827160494,86.1756571189145L37.264717777777776,88.05157101962449L37.399458518518514,89.86918319233348L37.53576074074074,91.66107016663608L37.70321283950618,93.5962972084335L37.856796296296295,95.54561836240597L38.02662839506173,97.58598768423742L38.194109876543216,99.66603269881455L38.335004197530864,101.6346040219453L38.52117308641976,103.76697836699408L38.71025925925925,106.01187476624443L38.89869901234568,108.31929999535915L39.098736543209874,110.71977967468283L39.30660666666667,113.2145402505838L39.520710123456794,115.7979083153512L39.70348740740741,118.27281700211202L39.89914271604938,120.74886580370327L40.09684222222223,123.23200794972456L40.34167580246913,125.95578858683989L40.58117851851852,128.79618480342916L40.829857037037044,131.7478472789424L41.07005654320988,134.72639641048298L41.30570592592592,137.6954457383262L41.556336296296294,140.73569163685482L41.80070395061728,143.78376678112414L42.05404592592593,146.87997210194627L42.26456888888889,149.78931937795852L42.568402962962956,152.529591658604L42.857621234567894,154.17375502699127L43.09336296296296,155.16025304802366L43.33966567901235,155.75215186064307L43.560128395061724,156.10729114821473L43.8270661728395,156.3203747207577L44.03155728395061,156.4482248642835L44.28194419753087,156.52493495039897L44.615278518518515,156.57096100206826L44.900857530864194,156.59857663306985L45.221355802469134,156.6151460116708L45.48044839506172,156.62508763883136L45.709239012345684,156.6310526151277L45.96651407407408,156.6346316009055L46.288678765432095,156.63677899237217L46.55190592592593,156.6380674272522L46.8465725925926,156.6388404881802L47.12173333333333,156.639304324737L47.530325185185184,156.63958262667109L47.92776839506172,156.63974960783153L48.20114518518519,156.63984979652778L48.51699679012345,156.63990990974557L48.884037283950626,156.6399459776762L49.196879259259255,156.6399676184346L49.54762074074074,156.63998060288964L49.879439753086416,156.63998839356267L50.243059259259255,156.6399930679665L50.583382469135806,156.63999587260878L51.01416666666667,156.63999755539413L51.39455950617283,156.63999856506535L51.7475550617284,156.6399991708681L52.15682691358025,156.63999953434973L52.55101283950617,156.6399997524387L52.96727358024692,156.63999988329212L53.38461728395062,156.63999996180416L53.76200888888889,156.64000000891136L54.14570518518519,156.6400000371757L54.560530370370365,156.6400000541343L54.95034246913581,156.64000006430945L55.238255308641975,156.64000007041454L55.56677086419754,156.64000007407762L55.90925160493826,156.64000007627544L56.30171234567901,156.64000007759415L56.58339604938271,156.64000007838536L56.86957530864198,156.6400000788601L57.11740172839506,156.64000007914495L57.3757849382716,156.64000007931585L57.66169135802469,156.6400000794184L57.9374775308642,156.6400000794799L58.25884469135802,156.64000007951682L58.52522839506173,156.64000007953896L58.803868888888886,156.64000007955227L59.14465382716049,156.64000007956025L59.4293849382716,156.64000007956503L59.76907851851852,156.6400000795679L60.127539259259265,156.64000007956963L60.43688049382716,156.64000007957065L60.7342461728395,156.64000007957128L61.00891160493828,156.64000007957165L61.33859407407408,156.64000007957185L61.64691111111111,156.640000079572L61.92210123456789,156.64000007957208L62.295085432098766,156.64000007957213L62.55441308641976,156.64000007957216L62.87049135802469,156.6400000795722L63.152527654321,156.6400000795722L63.412119753086415,156.6400000795722L63.7290375308642,156.6400000795722L63.97157086419753,156.6400000795722L64.21613160493827,156.6400000795722L64.49651827160493,156.6400000795722L64.80813876543209,156.6400000795722L65.10802296296296,156.6400000795722L65.34483506172839,156.6400000795722L65.64363209876544,156.6400000795722L65.95357358024692,156.6400000795722L66.20777604938272,156.6400000795722L66.47065901234569,156.6400000795722L66.7670424691358,156.6400000795722L67.02537950617284,156.6400000795722L67.31527358024692,156.6400000795722L67.60118,156.6400000795722L67.88476938271604,156.6400000795722L68.16249481481482,156.6400000795722L68.43646345679011,156.6400000795722L68.67361975308643,156.6400000795722L69.00812938271605,156.6400000795722L69.27514691358023,156.6400000795722L69.54639555555555,156.6400000795722L69.82830592592593,156.6400000795722L70.08181580246914,156.6400000795722L70.3460587654321,156.6400000795722L70.59508567901236,156.6400000795722L70.83523901234568,156.6400000795722L71.08374543209877,156.6400000795722L71.34738395061727,156.6400000795722L71.6001550617284,156.6400000795722L71.8404637037037,156.6400000795722L72.1256775308642,156.6400000795722L72.39714024691358,156.6400000795722L72.699727654321,156.6400000795722L72.95858098765433,156.6400000795722L73.20287728395063,156.6400000795722L73.49236419753086,156.6400000795722L73.89255679012345,156.6400000795722L74.1465074074074,156.6400000795722L74.38657259259259,156.6400000795722L74.66245950617284,156.6400000795722L74.97762691358025,156.6400000795722L75.25947432098766,156.6400000795722L75.54062074074074,156.6400000795722L75.78091259259259,156.6400000795722L76.05643432098766,156.6400000795722L76.31506518518518,156.6400000795722L76.59572888888889,156.6400000795722L76.89065580246914,156.6400000795722L77.1880886419753,156.6400000795722L77.45163901234567,156.6400000795722L77.7342713580247,156.6400000795722L78.03555333333333,156.6400000795722L78.32207679012345,156.6400000795722L78.5788649382716,156.6400000795722L78.82282543209877,156.6400000795722L79.16458839506173,156.6400000795722L79.48969555555556,156.6400000795722L79.76487728395061,156.6400000795722L80.04328691358025,156.6400000795722L80.33062469135803,156.6400000795722L80.57600395061729,156.6400000795722L80.8216014814815,156.6400000795722L81.09804666666665,156.6400000795722L81.34632222222221,156.6400000795722L81.61257160493828,156.6400000795722L81.86795777777778,156.6400000795722L82.1062012345679,156.6400000795722L82.43150567901236,156.6400000795722L82.74336543209877,156.6400000795722L83.05765555555556,156.6400000795722L83.37408222222223,156.6400000795722L83.62723530864199,156.6400000795722L83.914195308642,156.6400000795722L84.28495481481482,156.6400000795722L84.57339234567901,156.6400000795722L84.84025456790123,156.6400000795722L85.0816797530864,156.6400000795722L85.34643061728396,156.6400000795722L85.63901530864197,156.6400000795722L85.99107481481481,156.6400000795722L86.22925950617282,156.6400000795722L86.48200543209876,156.6400000795722L86.83680172839506,156.6400000795722L87.09707802469136,156.6400000795722L87.34613432098767,156.6400000795722L87.59000666666667,156.6400000795722L87.87551851851853,156.6400000795722L88.16640320987653,156.6400000795722L88.43091901234567,156.6400000795722L88.74002098765432,156.6400000795722L88.98392691358023,156.6400000795722L89.23998049382716,156.6400000795722L89.54299185185185,156.6400000795722L89.7874350617284,156.6400000795722L90.11130814814814,156.6400000795722L90.36256395061729,156.6400000795722L90.62762962962962,156.6400000795722L90.92327432098766,156.6400000795722L91.23556222222223,156.6400000795722L91.52901160493826,156.6400000795722L91.78605580246912,156.6400000795722L92.03394518518519,156.6400000795722L92.31633407407408,156.6400000795722L92.57569111111111,156.6400000795722L92.8134224691358,156.6400000795722L93.09477456790123,156.6400000795722L93.35888740740742,156.6400000795722L93.63094617283951,156.6400000795722L93.86954222222221,156.6400000795722L94.1572409876543,156.6400000795722L94.43816493827161,156.6400000795722L94.773052345679,156.6400000795722L95.04894345679013,156.6400000795722L95.40549432098766,156.6400000795722L95.64081209876542,156.6400000795722L95.8973525925926,156.6400000795722L96.22473901234568,156.6400000795722L96.51658074074075,156.6400000795722L96.75372024691359,156.6400000795722L97.05214790123458,156.6400000795722L97.30116222222223,156.6400000795722L97.56459086419753,156.6400000795722L97.90180370370372,156.6400000795722L98.20696419753087,156.6400000795722L98.44684469135801,156.6400000795722L98.70004814814816,156.6400000795722L98.95121160493828,156.6400000795722L99.19781654320987,156.6400000795722L99.49087555555555,156.6400000795722L99.77954395061728,156.6400000795722L100.01888716049383,156.6400000795722L100.2809012345679,156.6400000795722L100.54853580246913,156.6400000795722L100.78886123456789,156.6400000795722L101.12011777777778,156.6400000795722L101.39124049382715,156.6400000795722L101.65469851851852,156.6400000795722L101.90330148148148,156.6400000795722L102.14130567901235,156.6400000795722L102.41050172839506,156.6400000795722L102.7136851851852,156.6400000795722L102.97345777777778,156.6400000795722L103.25302592592594,156.6400000795722L103.50235086419752,156.6400000795722L103.76745432098765,156.6400000795722L104.06560074074075,156.6400000795722L104.34202074074074,156.6400000795722L104.60929432098766,156.6400000795722L104.84761333333333,156.6400000795722L105.12853308641976,156.6400000795722L105.43828567901234,156.6400000795722L105.74228765432099,156.6400000795722L106.01822493827162,156.6400000795722L106.26267234567901,156.6400000795722L106.53566716049383,156.6400000795722L106.7834474074074,156.6400000795722L107.0502172839506,156.6400000795722L107.31161851851851,156.6400000795722L107.61304320987654,156.6400000795722L107.9031387654321,156.6400000795722L108.15679135802468,156.6400000795722L108.44855333333334,156.6400000795722L108.78034296296296,156.6400000795722L109.02824913580247,156.6400000795722L109.27136592592592,156.6400000795722L109.53139456790123,156.6400000795722L109.81328395061729,156.6400000795722L110.0631,156.6400000795722L110.30117555555555,156.6400000795722L110.56829382716049,156.6400000795722L110.812707654321,156.6400000795722L111.07748790123456,156.6400000795722L111.37237703703703,156.6400000795722L111.68185679012345,156.6400000795722L111.9976664197531,156.6400000795722L112.25763209876543,156.6400000795722L112.52743259259259,156.6400000795722L112.81048469135801,156.6400000795722L113.07872790123457,156.6400000795722L113.36396691358024,156.6400000795722L113.6250449382716,156.6400000795722L113.92236024691358,156.6400000795722L114.17547135802468,156.6400000795722L114.43855160493827,156.6400000795722L114.68737283950618,156.6400000795722L114.93996765432098,156.6400000795722L115.17927308641976,156.6400000795722L115.42701975308641,156.6400000795722L115.68311530864197,156.6400000795722L116.06449876543209,156.6400000795722L116.32922024691356,156.6400000795722L116.59987703703703,156.6400000795722L116.94630345679012,156.6400000795722L117.19263135802468,156.6400000795722L117.4436311111111,156.6400000795722L117.69903827160493,156.6400000795722L117.96568641975308,156.6400000795722L118.22903530864197,156.6400000795722L118.53507728395063,156.6400000795722L118.79524444444444,156.6400000795722L119.05149950617283,156.6400000795722L119.28913432098764,156.6400000795722L119.55038024691358,156.6400000795722L119.83094320987654,156.6400000795722L120.09387654320987,156.6400000795722L120.34298320987655,156.6400000795722L120.6098538271605,156.6400000795722L120.92652814814815,156.6400000795722L121.20337209876543,156.6400000795722L121.48899728395061,156.6400000795722L121.75274913580247,156.6400000795722L122.03506666666665,156.6400000795722L122.2732387654321,156.6400000795722L122.56574370370369,156.6400000795722L122.80357580246914,156.6400000795722L123.0493664197531,156.6400000795722L123.30092024691358,156.6400000795722L123.55081185185186,156.6400000795722L123.79590148148148,156.6400000795722L124.05299185185187,156.6400000795722L124.31893061728395,156.6400000795722L124.55614567901236,156.6400000795722L124.80101283950619,156.6400000795722L125.05934148148148,156.6400000795722L125.29652296296295,156.6400000795722L125.56830469135802,156.6400000795722L125.80546938271605,156.6400000795722L126.0679661728395,156.6400000795722L126.30497975308641,156.6400000795722L126.56009308641977,156.6400000795722L126.79717382716048,156.6400000795722L127.04811481481481,156.6400000795722L127.31913679012345,156.6400000795722L127.5561083950617,156.6400000795722L127.79310938271605,156.6400000795722L128.05781827160496,156.6400000795722L128.29465975308642,156.6400000795722L128.53207629629628,156.6400000795722L128.7829375308642,156.6400000795722L129.0285308641975,156.6400000795722L129.32322691358027,156.6400000795722L129.5902024691358,156.6400000795722L129.901327654321,156.6400000795722L130.20357925925927,156.6400000795722L130.43961901234567,156.6400000795722L130.71729407407406,156.6400000795722L130.97826296296296,156.6400000795722L131.23264172839507,156.6400000795722L131.4841619753086,156.6400000795722L131.7407486419753,156.6400000795722L131.99608444444445,156.6400000795722L132.24053185185184,156.6400000795722L132.4942012345679,156.6400000795722L132.75706320987655,156.6400000795722L133.0195138271605,156.6400000795722L133.32532074074072,156.6400000795722L133.5601474074074,156.6400000795722L133.79695530864197,156.6400000795722L134.06468222222222,156.6400000795722L134.34818765432098,156.6400000795722L134.61982666666665,156.6400000795722L134.85695358024694,156.6400000795722L135.15112913580245,156.6400000795722L135.46382,156.6400000795722L135.70768814814815,156.6400000795722L135.9810313580247,156.6400000795722L136.25372395061729,156.6400000795722L136.4883575308642,156.6400000795722L136.73173037037037,156.6400000795722L136.96630518518518,156.6400000795722L137.20121580246914,156.6400000795722L137.4721664197531,156.6400000795722L137.74307506172838,156.6400000795722L137.99276938271606,156.6400000795722L138.2479750617284,156.6400000795722L138.49106666666668,156.6400000795722L138.75468419753088,156.6400000795722L139.0325061728395,156.6400000795722L139.27006543209876,156.6400000795722L139.51392518518517,156.6400000795722L139.76626395061726,156.6400000795722L140.03456172839506,156.6400000795722L140.30083209876543,156.6400000795722L140.562552345679,156.6400000795722L140.82177506172837,156.6400000795722L141.13726567901233,156.6400000795722L141.37486691358026,156.6400000795722L141.6124009876543,156.6400000795722L141.8517064197531,156.6400000795722L142.18087259259258,156.6400000795722L142.42843037037036,156.6400000795722L142.66610296296295,156.6400000795722L142.94689679012345,156.6400000795722L143.18563555555556,156.6400000795722L143.43739086419754,156.6400000795722L143.700815308642,156.6400000795722L143.95451407407407,156.6400000795722L144.1919641975309,156.6400000795722L144.44377827160494,156.6400000795722L144.73504913580248,156.6400000795722L145.06017308641975,156.6400000795722L145.30570345679013,156.6400000795722L145.57194864197533,156.6400000795722L145.8350288888889,156.6400000795722L146.11457185185182,156.6400000795722L146.38976197530863,156.6400000795722L146.6647548148148,156.6400000795722L146.92926222222223,156.6400000795722L147.22198543209876,156.6400000795722L147.46801530864198,156.6400000795722L147.77773432098763,156.6400000795722L148.04505407407407,156.6400000795722L148.29157925925924,156.6400000795722L148.52892444444444,156.6400000795722L148.81677432098766,156.6400000795722L149.09853777777778,156.6400000795722L149.3635237037037,156.6400000795722L149.6234977777778,156.6400000795722L149.8605365432099,156.6400000795722L150.09821333333335,156.6400000795722L150.35246197530864,156.6400000795722L150.62578000000002,156.6400000795722L150.86282716049385,156.6400000795722L151.1164713580247,156.6400000795722L151.42076716049382,156.6400000795722L151.68585802469136,156.6400000795722L151.95498691358023,156.6400000795722L152.20880320987655,156.6400000795722L152.44629530864196,156.6400000795722L152.72079283950617,156.6400000795722L152.95798691358027,156.6400000795722L153.19522296296296,156.6400000795722L153.43237925925925,156.6400000795722L153.6694138271605,156.6400000795722L153.90662469135802,156.6400000795722L154.14358790123458,156.6400000795722L154.38908049382718,156.6400000795722L154.66638197530864,156.6400000795722L154.91710469135802,156.6400000795722L155.18876049382715,156.6400000795722L155.4396679012346,156.6400000795722L155.6971024691358,156.6400000795722L155.93426296296298,156.6400000795722L156.1854138271605,156.6400000795722L156.43192222222223,156.6400000795722L156.69460790123458,156.6400000795722L156.97912913580245,156.6400000795722L157.21655827160495,156.6400000795722L157.46414123456788,156.6400000795722L157.70160814814813,156.6400000795722L157.94722666666664,156.6400000795722L158.18479432098766,156.6400000795722L158.42260962962962,156.6400000795722L158.67656444444447,156.6400000795722L158.98233358024692,156.6400000795722L159.251764691358,156.6400000795722L159.48910567901234,156.6400000795722L159.75324370370373,156.6400000795722L159.99094148148149,156.6400000795722L160.24911481481482,156.6400000795722L160.49582049382715,156.6400000795722L160.7485286419753,156.6400000795722L161.00022098765433,156.6400000795722L161.3061622222222,156.6400000795722L161.55485753086418,156.6400000795722L161.79972469135805,156.6400000795722L162.16442716049383,156.6400000795722L162.4022214814815,156.6400000795722L162.6396254320988,156.6400000795722L162.87708814814812,156.6400000795722L163.1368187654321,156.6400000795722L163.39899654320988,156.6400000795722L163.67155061728394,156.6400000795722L163.96936123456788,156.6400000795722L164.25517530864198,156.6400000795722L164.5057762962963,156.6400000795722L164.79759283950617,156.6400000795722L165.03496320987657,156.6400000795722L165.28200469135803,156.6400000795722L165.53921259259258,156.6400000795722L165.7926637037037,156.6400000795722L166.03032370370371,156.6400000795722L166.27944716049385,156.6400000795722L166.54295135802468,156.6400000795722L166.81184518518518,156.6400000795722L167.04893432098766,156.6400000795722L167.30012296296297,156.6400000795722L167.53710296296296,156.6400000795722L167.8023071604938,156.6400000795722L168.03938370370372,156.6400000795722L168.30372320987655,156.6400000795722L168.57574419753087,156.6400000795722L168.81319012345676,156.6400000795722L169.0650503703704,156.6400000795722L169.30987975308642,156.6400000795722L169.54931111111108,156.6400000795722L169.81221506172838,156.6400000795722L170.04958962962962,156.6400000795722L170.29611061728394,156.6400000795722L170.58147555555556,156.6400000795722L170.84429555555553,156.6400000795722L171.10586049382718,156.6400000795722L171.3821839506173,156.6400000795722L171.63133679012344,156.6400000795722L171.90765604938272,156.6400000795722L172.1702661728395,156.6400000795722L172.40807308641976,156.6400000795722L172.67525012345678,156.6400000795722L172.92505777777777,156.6400000795722L173.18677802469136,156.6400000795722L173.43595185185185,156.6400000795722L173.7090012345679,156.6400000795722L173.9718883950617,156.6400000795722L174.22743407407407,156.6400000795722L174.502372345679,156.6400000795722L174.7401834567901,156.6400000795722L174.97787283950615,156.6400000795722L175.26006024691358,156.6400000795722L175.51405703703702,156.6400000795722L175.75138123456793,156.6400000795722L175.98858790123458,156.6400000795722L176.22613037037038,156.6400000795722L176.48050913580246,156.6400000795722L176.77148617283953,156.6400000795722L177.0206138271605,156.6400000795722L177.25847950617282,156.6400000795722L177.49606814814814,156.6400000795722L177.74621580246912,156.6400000795722L177.9841738271605,156.6400000795722L178.22197654320988,156.6400000795722L178.50858814814814,156.6400000795722L178.7483259259259,156.6400000795722L179.00727160493827,156.6400000795722L179.25337703703704,156.6400000795722L179.50480074074076,156.6400000795722L179.75073407407407,156.6400000795722L179.9881925925926,156.6400000795722L180.2526748148148,156.6400000795722L180.5196839506173,156.6400000795722L180.77083061728396,156.6400000795722L181.0084402469136,156.6400000795722L181.27128543209878,156.6400000795722L181.56988938271604,156.6400000795722L181.83148370370373,156.6400000795722L182.08619827160493,156.6400000795722L182.33695456790124,156.6400000795722L182.59689086419755,156.6400000795722L182.85105975308642,156.6400000795722L183.12002913580244,156.6400000795722L183.35718962962966,156.6400000795722L183.6160135802469,156.6400000795722L183.95553086419756,156.6400000795722L184.22784567901235,156.6400000795722L184.4747150617284,156.6400000795722L184.7335474074074,156.6400000795722L184.9710898765432,156.6400000795722L185.20843506172838,156.6400000795722L185.47676641975306,156.6400000795722L185.7141745679012,156.6400000795722L185.95168345679014,156.6400000795722L186.20176395061728,156.6400000795722L186.43896222222222,156.6400000795722L186.7018535802469,156.6400000795722L186.9649002469136,156.6400000795722L187.2025602469136,156.6400000795722L187.44071135802469,156.6400000795722L187.69993827160494,156.6400000795722L187.95028740740742,156.6400000795722L188.19603185185184,156.6400000795722L188.43355333333332,156.6400000795722L188.686924691358,156.6400000795722L188.94937530864198,156.6400000795722L189.21834469135803,156.6400000795722L189.49141925925923,156.6400000795722L189.76969456790124,156.6400000795722L190.00789185185187,156.6400000795722L190.2458120987654,156.6400000795722L190.50772962962964,156.6400000795722L190.75346148148148,156.6400000795722L190.99168814814817,156.6400000795722L191.25241358024692,156.6400000795722L191.48964543209877,156.6400000795722L191.73666592592593,156.6400000795722L191.97415802469135,156.6400000795722L192.23011925925923,156.6400000795722L192.47535580246915,156.6400000795722L192.72643950617282,156.6400000795722L192.97212098765434,156.6400000795722L193.2574901234568,156.6400000795722L193.5951688888889,156.6400000795722L193.8410308641975,156.6400000795722L194.10498419753088,156.6400000795722L194.34970024691356,156.6400000795722L194.6044861728395,156.6400000795722L194.85051604938272,156.6400000795722L195.1103725925926,156.6400000795722L195.39120419753087,156.6400000795722L195.70910839506175,156.6400000795722L196.0222525925926,156.6400000795722L196.28154666666666,156.6400000795722L196.5187575308642,156.6400000795722L196.7742822222222,156.6400000795722L197.03406320987654,156.6400000795722L197.29743728395064,156.6400000795722L197.53467333333333,156.6400000795722L197.7848,156.6400000795722L198.06030074074073,156.6400000795722L198.30317407407406,156.6400000795722L198.57753728395065,156.6400000795722L198.83113950617283,156.6400000795722L199.08588345679013,156.6400000795722L199.35722864197533,156.6400000795722L199.59451925925924,156.6400000795722L199.8409898765432,156.6400000795722L200.10859925925928,156.6400000795722L200.35443185185184,156.6400000795722L200.6365814814815,156.6400000795722L200.91016814814813,156.6400000795722L201.18297827160492,156.6400000795722L201.42003802469137,156.6400000795722L201.6674279012346,156.6400000795722L201.91262246913578,156.6400000795722L202.19869679012345,156.6400000795722L202.43608395061727,156.6400000795722L202.67311432098765,156.6400000795722L202.90957802469137,156.6400000795722L203.146537037037,156.6400000795722L203.39585777777776,156.6400000795722L203.6467274074074,156.6400000795722L203.89269851851853,156.6400000795722L204.1295987654321,156.6400000795722L204.3895224691358,156.6400000795722L204.62647308641976,156.6400000795722L204.8786271604938,156.6400000795722L205.12472839506174,156.6400000795722L205.37545530864196,156.6400000795722L205.63382172839505,156.6400000795722L205.87062543209876,156.6400000795722L206.11688197530864,156.6400000795722L206.3617239506173,156.6400000795722L206.59849407407407,156.6400000795722L206.84282814814813,156.6400000795722L207.1052913580247,156.6400000795722L207.39421160493828,156.6400000795722L207.63118320987653,156.6400000795722L207.86993037037038,156.6400000795722L208.11751333333336,156.6400000795722L208.4188498765432,156.6400000795722L208.7170928395062,156.6400000795722L208.9618088888889,156.6400000795722L209.19838592592595,156.6400000795722L209.43539950617284,156.6400000795722L209.67993925925924,156.6400000795722L209.93781456790123,156.6400000795722L210.1752479012346,156.6400000795722L210.46373580246913,156.6400000795722L210.72834814814814,156.6400000795722L210.97850419753087,156.6400000795722L211.23197209876545,156.6400000795722L211.49813333333333,156.6400000795722L211.78864864197533,156.6400000795722L212.02574197530862,156.6400000795722L212.2732451851852,156.6400000795722L212.5104560493827,156.6400000795722L212.74747382716046,156.6400000795722L212.98446641975306,156.6400000795722L213.2215849382716,156.6400000795722L213.46776172839503,156.6400000795722L213.71408543209878,156.6400000795722L213.951212345679,156.6400000795722L214.20649777777777,156.6400000795722L214.46626617283948,156.6400000795722L214.7375777777778,156.6400000795722L215.01922370370372,156.6400000795722L215.31171185185184,156.6400000795722L215.55808592592595,156.6400000795722L215.8047748148148,156.6400000795722L216.05048567901233,156.6400000795722L216.28774691358026,156.6400000795722L216.5398002469136,156.6400000795722L216.79579925925927,156.6400000795722L217.03305209876544,156.6400000795722L217.28630172839505,156.6400000795722L217.54013481481482,156.6400000795722L217.8052760493827,156.6400000795722L218.0723439506173,156.6400000795722L218.33058444444447,156.6400000795722L218.57956938271604,156.6400000795722L218.8401227160494,156.6400000795722L219.0909461728395,156.6400000795722L219.33707679012346,156.6400000795722L219.5912624691358,156.6400000795722L219.8370572839506,156.6400000795722L220.09269950617283,156.6400000795722L220.33869580246915,156.6400000795722L220.5924533333333,156.6400000795722L220.83988098765434,156.6400000795722L221.1032760493827,156.6400000795722L221.38392296296297,156.6400000795722L221.62149901234565,156.6400000795722L221.86667259259258,156.6400000795722L222.12841802469134,156.6400000795722L222.3953222222222,156.6400000795722L222.65926296296297,156.6400000795722L222.91082098765432,156.6400000795722L223.19310074074073,156.6400000795722L223.47720641975306,156.6400000795722L223.75576716049383,156.6400000795722L223.9932886419753,156.6400000795722L224.24425901234565,156.6400000795722L224.4815664197531,156.6400000795722L224.72655950617286,156.6400000795722L224.97465456790124,156.6400000795722L225.2511291358025,156.6400000795722L225.4886086419753,156.6400000795722L225.72564320987652,156.6400000795722L225.9757866666667,156.6400000795722L226.23056,156.6400000795722L226.46854320987651,156.6400000795722L226.72962962962964,156.6400000795722L227.0233812345679,156.6400000795722L227.2679125925926,156.6400000795722L227.53052691358025,156.6400000795722L227.78859950617283,156.6400000795722L228.02563827160492,156.6400000795722L228.27500938271606,156.6400000795722L228.51169975308645,156.6400000795722L228.74837333333332,156.6400000795722L228.99410098765432,156.6400000795722L229.23113135802467,156.6400000795722L229.4981824691358,156.6400000795722L229.74461530864198,156.6400000795722L229.98196469135803,156.6400000795722L230.2373550617284,156.6400000795722L230.50000296296295,156.6400000795722L230.7509901234568,156.6400000795722L230.99725925925927,156.6400000795722L231.23445753086418,156.6400000795722L231.47151308641975,156.6400000795722L231.70878691358024,156.6400000795722L231.94624962962965,156.6400000795722L232.2247390123457,156.6400000795722L232.47544493827158,156.6400000795722L232.73596049382715,156.6400000795722L232.97313777777777,156.6400000795722L233.21007160493826,156.6400000795722L233.4683414814815,156.6400000795722L233.70579160493827,156.6400000795722L233.95619950617282,156.6400000795722L234.20750987654324,156.6400000795722L234.46024740740742,156.6400000795722L234.71561679012345,156.6400000795722L234.9622595061728,156.6400000795722L235.2100859259259,156.6400000795722L235.47963456790123,156.6400000795722L235.7218698765432,156.6400000795722L235.97297456790122,156.6400000795722L236.21046666666666,156.6400000795722L236.46548765432098,156.6400000795722L236.70889827160494,156.6400000795722L236.9602590123457,156.6400000795722" style="fill: none;" fill="none"></path></g></g></g></g><g opacity="0.2"><g><g><g><path stroke="rgb(0, 119, 187)" stroke-width="2px" d="M30.329943456790126,-1.2655756950378532L30.3733375308642,0.4485580444336108L30.506231358024692,2.237457823753374L30.6293449382716,3.891084861755388L30.747039506172836,5.471717667579668L30.859764197530865,6.984724712371843L31.01273061728395,9.040615749359148L31.130047407407407,10.610575270652788L31.25313580246914,12.244616937637346L31.39112962962963,14.067340207099932L31.50457209876543,15.562544298172014L31.631488641975306,17.232181262969988L31.74486395061728,18.7273747444153L31.864044444444446,20.29734487533571L32.00883827160494,22.2037250518799L32.15549160493827,24.135016632080095L32.27509185185185,25.7067585706711L32.378107654320985,27.063125085830706L32.50015086419753,28.666897487640398L32.61919283950618,30.240421843528765L32.74022864197531,31.84597666263582L32.87646790123457,33.652679395675676L33.04806716049383,35.927521300315874L33.18680395061729,37.76626510620119L33.29568790123457,39.20627791881563L33.41781925925926,40.81539757251741L33.52685432098765,42.25542099475862L33.65199111111111,43.907255005836504L33.789989135802465,45.717522573471086L33.897366172839504,47.123722505569475L34.04100148148148,49.00696308612825L34.18565679012346,50.90444178581238L34.309173333333334,52.5242347240448L34.43917925925926,54.22947759628296L34.56210395061729,55.83681483268738L34.68906666666667,57.49399609565735L34.79679209876543,58.90376086235047L34.93854691358024,60.749623727798465L35.110280493827155,62.98885972499848L35.30162913580247,65.4826418876648L35.43403185185185,67.21279616355896L35.552788395061725,68.75249702930451L35.71437654320988,70.84934122562409L35.871108148148146,72.88388038873673L36.06054691358025,75.33493758440018L36.20718345679012,77.22530252933502L36.3586387654321,79.18152142763138L36.52530592592593,81.33354098796845L36.67032222222222,83.20609767436981L36.83968839506173,85.3919407248497L36.97180987654321,87.09361876249314L37.12923827160494,89.12282128334046L37.264717777777776,90.8654418706894L37.399458518518514,92.59560145139694L37.53576074074074,94.34890062808991L37.70321283950618,96.49913777112961L37.856796296296295,98.46960009336472L38.02662839506173,100.64654166698456L38.194109876543216,102.78610022068024L38.335004197530864,104.58746100664139L38.52117308641976,106.96553988456726L38.71025925925925,109.37921936511994L38.89869901234568,111.78043783903122L39.098736543209874,114.32049919366837L39.30660666666667,116.9566811144352L39.520710123456794,119.67296041250229L39.70348740740741,121.98518003225327L39.89914271604938,124.46293900609017L40.09684222222223,126.95672116875649L40.34167580246913,130.04145954251288L40.58117851851852,133.05677912831305L40.829857037037044,136.17534099221228L41.07005654320988,139.1942201077938L41.30570592592592,142.14901973009108L41.556336296296294,145.29606048464774L41.80070395061728,148.35587949752806L42.05404592592593,151.52428008317946L42.26456888888889,154.15334029197692L42.568402962962956,156.6400000795722L42.857621234567894,156.6400000795722L43.09336296296296,156.6400000795722L43.33966567901235,156.6400000795722L43.560128395061724,156.6400000795722L43.8270661728395,156.6400000795722L44.03155728395061,156.6400000795722L44.28194419753087,156.6400000795722L44.615278518518515,156.6400000795722L44.900857530864194,156.6400000795722L45.221355802469134,156.6400000795722L45.48044839506172,156.6400000795722L45.709239012345684,156.6400000795722L45.96651407407408,156.6400000795722L46.288678765432095,156.6400000795722L46.55190592592593,156.6400000795722L46.8465725925926,156.6400000795722L47.12173333333333,156.6400000795722L47.530325185185184,156.6400000795722L47.92776839506172,156.6400000795722L48.20114518518519,156.6400000795722L48.51699679012345,156.6400000795722L48.884037283950626,156.6400000795722L49.196879259259255,156.6400000795722L49.54762074074074,156.6400000795722L49.879439753086416,156.6400000795722L50.243059259259255,156.6400000795722L50.583382469135806,156.6400000795722L51.01416666666667,156.6400000795722L51.39455950617283,156.6400000795722L51.7475550617284,156.6400000795722L52.15682691358025,156.6400000795722L52.55101283950617,156.6400000795722L52.96727358024692,156.6400000795722L53.38461728395062,156.6400000795722L53.76200888888889,156.6400000795722L54.14570518518519,156.6400000795722L54.560530370370365,156.6400000795722L54.95034246913581,156.6400000795722L55.238255308641975,156.6400000795722L55.56677086419754,156.6400000795722L55.90925160493826,156.6400000795722L56.30171234567901,156.6400000795722L56.58339604938271,156.6400000795722L56.86957530864198,156.6400000795722L57.11740172839506,156.6400000795722L57.3757849382716,156.6400000795722L57.66169135802469,156.6400000795722L57.9374775308642,156.6400000795722L58.25884469135802,156.6400000795722L58.52522839506173,156.6400000795722L58.803868888888886,156.6400000795722L59.14465382716049,156.6400000795722L59.4293849382716,156.6400000795722L59.76907851851852,156.6400000795722L60.127539259259265,156.6400000795722L60.43688049382716,156.6400000795722L60.7342461728395,156.6400000795722L61.00891160493828,156.6400000795722L61.33859407407408,156.6400000795722L61.64691111111111,156.6400000795722L61.92210123456789,156.6400000795722L62.295085432098766,156.6400000795722L62.55441308641976,156.6400000795722L62.87049135802469,156.6400000795722L63.152527654321,156.6400000795722L63.412119753086415,156.6400000795722L63.7290375308642,156.6400000795722L63.97157086419753,156.6400000795722L64.21613160493827,156.6400000795722L64.49651827160493,156.6400000795722L64.80813876543209,156.6400000795722L65.10802296296296,156.6400000795722L65.34483506172839,156.6400000795722L65.64363209876544,156.6400000795722L65.95357358024692,156.6400000795722L66.20777604938272,156.6400000795722L66.47065901234569,156.6400000795722L66.7670424691358,156.6400000795722L67.02537950617284,156.6400000795722L67.31527358024692,156.6400000795722L67.60118,156.6400000795722L67.88476938271604,156.6400000795722L68.16249481481482,156.6400000795722L68.43646345679011,156.6400000795722L68.67361975308643,156.6400000795722L69.00812938271605,156.6400000795722L69.27514691358023,156.6400000795722L69.54639555555555,156.6400000795722L69.82830592592593,156.6400000795722L70.08181580246914,156.6400000795722L70.3460587654321,156.6400000795722L70.59508567901236,156.6400000795722L70.83523901234568,156.6400000795722L71.08374543209877,156.6400000795722L71.34738395061727,156.6400000795722L71.6001550617284,156.6400000795722L71.8404637037037,156.6400000795722L72.1256775308642,156.6400000795722L72.39714024691358,156.6400000795722L72.699727654321,156.6400000795722L72.95858098765433,156.6400000795722L73.20287728395063,156.6400000795722L73.49236419753086,156.6400000795722L73.89255679012345,156.6400000795722L74.1465074074074,156.6400000795722L74.38657259259259,156.6400000795722L74.66245950617284,156.6400000795722L74.97762691358025,156.6400000795722L75.25947432098766,156.6400000795722L75.54062074074074,156.6400000795722L75.78091259259259,156.6400000795722L76.05643432098766,156.6400000795722L76.31506518518518,156.6400000795722L76.59572888888889,156.6400000795722L76.89065580246914,156.6400000795722L77.1880886419753,156.6400000795722L77.45163901234567,156.6400000795722L77.7342713580247,156.6400000795722L78.03555333333333,156.6400000795722L78.32207679012345,156.6400000795722L78.5788649382716,156.6400000795722L78.82282543209877,156.6400000795722L79.16458839506173,156.6400000795722L79.48969555555556,156.6400000795722L79.76487728395061,156.6400000795722L80.04328691358025,156.6400000795722L80.33062469135803,156.6400000795722L80.57600395061729,156.6400000795722L80.8216014814815,156.6400000795722L81.09804666666665,156.6400000795722L81.34632222222221,156.6400000795722L81.61257160493828,156.6400000795722L81.86795777777778,156.6400000795722L82.1062012345679,156.6400000795722L82.43150567901236,156.6400000795722L82.74336543209877,156.6400000795722L83.05765555555556,156.6400000795722L83.37408222222223,156.6400000795722L83.62723530864199,156.6400000795722L83.914195308642,156.6400000795722L84.28495481481482,156.6400000795722L84.57339234567901,156.6400000795722L84.84025456790123,156.6400000795722L85.0816797530864,156.6400000795722L85.34643061728396,156.6400000795722L85.63901530864197,156.6400000795722L85.99107481481481,156.6400000795722L86.22925950617282,156.6400000795722L86.48200543209876,156.6400000795722L86.83680172839506,156.6400000795722L87.09707802469136,156.6400000795722L87.34613432098767,156.6400000795722L87.59000666666667,156.6400000795722L87.87551851851853,156.6400000795722L88.16640320987653,156.6400000795722L88.43091901234567,156.6400000795722L88.74002098765432,156.6400000795722L88.98392691358023,156.6400000795722L89.23998049382716,156.6400000795722L89.54299185185185,156.6400000795722L89.7874350617284,156.6400000795722L90.11130814814814,156.6400000795722L90.36256395061729,156.6400000795722L90.62762962962962,156.6400000795722L90.92327432098766,156.6400000795722L91.23556222222223,156.6400000795722L91.52901160493826,156.6400000795722L91.78605580246912,156.6400000795722L92.03394518518519,156.6400000795722L92.31633407407408,156.6400000795722L92.57569111111111,156.6400000795722L92.8134224691358,156.6400000795722L93.09477456790123,156.6400000795722L93.35888740740742,156.6400000795722L93.63094617283951,156.6400000795722L93.86954222222221,156.6400000795722L94.1572409876543,156.6400000795722L94.43816493827161,156.6400000795722L94.773052345679,156.6400000795722L95.04894345679013,156.6400000795722L95.40549432098766,156.6400000795722L95.64081209876542,156.6400000795722L95.8973525925926,156.6400000795722L96.22473901234568,156.6400000795722L96.51658074074075,156.6400000795722L96.75372024691359,156.6400000795722L97.05214790123458,156.6400000795722L97.30116222222223,156.6400000795722L97.56459086419753,156.6400000795722L97.90180370370372,156.6400000795722L98.20696419753087,156.6400000795722L98.44684469135801,156.6400000795722L98.70004814814816,156.6400000795722L98.95121160493828,156.6400000795722L99.19781654320987,156.6400000795722L99.49087555555555,156.6400000795722L99.77954395061728,156.6400000795722L100.01888716049383,156.6400000795722L100.2809012345679,156.6400000795722L100.54853580246913,156.6400000795722L100.78886123456789,156.6400000795722L101.12011777777778,156.6400000795722L101.39124049382715,156.6400000795722L101.65469851851852,156.6400000795722L101.90330148148148,156.6400000795722L102.14130567901235,156.6400000795722L102.41050172839506,156.6400000795722L102.7136851851852,156.6400000795722L102.97345777777778,156.6400000795722L103.25302592592594,156.6400000795722L103.50235086419752,156.6400000795722L103.76745432098765,156.6400000795722L104.06560074074075,156.6400000795722L104.34202074074074,156.6400000795722L104.60929432098766,156.6400000795722L104.84761333333333,156.6400000795722L105.12853308641976,156.6400000795722L105.43828567901234,156.6400000795722L105.74228765432099,156.6400000795722L106.01822493827162,156.6400000795722L106.26267234567901,156.6400000795722L106.53566716049383,156.6400000795722L106.7834474074074,156.6400000795722L107.0502172839506,156.6400000795722L107.31161851851851,156.6400000795722L107.61304320987654,156.6400000795722L107.9031387654321,156.6400000795722L108.15679135802468,156.6400000795722L108.44855333333334,156.6400000795722L108.78034296296296,156.6400000795722L109.02824913580247,156.6400000795722L109.27136592592592,156.6400000795722L109.53139456790123,156.6400000795722L109.81328395061729,156.6400000795722L110.0631,156.6400000795722L110.30117555555555,156.6400000795722L110.56829382716049,156.6400000795722L110.812707654321,156.6400000795722L111.07748790123456,156.6400000795722L111.37237703703703,156.6400000795722L111.68185679012345,156.6400000795722L111.9976664197531,156.6400000795722L112.25763209876543,156.6400000795722L112.52743259259259,156.6400000795722L112.81048469135801,156.6400000795722L113.07872790123457,156.6400000795722L113.36396691358024,156.6400000795722L113.6250449382716,156.6400000795722L113.92236024691358,156.6400000795722L114.17547135802468,156.6400000795722L114.43855160493827,156.6400000795722L114.68737283950618,156.6400000795722L114.93996765432098,156.6400000795722L115.17927308641976,156.6400000795722L115.42701975308641,156.6400000795722L115.68311530864197,156.6400000795722L116.06449876543209,156.6400000795722L116.32922024691356,156.6400000795722L116.59987703703703,156.6400000795722L116.94630345679012,156.6400000795722L117.19263135802468,156.6400000795722L117.4436311111111,156.6400000795722L117.69903827160493,156.6400000795722L117.96568641975308,156.6400000795722L118.22903530864197,156.6400000795722L118.53507728395063,156.6400000795722L118.79524444444444,156.6400000795722L119.05149950617283,156.6400000795722L119.28913432098764,156.6400000795722L119.55038024691358,156.6400000795722L119.83094320987654,156.6400000795722L120.09387654320987,156.6400000795722L120.34298320987655,156.6400000795722L120.6098538271605,156.6400000795722L120.92652814814815,156.6400000795722L121.20337209876543,156.6400000795722L121.48899728395061,156.6400000795722L121.75274913580247,156.6400000795722L122.03506666666665,156.6400000795722L122.2732387654321,156.6400000795722L122.56574370370369,156.6400000795722L122.80357580246914,156.6400000795722L123.0493664197531,156.6400000795722L123.30092024691358,156.6400000795722L123.55081185185186,156.6400000795722L123.79590148148148,156.6400000795722L124.05299185185187,156.6400000795722L124.31893061728395,156.6400000795722L124.55614567901236,156.6400000795722L124.80101283950619,156.6400000795722L125.05934148148148,156.6400000795722L125.29652296296295,156.6400000795722L125.56830469135802,156.6400000795722L125.80546938271605,156.6400000795722L126.0679661728395,156.6400000795722L126.30497975308641,156.6400000795722L126.56009308641977,156.6400000795722L126.79717382716048,156.6400000795722L127.04811481481481,156.6400000795722L127.31913679012345,156.6400000795722L127.5561083950617,156.6400000795722L127.79310938271605,156.6400000795722L128.05781827160496,156.6400000795722L128.29465975308642,156.6400000795722L128.53207629629628,156.6400000795722L128.7829375308642,156.6400000795722L129.0285308641975,156.6400000795722L129.32322691358027,156.6400000795722L129.5902024691358,156.6400000795722L129.901327654321,156.6400000795722L130.20357925925927,156.6400000795722L130.43961901234567,156.6400000795722L130.71729407407406,156.6400000795722L130.97826296296296,156.6400000795722L131.23264172839507,156.6400000795722L131.4841619753086,156.6400000795722L131.7407486419753,156.6400000795722L131.99608444444445,156.6400000795722L132.24053185185184,156.6400000795722L132.4942012345679,156.6400000795722L132.75706320987655,156.6400000795722L133.0195138271605,156.6400000795722L133.32532074074072,156.6400000795722L133.5601474074074,156.6400000795722L133.79695530864197,156.6400000795722L134.06468222222222,156.6400000795722L134.34818765432098,156.6400000795722L134.61982666666665,156.6400000795722L134.85695358024694,156.6400000795722L135.15112913580245,156.6400000795722L135.46382,156.6400000795722L135.70768814814815,156.6400000795722L135.9810313580247,156.6400000795722L136.25372395061729,156.6400000795722L136.4883575308642,156.6400000795722L136.73173037037037,156.6400000795722L136.96630518518518,156.6400000795722L137.20121580246914,156.6400000795722L137.4721664197531,156.6400000795722L137.74307506172838,156.6400000795722L137.99276938271606,156.6400000795722L138.2479750617284,156.6400000795722L138.49106666666668,156.6400000795722L138.75468419753088,156.6400000795722L139.0325061728395,156.6400000795722L139.27006543209876,156.6400000795722L139.51392518518517,156.6400000795722L139.76626395061726,156.6400000795722L140.03456172839506,156.6400000795722L140.30083209876543,156.6400000795722L140.562552345679,156.6400000795722L140.82177506172837,156.6400000795722L141.13726567901233,156.6400000795722L141.37486691358026,156.6400000795722L141.6124009876543,156.6400000795722L141.8517064197531,156.6400000795722L142.18087259259258,156.6400000795722L142.42843037037036,156.6400000795722L142.66610296296295,156.6400000795722L142.94689679012345,156.6400000795722L143.18563555555556,156.6400000795722L143.43739086419754,156.6400000795722L143.700815308642,156.6400000795722L143.95451407407407,156.6400000795722L144.1919641975309,156.6400000795722L144.44377827160494,156.6400000795722L144.73504913580248,156.6400000795722L145.06017308641975,156.6400000795722L145.30570345679013,156.6400000795722L145.57194864197533,156.6400000795722L145.8350288888889,156.6400000795722L146.11457185185182,156.6400000795722L146.38976197530863,156.6400000795722L146.6647548148148,156.6400000795722L146.92926222222223,156.6400000795722L147.22198543209876,156.6400000795722L147.46801530864198,156.6400000795722L147.77773432098763,156.6400000795722L148.04505407407407,156.6400000795722L148.29157925925924,156.6400000795722L148.52892444444444,156.6400000795722L148.81677432098766,156.6400000795722L149.09853777777778,156.6400000795722L149.3635237037037,156.6400000795722L149.6234977777778,156.6400000795722L149.8605365432099,156.6400000795722L150.09821333333335,156.6400000795722L150.35246197530864,156.6400000795722L150.62578000000002,156.6400000795722L150.86282716049385,156.6400000795722L151.1164713580247,156.6400000795722L151.42076716049382,156.6400000795722L151.68585802469136,156.6400000795722L151.95498691358023,156.6400000795722L152.20880320987655,156.6400000795722L152.44629530864196,156.6400000795722L152.72079283950617,156.6400000795722L152.95798691358027,156.6400000795722L153.19522296296296,156.6400000795722L153.43237925925925,156.6400000795722L153.6694138271605,156.6400000795722L153.90662469135802,156.6400000795722L154.14358790123458,156.6400000795722L154.38908049382718,156.6400000795722L154.66638197530864,156.6400000795722L154.91710469135802,156.6400000795722L155.18876049382715,156.6400000795722L155.4396679012346,156.6400000795722L155.6971024691358,156.6400000795722L155.93426296296298,156.6400000795722L156.1854138271605,156.6400000795722L156.43192222222223,156.6400000795722L156.69460790123458,156.6400000795722L156.97912913580245,156.6400000795722L157.21655827160495,156.6400000795722L157.46414123456788,156.6400000795722L157.70160814814813,156.6400000795722L157.94722666666664,156.6400000795722L158.18479432098766,156.6400000795722L158.42260962962962,156.6400000795722L158.67656444444447,156.6400000795722L158.98233358024692,156.6400000795722L159.251764691358,156.6400000795722L159.48910567901234,156.6400000795722L159.75324370370373,156.6400000795722L159.99094148148149,156.6400000795722L160.24911481481482,156.6400000795722L160.49582049382715,156.6400000795722L160.7485286419753,156.6400000795722L161.00022098765433,156.6400000795722L161.3061622222222,156.6400000795722L161.55485753086418,156.6400000795722L161.79972469135805,156.6400000795722L162.16442716049383,156.6400000795722L162.4022214814815,156.6400000795722L162.6396254320988,156.6400000795722L162.87708814814812,156.6400000795722L163.1368187654321,156.6400000795722L163.39899654320988,156.6400000795722L163.67155061728394,156.6400000795722L163.96936123456788,156.6400000795722L164.25517530864198,156.6400000795722L164.5057762962963,156.6400000795722L164.79759283950617,156.6400000795722L165.03496320987657,156.6400000795722L165.28200469135803,156.6400000795722L165.53921259259258,156.6400000795722L165.7926637037037,156.6400000795722L166.03032370370371,156.6400000795722L166.27944716049385,156.6400000795722L166.54295135802468,156.6400000795722L166.81184518518518,156.6400000795722L167.04893432098766,156.6400000795722L167.30012296296297,156.6400000795722L167.53710296296296,156.6400000795722L167.8023071604938,156.6400000795722L168.03938370370372,156.6400000795722L168.30372320987655,156.6400000795722L168.57574419753087,156.6400000795722L168.81319012345676,156.6400000795722L169.0650503703704,156.6400000795722L169.30987975308642,156.6400000795722L169.54931111111108,156.6400000795722L169.81221506172838,156.6400000795722L170.04958962962962,156.6400000795722L170.29611061728394,156.6400000795722L170.58147555555556,156.6400000795722L170.84429555555553,156.6400000795722L171.10586049382718,156.6400000795722L171.3821839506173,156.6400000795722L171.63133679012344,156.6400000795722L171.90765604938272,156.6400000795722L172.1702661728395,156.6400000795722L172.40807308641976,156.6400000795722L172.67525012345678,156.6400000795722L172.92505777777777,156.6400000795722L173.18677802469136,156.6400000795722L173.43595185185185,156.6400000795722L173.7090012345679,156.6400000795722L173.9718883950617,156.6400000795722L174.22743407407407,156.6400000795722L174.502372345679,156.6400000795722L174.7401834567901,156.6400000795722L174.97787283950615,156.6400000795722L175.26006024691358,156.6400000795722L175.51405703703702,156.6400000795722L175.75138123456793,156.6400000795722L175.98858790123458,156.6400000795722L176.22613037037038,156.6400000795722L176.48050913580246,156.6400000795722L176.77148617283953,156.6400000795722L177.0206138271605,156.6400000795722L177.25847950617282,156.6400000795722L177.49606814814814,156.6400000795722L177.74621580246912,156.6400000795722L177.9841738271605,156.6400000795722L178.22197654320988,156.6400000795722L178.50858814814814,156.6400000795722L178.7483259259259,156.6400000795722L179.00727160493827,156.6400000795722L179.25337703703704,156.6400000795722L179.50480074074076,156.6400000795722L179.75073407407407,156.6400000795722L179.9881925925926,156.6400000795722L180.2526748148148,156.6400000795722L180.5196839506173,156.6400000795722L180.77083061728396,156.6400000795722L181.0084402469136,156.6400000795722L181.27128543209878,156.6400000795722L181.56988938271604,156.6400000795722L181.83148370370373,156.6400000795722L182.08619827160493,156.6400000795722L182.33695456790124,156.6400000795722L182.59689086419755,156.6400000795722L182.85105975308642,156.6400000795722L183.12002913580244,156.6400000795722L183.35718962962966,156.6400000795722L183.6160135802469,156.6400000795722L183.95553086419756,156.6400000795722L184.22784567901235,156.6400000795722L184.4747150617284,156.6400000795722L184.7335474074074,156.6400000795722L184.9710898765432,156.6400000795722L185.20843506172838,156.6400000795722L185.47676641975306,156.6400000795722L185.7141745679012,156.6400000795722L185.95168345679014,156.6400000795722L186.20176395061728,156.6400000795722L186.43896222222222,156.6400000795722L186.7018535802469,156.6400000795722L186.9649002469136,156.6400000795722L187.2025602469136,156.6400000795722L187.44071135802469,156.6400000795722L187.69993827160494,156.6400000795722L187.95028740740742,156.6400000795722L188.19603185185184,156.6400000795722L188.43355333333332,156.6400000795722L188.686924691358,156.6400000795722L188.94937530864198,156.6400000795722L189.21834469135803,156.6400000795722L189.49141925925923,156.6400000795722L189.76969456790124,156.6400000795722L190.00789185185187,156.6400000795722L190.2458120987654,156.6400000795722L190.50772962962964,156.6400000795722L190.75346148148148,156.6400000795722L190.99168814814817,156.6400000795722L191.25241358024692,156.6400000795722L191.48964543209877,156.6400000795722L191.73666592592593,156.6400000795722L191.97415802469135,156.6400000795722L192.23011925925923,156.6400000795722L192.47535580246915,156.6400000795722L192.72643950617282,156.6400000795722L192.97212098765434,156.6400000795722L193.2574901234568,156.6400000795722L193.5951688888889,156.6400000795722L193.8410308641975,156.6400000795722L194.10498419753088,156.6400000795722L194.34970024691356,156.6400000795722L194.6044861728395,156.6400000795722L194.85051604938272,156.6400000795722L195.1103725925926,156.6400000795722L195.39120419753087,156.6400000795722L195.70910839506175,156.6400000795722L196.0222525925926,156.6400000795722L196.28154666666666,156.6400000795722L196.5187575308642,156.6400000795722L196.7742822222222,156.6400000795722L197.03406320987654,156.6400000795722L197.29743728395064,156.6400000795722L197.53467333333333,156.6400000795722L197.7848,156.6400000795722L198.06030074074073,156.6400000795722L198.30317407407406,156.6400000795722L198.57753728395065,156.6400000795722L198.83113950617283,156.6400000795722L199.08588345679013,156.6400000795722L199.35722864197533,156.6400000795722L199.59451925925924,156.6400000795722L199.8409898765432,156.6400000795722L200.10859925925928,156.6400000795722L200.35443185185184,156.6400000795722L200.6365814814815,156.6400000795722L200.91016814814813,156.6400000795722L201.18297827160492,156.6400000795722L201.42003802469137,156.6400000795722L201.6674279012346,156.6400000795722L201.91262246913578,156.6400000795722L202.19869679012345,156.6400000795722L202.43608395061727,156.6400000795722L202.67311432098765,156.6400000795722L202.90957802469137,156.6400000795722L203.146537037037,156.6400000795722L203.39585777777776,156.6400000795722L203.6467274074074,156.6400000795722L203.89269851851853,156.6400000795722L204.1295987654321,156.6400000795722L204.3895224691358,156.6400000795722L204.62647308641976,156.6400000795722L204.8786271604938,156.6400000795722L205.12472839506174,156.6400000795722L205.37545530864196,156.6400000795722L205.63382172839505,156.6400000795722L205.87062543209876,156.6400000795722L206.11688197530864,156.6400000795722L206.3617239506173,156.6400000795722L206.59849407407407,156.6400000795722L206.84282814814813,156.6400000795722L207.1052913580247,156.6400000795722L207.39421160493828,156.6400000795722L207.63118320987653,156.6400000795722L207.86993037037038,156.6400000795722L208.11751333333336,156.6400000795722L208.4188498765432,156.6400000795722L208.7170928395062,156.6400000795722L208.9618088888889,156.6400000795722L209.19838592592595,156.6400000795722L209.43539950617284,156.6400000795722L209.67993925925924,156.6400000795722L209.93781456790123,156.6400000795722L210.1752479012346,156.6400000795722L210.46373580246913,156.6400000795722L210.72834814814814,156.6400000795722L210.97850419753087,156.6400000795722L211.23197209876545,156.6400000795722L211.49813333333333,156.6400000795722L211.78864864197533,156.6400000795722L212.02574197530862,156.6400000795722L212.2732451851852,156.6400000795722L212.5104560493827,156.6400000795722L212.74747382716046,156.6400000795722L212.98446641975306,156.6400000795722L213.2215849382716,156.6400000795722L213.46776172839503,156.6400000795722L213.71408543209878,156.6400000795722L213.951212345679,156.6400000795722L214.20649777777777,156.6400000795722L214.46626617283948,156.6400000795722L214.7375777777778,156.6400000795722L215.01922370370372,156.6400000795722L215.31171185185184,156.6400000795722L215.55808592592595,156.6400000795722L215.8047748148148,156.6400000795722L216.05048567901233,156.6400000795722L216.28774691358026,156.6400000795722L216.5398002469136,156.6400000795722L216.79579925925927,156.6400000795722L217.03305209876544,156.6400000795722L217.28630172839505,156.6400000795722L217.54013481481482,156.6400000795722L217.8052760493827,156.6400000795722L218.0723439506173,156.6400000795722L218.33058444444447,156.6400000795722L218.57956938271604,156.6400000795722L218.8401227160494,156.6400000795722L219.0909461728395,156.6400000795722L219.33707679012346,156.6400000795722L219.5912624691358,156.6400000795722L219.8370572839506,156.6400000795722L220.09269950617283,156.6400000795722L220.33869580246915,156.6400000795722L220.5924533333333,156.6400000795722L220.83988098765434,156.6400000795722L221.1032760493827,156.6400000795722L221.38392296296297,156.6400000795722L221.62149901234565,156.6400000795722L221.86667259259258,156.6400000795722L222.12841802469134,156.6400000795722L222.3953222222222,156.6400000795722L222.65926296296297,156.6400000795722L222.91082098765432,156.6400000795722L223.19310074074073,156.6400000795722L223.47720641975306,156.6400000795722L223.75576716049383,156.6400000795722L223.9932886419753,156.6400000795722L224.24425901234565,156.6400000795722L224.4815664197531,156.6400000795722L224.72655950617286,156.6400000795722L224.97465456790124,156.6400000795722L225.2511291358025,156.6400000795722L225.4886086419753,156.6400000795722L225.72564320987652,156.6400000795722L225.9757866666667,156.6400000795722L226.23056,156.6400000795722L226.46854320987651,156.6400000795722L226.72962962962964,156.6400000795722L227.0233812345679,156.6400000795722L227.2679125925926,156.6400000795722L227.53052691358025,156.6400000795722L227.78859950617283,156.6400000795722L228.02563827160492,156.6400000795722L228.27500938271606,156.6400000795722L228.51169975308645,156.6400000795722L228.74837333333332,156.6400000795722L228.99410098765432,156.6400000795722L229.23113135802467,156.6400000795722L229.4981824691358,156.6400000795722L229.74461530864198,156.6400000795722L229.98196469135803,156.6400000795722L230.2373550617284,156.6400000795722L230.50000296296295,156.6400000795722L230.7509901234568,156.6400000795722L230.99725925925927,156.6400000795722L231.23445753086418,156.6400000795722L231.47151308641975,156.6400000795722L231.70878691358024,156.6400000795722L231.94624962962965,156.6400000795722L232.2247390123457,156.6400000795722L232.47544493827158,156.6400000795722L232.73596049382715,156.6400000795722L232.97313777777777,156.6400000795722L233.21007160493826,156.6400000795722L233.4683414814815,156.6400000795722L233.70579160493827,156.6400000795722L233.95619950617282,156.6400000795722L234.20750987654324,156.6400000795722L234.46024740740742,156.6400000795722L234.71561679012345,156.6400000795722L234.9622595061728,156.6400000795722L235.2100859259259,156.6400000795722L235.47963456790123,156.6400000795722L235.7218698765432,156.6400000795722L235.97297456790122,156.6400000795722L236.21046666666666,156.6400000795722L236.46548765432098,156.6400000795722L236.70889827160494,156.6400000795722L236.9602590123457,156.6400000795722" style="fill: none;" fill="none"></path></g></g></g></g></g></g><g transform="translate(58, 178)" clip-path="url(#clip_1)"><clipPath id="clip_1"><rect width="272" height="22"></rect></clipPath><g><g><line x1="0" y1="0" x2="0" y2="5" style="visibility: inherit;" fill="rgb(0, 0, 0)" stroke="rgb(204, 204, 204)" stroke-width="1px"></line><line x1="30.22222222222222" y1="0" x2="30.22222222222222" y2="5" style="visibility: inherit;" fill="rgb(0, 0, 0)" stroke="rgb(204, 204, 204)" stroke-width="1px"></line><line x1="60.44444444444444" y1="0" x2="60.44444444444444" y2="5" style="visibility: inherit;" fill="rgb(0, 0, 0)" stroke="rgb(204, 204, 204)" stroke-width="1px"></line><line x1="90.66666666666666" y1="0" x2="90.66666666666666" y2="5" style="visibility: inherit;" fill="rgb(0, 0, 0)" stroke="rgb(204, 204, 204)" stroke-width="1px"></line><line x1="120.88888888888889" y1="0" x2="120.88888888888889" y2="5" style="visibility: inherit;" fill="rgb(0, 0, 0)" stroke="rgb(204, 204, 204)" stroke-width="1px"></line><line x1="151.11111111111111" y1="0" x2="151.11111111111111" y2="5" style="visibility: inherit;" fill="rgb(0, 0, 0)" stroke="rgb(204, 204, 204)" stroke-width="1px"></line><line x1="181.33333333333331" y1="0" x2="181.33333333333331" y2="5" style="visibility: inherit;" fill="rgb(0, 0, 0)" stroke="rgb(204, 204, 204)" stroke-width="1px"></line><line x1="211.55555555555557" y1="0" x2="211.55555555555557" y2="5" style="visibility: inherit;" fill="rgb(0, 0, 0)" stroke="rgb(204, 204, 204)" stroke-width="1px"></line><line x1="241.77777777777777" y1="0" x2="241.77777777777777" y2="5" style="visibility: inherit;" fill="rgb(0, 0, 0)" stroke="rgb(204, 204, 204)" stroke-width="1px"></line><line x1="272" y1="0" x2="272" y2="5" style="visibility: inherit;" fill="rgb(0, 0, 0)" stroke="rgb(204, 204, 204)" stroke-width="1px"></line></g><g transform="translate(0, 8)"><text x="0" y="0" dx="0em" dy="0.95em" style="text-anchor: middle; visibility: hidden; font-family: &quot;Helvetica Neue&quot;, sans-serif; font-size: 12px; font-weight: 200;" fill="rgb(50, 49, 63)" stroke="none" stroke-width="1px">-2</text><text x="30.22222222222222" y="0" dx="0em" dy="0.95em" style="text-anchor: middle; visibility: inherit; font-family: &quot;Helvetica Neue&quot;, sans-serif; font-size: 12px; font-weight: 200;" fill="rgb(50, 49, 63)" stroke="none" stroke-width="1px">0</text><text x="60.44444444444444" y="0" dx="0em" dy="0.95em" style="text-anchor: middle; visibility: inherit; font-family: &quot;Helvetica Neue&quot;, sans-serif; font-size: 12px; font-weight: 200;" fill="rgb(50, 49, 63)" stroke="none" stroke-width="1px">2</text><text x="90.66666666666666" y="0" dx="0em" dy="0.95em" style="text-anchor: middle; visibility: inherit; font-family: &quot;Helvetica Neue&quot;, sans-serif; font-size: 12px; font-weight: 200;" fill="rgb(50, 49, 63)" stroke="none" stroke-width="1px">4</text><text x="120.88888888888889" y="0" dx="0em" dy="0.95em" style="text-anchor: middle; visibility: inherit; font-family: &quot;Helvetica Neue&quot;, sans-serif; font-size: 12px; font-weight: 200;" fill="rgb(50, 49, 63)" stroke="none" stroke-width="1px">6</text><text x="151.11111111111111" y="0" dx="0em" dy="0.95em" style="text-anchor: middle; visibility: inherit; font-family: &quot;Helvetica Neue&quot;, sans-serif; font-size: 12px; font-weight: 200;" fill="rgb(50, 49, 63)" stroke="none" stroke-width="1px">8</text><text x="181.33333333333331" y="0" dx="0em" dy="0.95em" style="text-anchor: middle; visibility: inherit; font-family: &quot;Helvetica Neue&quot;, sans-serif; font-size: 12px; font-weight: 200;" fill="rgb(50, 49, 63)" stroke="none" stroke-width="1px">10</text><text x="211.55555555555557" y="0" dx="0em" dy="0.95em" style="text-anchor: middle; visibility: inherit; font-family: &quot;Helvetica Neue&quot;, sans-serif; font-size: 12px; font-weight: 200;" fill="rgb(50, 49, 63)" stroke="none" stroke-width="1px">12</text><text x="241.77777777777777" y="0" dx="0em" dy="0.95em" style="text-anchor: middle; visibility: inherit; font-family: &quot;Helvetica Neue&quot;, sans-serif; font-size: 12px; font-weight: 200;" fill="rgb(50, 49, 63)" stroke="none" stroke-width="1px">14</text><text x="272" y="0" dx="0em" dy="0.95em" style="text-anchor: middle; visibility: hidden; font-family: &quot;Helvetica Neue&quot;, sans-serif; font-size: 12px; font-weight: 200;" fill="rgb(50, 49, 63)" stroke="none" stroke-width="1px">16</text></g><line x1="0" y1="0" x2="272" y2="0" fill="rgb(0, 0, 0)" stroke="rgb(204, 204, 204)" stroke-width="1px"></line></g></g></g></g></svg>