<svg viewBox="0 0 330 200" xmlns="http://www.w3.org/2000/svg"><g><g><g><g><g><line x1="46" y1="178" x2="41" y2="178" style="visibility: inherit;" fill="rgb(0, 0, 0)" stroke="rgb(204, 204, 204)" stroke-width="1px"></line><line x1="46" y1="163.16666666666666" x2="41" y2="163.16666666666666" style="visibility: inherit;" fill="rgb(0, 0, 0)" stroke="rgb(204, 204, 204)" stroke-width="1px"></line><line x1="46" y1="148.33333333333334" x2="41" y2="148.33333333333334" style="visibility: inherit;" fill="rgb(0, 0, 0)" stroke="rgb(204, 204, 204)" stroke-width="1px"></line><line x1="46" y1="133.5" x2="41" y2="133.5" style="visibility: inherit;" fill="rgb(0, 0, 0)" stroke="rgb(204, 204, 204)" stroke-width="1px"></line><line x1="46" y1="118.66666666666667" x2="41" y2="118.66666666666667" style="visibility: inherit;" fill="rgb(0, 0, 0)" stroke="rgb(204, 204, 204)" stroke-width="1px"></line><line x1="46" y1="103.83333333333333" x2="41" y2="103.83333333333333" style="visibility: inherit;" fill="rgb(0, 0, 0)" stroke="rgb(204, 204, 204)" stroke-width="1px"></line><line x1="46" y1="89" x2="41" y2="89" style="visibility: inherit;" fill="rgb(0, 0, 0)" stroke="rgb(204, 204, 204)" stroke-width="1px"></line><line x1="46" y1="74.16666666666666" x2="41" y2="74.16666666666666" style="visibility: inherit;" fill="rgb(0, 0, 0)" stroke="rgb(204, 204, 204)" stroke-width="1px"></line><line x1="46" y1="59.33333333333334" x2="41" y2="59.33333333333334" style="visibility: inherit;" fill="rgb(0, 0, 0)" stroke="rgb(204, 204, 204)" stroke-width="1px"></line><line x1="46" y1="44.5" x2="41" y2="44.5" style="visibility: inherit;" fill="rgb(0, 0, 0)" stroke="rgb(204, 204, 204)" stroke-width="1px"></line><line x1="46" y1="29.666666666666657" x2="41" y2="29.666666666666657" style="visibility: inherit;" fill="rgb(0, 0, 0)" stroke="rgb(204, 204, 204)" stroke-width="1px"></line><line x1="46" y1="14.833333333333343" x2="41" y2="14.833333333333343" style="visibility: inherit;" fill="rgb(0, 0, 0)" stroke="rgb(204, 204, 204)" stroke-width="1px"></line><line x1="46" y1="0" x2="41" y2="0" style="visibility: inherit;" fill="rgb(0, 0, 0)" stroke="rgb(204, 204, 204)" stroke-width="1px"></line></g><g transform="translate(36, 0)"><text x="0" y="178" dx="0em" dy="0.3em" style="text-anchor: end; visibility: hidden; font-family: &quot;Helvetica Neue&quot;, sans-serif; font-size: 12px; font-weight: 200;" fill="rgb(50, 49, 63)" stroke="none" stroke-width="1px">-30</text><text x="0" y="163.16666666666666" dx="0em" dy="0.3em" style="text-anchor: end; visibility: inherit; font-family: &quot;Helvetica Neue&quot;, sans-serif; font-size: 12px; font-weight: 200;" fill="rgb(50, 49, 63)" stroke="none" stroke-width="1px">-25</text><text x="0" y="148.33333333333334" dx="0em" dy="0.3em" style="text-anchor: end; visibility: hidden; font-family: &quot;Helvetica Neue&quot;, sans-serif; font-size: 12px; font-weight: 200;" fill="rgb(50, 49, 63)" stroke="none" stroke-width="1px">-20</text><text x="0" y="133.5" dx="0em" dy="0.3em" style="text-anchor: end; visibility: inherit; font-family: &quot;Helvetica Neue&quot;, sans-serif; font-size: 12px; font-weight: 200;" fill="rgb(50, 49, 63)" stroke="none" stroke-width="1px">-15</text><text x="0" y="118.66666666666667" dx="0em" dy="0.3em" style="text-anchor: end; visibility: hidden; font-family: &quot;Helvetica Neue&quot;, sans-serif; font-size: 12px; font-weight: 200;" fill="rgb(50, 49, 63)" stroke="none" stroke-width="1px">-10</text><text x="0" y="103.83333333333333" dx="0em" dy="0.3em" style="text-anchor: end; visibility: inherit; font-family: &quot;Helvetica Neue&quot;, sans-serif; font-size: 12px; font-weight: 200;" fill="rgb(50, 49, 63)" stroke="none" stroke-width="1px">-5</text><text x="0" y="89" dx="0em" dy="0.3em" style="text-anchor: end; visibility: hidden; font-family: &quot;Helvetica Neue&quot;, sans-serif; font-size: 12px; font-weight: 200;" fill="rgb(50, 49, 63)" stroke="none" stroke-width="1px">0</text><text x="0" y="74.16666666666666" dx="0em" dy="0.3em" style="text-anchor: end; visibility: inherit; font-family: &quot;Helvetica Neue&quot;, sans-serif; font-size: 12px; font-weight: 200;" fill="rgb(50, 49, 63)" stroke="none" stroke-width="1px">5</text><text x="0" y="59.33333333333334" dx="0em" dy="0.3em" style="text-anchor: end; visibility: hidden; font-family: &quot;Helvetica Neue&quot;, sans-serif; font-size: 12px; font-weight: 200;" fill="rgb(50, 49, 63)" stroke="none" stroke-width="1px">10</text><text x="0" y="44.5" dx="0em" dy="0.3em" style="text-anchor: end; visibility: inherit; font-family: &quot;Helvetica Neue&quot;, sans-serif; font-size: 12px; font-weight: 200;" fill="rgb(50, 49, 63)" stroke="none" stroke-width="1px">15</text><text x="0" y="29.666666666666657" dx="0em" dy="0.3em" style="text-anchor: end; visibility: hidden; font-family: &quot;Helvetica Neue&quot;, sans-serif; font-size: 12px; font-weight: 200;" fill="rgb(50, 49, 63)" stroke="none" stroke-width="1px">20</text><text x="0" y="14.833333333333343" dx="0em" dy="0.3em" style="text-anchor: end; visibility: inherit; font-family: &quot;Helvetica Neue&quot;, sans-serif; font-size: 12px; font-weight: 200;" fill="rgb(50, 49, 63)" stroke="none" stroke-width="1px">25</text><text x="0" y="0" dx="0em" dy="0.3em" style="text-anchor: end; visibility: hidden; font-family: &quot;Helvetica Neue&quot;, sans-serif; font-size: 12px; font-weight: 200;" fill="rgb(50, 49, 63)" stroke="none" stroke-width="1px">30</text></g><line x1="46" y1="0" x2="46" y2="178" fill="rgb(0, 0, 0)" stroke="rgb(204, 204, 204)" stroke-width="1px"></line></g></g><g transform="translate(46, 0)" clip-path="url(#clip_0)"><clipPath id="clip_0"><rect width="284" height="178"></rect></clipPath><g><g><g><line x1="0" y1="0" x2="0" y2="178" fill="rgb(0, 0, 0)" stroke="rgb(60, 60, 60)" stroke-width="1px" opacity="0.25"></line><line x1="31.555555555555554" y1="0" x2="31.555555555555554" y2="178" fill="rgb(0, 0, 0)" stroke="rgb(60, 60, 60)" stroke-width="1px" opacity="0.25"></line><line x1="63.11111111111111" y1="0" x2="63.11111111111111" y2="178" fill="rgb(0, 0, 0)" stroke="rgb(60, 60, 60)" stroke-width="1px" opacity="0.25"></line><line x1="94.66666666666666" y1="0" x2="94.66666666666666" y2="178" fill="rgb(0, 0, 0)" stroke="rgb(60, 60, 60)" stroke-width="1px" opacity="0.25"></line><line x1="126.22222222222221" y1="0" x2="126.22222222222221" y2="178" fill="rgb(0, 0, 0)" stroke="rgb(60, 60, 60)" stroke-width="1px" opacity="0.25"></line><line x1="157.77777777777777" y1="0" x2="157.77777777777777" y2="178" fill="rgb(0, 0, 0)" stroke="rgb(60, 60, 60)" stroke-width="1px" opacity="0.25"></line><line x1="189.33333333333331" y1="0" x2="189.33333333333331" y2="178" fill="rgb(0, 0, 0)" stroke="rgb(60, 60, 60)" stroke-width="1px" opacity="0.25"></line><line x1="220.88888888888889" y1="0" x2="220.88888888888889" y2="178" fill="rgb(0, 0, 0)" stroke="rgb(60, 60, 60)" stroke-width="1px" opacity="0.25"></line><line x1="252.44444444444443" y1="0" x2="252.44444444444443" y2="178" fill="rgb(0, 0, 0)" stroke="rgb(60, 60, 60)" stroke-width="1px" opacity="0.25"></line><line x1="284" y1="0" x2="284" y2="178" fill="rgb(0, 0, 0)" stroke="rgb(60, 60, 60)" stroke-width="1px" opacity="0.25"></line></g><g><line x1="0" y1="178" x2="284" y2="178" fill="rgb(0, 0, 0)" stroke="rgb(60, 60, 60)" stroke-width="1px" opacity="0.25"></line><line x1="0" y1="163.16666666666666" x2="284" y2="163.16666666666666" fill="rgb(0, 0, 0)" stroke="rgb(60, 60, 60)" stroke-width="1px" opacity="0.25"></line><line x1="0" y1="148.33333333333334" x2="284" y2="148.33333333333334" fill="rgb(0, 0, 0)" stroke="rgb(60, 60, 60)" stroke-width="1px" opacity="0.25"></line><line x1="0" y1="133.5" x2="284" y2="133.5" fill="rgb(0, 0, 0)" stroke="rgb(60, 60, 60)" stroke-width="1px" opacity="0.25"></line><line x1="0" y1="118.66666666666667" x2="284" y2="118.66666666666667" fill="rgb(0, 0, 0)" stroke="rgb(60, 60, 60)" stroke-width="1px" opacity="0.25"></line><line x1="0" y1="103.83333333333333" x2="284" y2="103.83333333333333" fill="rgb(0, 0, 0)" stroke="rgb(60, 60, 60)" stroke-width="1px" opacity="0.25"></line><line x1="0" y1="89" x2="284" y2="89" fill="rgb(0, 0, 0)" stroke="rgb(60, 60, 60)" stroke-width="1px" opacity="0.25"></line><line x1="0" y1="74.16666666666666" x2="284" y2="74.16666666666666" fill="rgb(0, 0, 0)" stroke="rgb(60, 60, 60)" stroke-width="1px" opacity="0.25"></line><line x1="0" y1="59.33333333333334" x2="284" y2="59.33333333333334" fill="rgb(0, 0, 0)" stroke="rgb(60, 60, 60)" stroke-width="1px" opacity="0.25"></line><line x1="0" y1="44.5" x2="284" y2="44.5" fill="rgb(0, 0, 0)" stroke="rgb(60, 60, 60)" stroke-width="1px" opacity="0.25"></line><line x1="0" y1="29.666666666666657" x2="284" y2="29.666666666666657" fill="rgb(0, 0, 0)" stroke="rgb(60, 60, 60)" stroke-width="1px" opacity="0.25"></line><line x1="0" y1="14.833333333333343" x2="284" y2="14.833333333333343" fill="rgb(0, 0, 0)" stroke="rgb(60, 60, 60)" stroke-width="1px" opacity="0.25"></line><line x1="0" y1="0" x2="284" y2="0" fill="rgb(0, 0, 0)" stroke="rgb(60, 60, 60)" stroke-width="1px" opacity="0.25"></line></g></g></g><g><g><line x1="0" y1="89" x2="284" y2="89" fill="rgb(0, 0, 0)" stroke="rgb(153, 153, 153)" stroke-width="1.5px"></line></g></g><g><g><line x1="31.555555555555554" y1="0" x2="31.555555555555554" y2="178" fill="rgb(0, 0, 0)" stroke="rgb(153, 153, 153)" stroke-width="1.5px"></line></g></g><g><g><g><g><g><path stroke="rgb(0, 119, 187)" stroke-width="2px" d="M31.555555555555554,151.3L31.56720481481482,149.44583333333333L31.58005055555555,148.878231292517L31.591542037037033,149.99117647058821L31.602893271604938,149.27212583853805L31.616839074074072,148.878231292517L31.627028888888887,149.87483736732597L31.63823549382716,150.45464089318446L31.65137049382716,149.59747965890193L31.668024814814814,146.70097373162278L31.713337716049384,147.3562950587893L31.85209450617284,147.74796294434177L31.980635185185186,147.98241731361617L32.103526543209874,148.12289380473106L32.22122438271605,149.3943340949719L32.38093932098765,147.78281249569483L32.50343185185185,149.1899256746727L32.631950617283955,148.84725393641006L32.776032407407406,148.641673167915L32.89447969135802,148.5183327245603L33.02699549382716,149.63102404379072L33.14537265432099,149.11194092734735L33.26981111111111,149.9871714683685L33.42099290123457,146.95228850058828L33.5741162345679,146.3180379638271L33.69899296296296,148.31082617762883L33.80655358024691,149.5064969303348L33.933981049382716,150.2238985987531L34.05827487654321,150.65433931785057L34.18465049382716,150.91260364780584L34.32690030864198,149.88089538516655L34.50607012345679,145.70187023183883L34.65092765432099,147.941122246032L34.76461530864198,149.28467338611352L34.89213481481481,148.90413735845976L35.00598024691358,149.86248242496063L35.13663777777778,150.4374894585349L35.28072395061728,150.782493676402L35.39283820987654,150.9894962063024L35.54281037037037,148.74036438744156L35.69384314814815,147.39088529804926L35.822813333333336,148.95453117958203L35.95855481481482,148.70605204101082L36.086902654320994,149.74363122478624L36.21946666666667,147.99284540135642L36.331940308641975,149.31570724089636L36.47995339506173,148.92275767785645L36.65926345679012,147.5003212733486L36.85905395061729,144.27352609729903L36.99729796296296,147.08411565840214L37.12129376543209,148.77046939504945L37.29001080246914,146.22228163702226L37.45365265432098,145.8800356488794L37.65145339506173,143.3013547226583L37.80455919753086,146.50081283359697L37.96269635802469,144.8604877001576L38.136716481481486,145.06295928676127L38.28813055555555,146.37110890539026L38.46496438271605,145.9693320099008L38.602919135802466,146.91493253927385L38.76729290123457,147.48229285689766L38.908749444444446,149.00937571413863L39.04943462962963,149.9256254284832L39.191750185185185,150.47537525708992L39.366589876543216,149.61855848758728L39.526949074074075,149.1044684258857L39.7042737654321,148.79601438886476L39.87913975308642,147.4242752999855L40.026250000000005,147.78789851332462L40.22063660493827,146.81940577466145L40.41806481481481,145.05164346479688L40.61481808641975,145.1776527455448L40.823680802469134,144.06659164732687L41.04072166666666,142.21328832172946L41.264270864197535,142.28797299303767L41.45511185185185,144.70611712915593L41.65939901234568,141.41033694416024L41.86582055555556,142.9928688331628L42.12145561728395,141.56905463323102L42.371524629629626,139.52809944660527L42.63117425925927,135.9301930012965L42.881966419753084,136.14478246744457L43.12801648148148,136.27353614713343L43.389704074074075,135.16412168828003L43.64485265432099,140.43180634630136L43.90937148148148,137.6590838077808L44.12918222222222,139.5554502846685L44.44641635802469,131.19993683746776L44.74839864197531,126.18662876914732L44.99454074074074,127.92531059482172L45.251705370370374,131.3418530235597L45.4818987654321,133.3917784808025L45.76061320987654,134.62173375514817L45.97412598765431,138.91970691975558L46.235559382716055,136.75182415185333L46.583599629629624,130.70442782444533L46.88177771604938,128.2626566946672L47.21641561728395,124.424260683467L47.48693876543209,130.42788974341354L47.72582308641976,134.03006717938146L47.99444851851852,133.81804030762888L48.33082635802469,130.1308241845773L48.605666481481485,129.10516117741307L48.913333148148155,127.30309670644783L49.20063333333333,125.03519135720204L49.6272512962963,120.11444814765454L50.04222876543209,112.41533555525939L50.3276662962963,122.0358679998223L50.65744814814815,120.68818746656007L51.04068598765433,116.3195791466027L51.36732981481481,117.2584141546283L51.733545185185186,116.63504849277697L52.08000327160494,115.0743624289995L52.45966481481481,118.88461745739971L52.81500228395062,116.42410380777316L53.26479166666667,109.01446228466389L53.66196654320987,109.31534403746501L54.03053543209877,111.86920642247901L54.45785901234568,94.41485718682074L54.86943987654321,83.94224764542577L55.304065061728394,83.59201525392214L55.739820987654326,78.6352091523533L56.13386222222223,74.4744588247453L56.5344862962963,74.35134196151382L56.96761259259259,79.02413851024164L57.37462228395062,74.70781643947832L57.67523716049383,62.624689863686996L58.018246049382725,58.9348139182122L58.37583623456789,59.09422168426066L58.78561141975308,65.12319967722304L59.079722345679016,58.0605864730005L59.37852716049383,51.44968521713365L59.63728709876543,43.92314446361351L59.90706956790123,40.593886678168104L60.205589506172835,43.342998673567536L60.49354271604938,42.61913253747383L60.82908783950617,69.47814618915099L61.1072237654321,54.74022104682392L61.398152839506174,48.27079929476102L61.75397679012345,55.06914624352328L62.05126956790123,49.65482107944729L62.40594962962963,53.526225981001716L62.78022481481482,54.66240225526768L63.10321345679012,50.59744135316063L63.413698209876536,46.97179814522971L63.7004812345679,44.796412220471154L64.04470851851852,48.23784733228268L64.36662777777778,50.30270839936961L64.6539586419753,45.60829170628841L65.04339802469136,52.28497502377306L65.31416660493828,43.2376516809305L65.64418950617284,46.11592434189163L65.93866419753085,43.09622127180165L66.20970888888888,38.91106609641432L66.54061271604938,44.7066396578486L66.79384604938272,37.50398379470917L67.0491962345679,34.369056943492154L67.34195290123456,34.86143416609531L67.66732135802468,39.90352716632384L67.98043574074073,44.11544963312767L68.22769543209877,37.14926977987659L68.53967469135803,40.089561867925966L68.8632900617284,44.227070454088874L69.12870734567902,40.77624227245332L69.40318808641976,37.51907869680534L69.71264728395062,40.3114472180832L69.98238154320988,37.240201664183246L70.2850650617284,37.77078766517661L70.583585,38.089139265772644L70.87968567901234,40.65348355946358L71.1696637037037,39.81875680234481L71.45571919753085,39.31792074807353L71.70333388888889,35.45741911551079L72.05260567901236,40.26111813597316L72.33140339506171,39.58333754825057L72.61461450617284,39.176669195616995L72.90896648148149,38.93266818403686L73.1736562345679,37.59960091042211L73.4495613580247,36.79976054625328L73.70957475308643,33.946522994418615L73.96032308641975,32.234580463317855L74.21978864197531,32.394081611324026L74.49506265432098,34.86311563346109L74.75898543209877,33.97120271341001L75.00989592592593,32.24938829471267L75.30769271604939,35.96296631016094L75.59113172839506,37.00444645276323L75.90706858024691,40.002667871657934L76.17734191358025,39.428267389661414L76.43241598765432,35.52362710046353L76.73467438271605,43.86084292694477L77.15252253086419,58.35650575616688L77.41767685185185,49.25390345370013L77.66833314814815,41.41900873888673L77.95639154320988,42.65140524333205L78.28546339506174,46.950843145999215L78.57974524691359,44.78383922093286L78.87329518518519,43.48363686589303L79.12418814814815,37.9568487862025L79.41186524691359,37.01410927172148L79.68190191358025,35.26179889636623L79.97495222222221,35.39707933781975L80.28289061728395,37.85158093602516L80.59344549382715,42.88428189494843L80.8686187037037,41.1572358036357L81.16372450617285,40.12100814884812L81.47829833333333,44.24593822264217L81.77746253086418,41.97422960025199L82.04557956790121,38.23787109348453L82.30030302469136,34.8093893227574L82.6571437654321,41.05896692698778L82.9965938888889,44.80871348952601L83.28391598765431,42.311894760382245L83.57460839506173,40.81380352289602L83.87462283950617,39.91494878040427L84.130827654321,37.002302601575906L84.38726037037038,34.068048227612195L84.6758972839506,35.86749560323398L84.93513055555555,33.38716402860706L85.21312185185185,33.08563175049758L85.47977944444445,34.09137905029854L85.72853364197532,32.32149409684581L86.06818975308643,41.93956312477414L86.39380802469135,46.52373787486448L86.72195950617284,48.08757605825204L87.05235055555556,46.652545634951196L87.31667216049384,41.044860714304065L87.61629216049384,44.80024976191578L88.00340870370371,51.80014985714948L88.30457141975309,50.06675658095635L88.58320697530864,43.09338728190713L88.83528327160494,37.72269903581093L89.11170993827162,38.06028608815325L89.41720277777779,43.00950498622527L89.7847987037037,48.35236965840184L90.03348716049382,39.691421795041094L90.29738802469136,36.86818641035799L90.66783709876543,43.48091184621481L90.9395961728395,41.515213774395534L91.19964024691359,37.96246159797067L91.45427166666666,33.457476958782394L91.75237962962964,36.687819508602786L92.0560974691358,39.81269170516168L92.3322787037037,39.314281689763675L92.65502191358024,43.76190234719155L92.90968839506172,36.937141408314915L93.17703845679011,35.2156181783223L93.49341796296297,41.302704240326705L93.74864543209877,35.46162254419602L94.08680703703703,45.01030685985094L94.34914765432099,38.872850782577245L94.6259074074074,38.75037713621299L94.93459524691357,43.42355961506112L95.26066055555556,45.04080243570334L95.5670562345679,46.01114812808868L95.83544061728394,40.660022210186526L96.0942662962963,36.2626799927786L96.38910913580247,39.557607995667155L96.65991277777778,36.78789813073362L96.90813228395062,32.75273887844017L97.20189697530863,36.26497666039742L97.47766185185186,35.998985996238474L97.76172320987655,35.83939159774309L98.01084555555555,32.183634958645854L98.31123691358023,39.48351430852085L98.60455456790123,39.11677525177916L98.95421641975308,54.323398484400855L99.24227481481482,48.020705757307155L99.61455586419753,59.665756787717655L99.86025969135802,46.4794540726306L100.12811814814815,40.94100577691168L100.46994808641976,47.11127013281367L100.7746651851852,43.69342874635487L101.02226672839507,38.0827239144796L101.33386030864197,39.46296768202109L101.59386055555557,35.54444727587932L101.8689110493827,37.940001698860925L102.22100092592594,47.684001019316554L102.53962438271606,52.34373394492329L102.79008783950616,43.27290703362064L103.05446203703704,39.017077553505715L103.31670185185186,36.46357986543674L103.57419080246912,33.74481458592871L103.88017888888888,39.233555418223915L104.18158265432098,40.15346658426765L104.4314851234568,34.772079950560624L104.70505864197531,35.10324797033638L104.98450061728396,36.48861544886847L105.2354286419753,33.75983593598775L105.58129944444445,45.17590156159267L105.8643790740741,42.532207603622254L106.13946024691359,39.75932456217336L106.39903537037037,34.535594737304024L106.64753537037038,31.4013568423824L106.92861209876543,31.894147438762786L107.2451712962963,36.93648846325766L107.51640444444445,35.215226411287944L107.8083064814815,35.369135846772764L108.06863104938272,33.08814817473032L108.34543024691358,34.09288890483819L108.65673018518518,40.62906667623625L108.94534518518519,38.61744000574174L109.22441024691358,38.59713067011171L109.47324333333333,33.83827840206706L109.76655660493827,36.91630037457358L110.08997475308642,43.509780224744134L110.4073885802469,45.09253480151315L110.6954951851852,43.66885421424121L110.95072703703703,36.881312528544754L111.23577012345679,37.55545418379353L111.49448185185184,34.39993917694278L111.77301660493828,36.06663017283233L112.04595024691358,37.066644770366054L112.3606774691358,40.03998686221962L112.6635713580247,43.01065878399845L112.92841450617283,38.85972860373241L113.23304833333333,39.929170495572805L113.57947574074073,50.064168964010335L113.83831895061729,41.905168045072855L114.09215709876543,35.8231008270437L114.36365759259259,35.73386049622624L114.65798765432099,38.05364963106908L114.91882500000001,35.88552311197478L115.16740388888888,33.39798053385155L115.4463024074074,33.092121653644256L115.70149919753086,30.53527299218655L115.97796530864197,32.56116379531193L116.28586425925926,36.15003161052047L116.60899314814814,39.490018966312306L116.93873993827162,45.05401137978737L117.21017469135802,40.08574016120579L117.49187814814815,39.478110763390134L117.78741783950616,40.30019979136742L118.06749092592592,38.42011987482047L118.36531401234568,40.85207192489227L118.63791456790123,37.5645764882687L118.94834672839507,39.152079226294546L119.21262012345679,35.357914202443396L119.4873112345679,34.26808185479936L119.74710987654322,33.614182446212965L120.0108485802469,32.03517613439445L120.26071160493828,31.087772347303343L120.51938827160494,30.519330075048657L120.78678216049383,31.36493137836254L121.18499135802467,53.232292160350866L121.46139172839504,44.99270862954384L121.74398925925925,42.42229184439296L122.10569919753087,51.56004177330246L122.36289450617284,42.80269173064815L122.62496777777777,38.7349483717222L122.89164290123456,33.92096902303331L123.1700549382716,34.59258141381997L123.44502216049382,34.995548848292L123.76456598765432,41.17066264230854L124.03620672839506,37.755730918718456L124.30377154320986,36.89343855123107L124.55189024691357,32.816063130738655L124.82466172839506,33.929637878443174L125.11760246913579,36.971116060399225L125.39213580246913,36.42266963623953L125.65223246913581,33.720268448410394L125.93087240740742,34.47216106904625L126.26152203703704,42.04329664142776L126.55057969135802,40.65264465152333L126.84880598765432,42.19158679091399L127.1241939506173,40.74161874121506L127.41896666666665,37.498304578062374L127.66764197530863,33.17898274683742L127.9730559259259,40.0807229814358L128.22138061728396,34.72843378886148L128.47801493827163,32.70372693998354L128.74066672839507,32.675569497323465L129.00158296296297,32.6586750317274L129.25748537037038,31.46187168570313L129.5259135802469,33.11712301142188L129.80358932098764,35.29694047351981L130.05126975308644,31.858164284111893L130.30693987654323,30.981565237133793L130.57666537037036,31.642272475613595L130.8243107407407,29.665363485368175L131.10808283950618,34.41255142455424L131.35571067901236,31.327530854732544L131.62978820987655,33.03651851283951L131.87725388888887,30.501911107703705L132.14362660493828,32.54114666462223L132.39116679012344,30.204687998773323L132.6531787037037,29.989479465930685L132.9361575308642,32.233687679558415L133.18358376543208,30.02021260773506L133.43103629629627,28.692127564641027L133.70742790123458,33.828609872117966L133.95471827160495,30.977165923270775L134.20260907407405,29.266299553962483L134.46453771604936,30.61311306571082L134.7209660493827,30.234534506093155L135.02866339506176,35.9407207036559L135.3074172839506,35.80443242219354L135.63226858024692,44.029326119982784L135.94785481481483,45.40426233865634L136.1943037037037,37.92255740319382L136.4842335185185,40.55353444191627L136.75671574074073,37.38545399848309L137.02231709876543,35.48460573242318L137.28493382716047,34.34409677278725L137.55284049382715,33.659791397005705L137.8194411111111,33.249208171536736L138.0746685802469,31.81619156958871L138.3395336419753,32.14304827508656L138.6139924691358,32.339162298385276L138.88802179012345,32.45683071236451L139.20732018518515,36.087431760752025L139.45250246913577,32.3324590564512L139.6997577777778,30.079475433870755L139.97930055555557,29.9143519269891L140.27531358024692,32.188611156193474L140.55893666666665,33.553166693716065L140.80652506172842,30.81190001622963L141.11367895061727,33.91380667640445L141.44016499999998,44.081617339176006L141.69479203703705,39.50230373683894L141.98019450617284,40.31471557543668L142.26491765432098,39.615496011928684L142.50990271604937,34.449297607157206L142.76400820987655,32.536245230960986L143.0089362962963,30.201747138576593L143.2542062345679,28.801048283145974L143.53711493827163,32.70729563655425L143.81997104938273,36.23771071526588L144.08068567901236,34.795959762492856L144.34715043209877,36.30424252416236L144.6009666666667,32.462545514497435L144.87621438271606,33.717527308698465L145.1662888271605,38.03051638521907L145.41433302469136,33.49830983113145L145.66895129629629,31.965652565345522L145.932422654321,33.41939153920734L146.21255709876542,35.47830159019105L146.49057469135803,37.90031428744797L146.76384141975308,36.98018857246879L147.03450043209875,36.42811314348128L147.3639097530864,46.77686788608875L147.61199339506175,38.746120731653264L147.86000691358024,33.92767243899195L148.1098699382716,32.22327013006185L148.45355814814815,44.25396207803712L148.7120375925926,39.6057105801556L148.96019574074074,34.44342634809334L149.2533775308642,38.46605580885603L149.50264888888887,33.7596334853136L149.76551104938272,33.30911342452151L150.04055716049385,34.22546805471288L150.30544851851852,32.40194749949438L150.55337438271607,30.121168499696637L150.81629790123455,31.12603443315129L151.12041456790124,34.102287326557445L151.45988660493828,39.44803906260114L151.71624919753089,35.535490104227364L151.99423611111112,36.7479607292031L152.26892722222223,37.475443104188514L152.56080296296295,39.09859919584645L152.8481338271605,37.69915951750784L153.1352587037037,36.85949571050469L153.41143555555556,35.169030759636144L153.71707302469136,38.90141845578171L153.97395277777778,35.2075177401357L154.29734024691356,41.29784397741477L154.57644913580248,40.20537305311552L154.8338548148148,35.98989049853597L155.08167111111112,32.273934299121606L155.3822202469136,35.977693912806274L155.67641444444442,37.013283014350435L155.95309092592592,36.44796980861028L156.22453444444446,34.9221152184995L156.47203080246913,31.633269131099695L156.72018895061728,29.659961478659824L156.9856588271605,29.66264355386255L157.27103061728394,32.03758613231756L157.5185401234568,29.902551679390513L157.78337012345676,30.994864340967638L158.1010951234568,39.95691860458061L158.37788117283952,38.21415116274835L158.65888339506174,38.35515736431569L158.9238974691358,36.06642775192273L159.17186716049383,32.31985665115366L159.45847049382718,38.37858065735887L159.70613339506173,33.7071483944153L159.95383574074074,30.904289036649203L160.20145043209874,29.222573421989523L160.44894679012347,28.213544053193715L160.69662283950618,27.60812643191622L160.94403592592593,27.244875859149744L161.20036345679014,28.213592182156503L161.4898988271605,31.168155309293923L161.75168283950617,30.567559852243022L162.0353190740741,36.14053591134581L162.297300308642,34.73765488014084L162.56609228395064,33.895926261417856L162.81371574074075,31.017555756850697L163.07594679012345,30.47720012077707L163.33332617283952,30.152986739132928L163.60760530864198,32.33179204347974L163.90467895061727,36.012408559421175L164.15258290123458,32.28744513565272L164.41108864197528,32.42580041472496L164.659032037037,30.135480248834995L164.91548666666665,29.94795481596765L165.1635352469136,28.648772889580613L165.4118424074074,27.86926373374837L165.67700111111114,29.774891573582323L165.9962600617284,36.85160161081606L166.27757783950616,36.35096096648962L166.52538975308642,32.4905765798938L166.80118092592593,33.734345947936276L167.04936098765435,30.920607568761767L167.3189287037037,31.60569787459039L167.57651845679013,32.016752058087576L167.84037549382714,33.45005123485254L168.10317191358024,33.123364074244876L168.42261055555554,38.86068511121357L168.68227333333334,36.36974440006148L168.9379478395062,33.688513306703555L169.3187401234568,54.62644131735547L169.56702537037037,43.4558647904133L169.81490302469138,36.75351887424799L170.062842037037,32.73211132454878L170.3340313580247,32.692600128062594L170.60777580246912,35.042226743504216L170.89235432098766,38.825336046102535L171.20330364197528,45.84186829432821L171.50172716049383,46.49178764326359L171.76338407407408,40.948405919291474L172.0680748765432,43.55571021824156L172.31591746913583,36.81342613094492L172.57385783950616,33.95472234523362L172.84241314814815,33.42616674047352L173.10704592592595,33.109033377617465L173.35519092592594,30.54542002657047L173.6153051234568,30.193918682608967L173.89043450617282,32.35635120956536L174.17119129629629,32.46714405907255L174.4187402469136,30.16028643544354L174.68101074074076,29.962838527932803L174.92844574074076,28.65770311675965L175.20535012345675,30.247955203389125L175.45288592592595,28.828773122033482L175.72888746913583,31.5372638732201L176.01290500000002,33.16235832393204L176.26083086419752,30.57741499435923L176.5238025925926,31.399782329948863L176.77943327160494,30.70653606463597L177.0294233950617,29.1039216387816L177.30393043209875,31.702352983268952L177.5517774074074,29.701411789961384L177.80917432098767,29.68751374064351L178.1071288888889,34.42584157771944L178.38154388888887,34.89550494663166L178.65464845679014,36.363969634645656L178.943162654321,37.24504844745408L179.2033075308642,34.21369573513911L179.491817345679,34.768217441083465L179.76601320987655,33.91426379798344L180.01431160493829,31.028558278790058L180.2932714814815,34.04380163394072L180.55410444444442,33.47961431369774L180.8273711728395,34.327768588218674L181.08753796296295,32.46332781959785L181.3726336419753,34.90466335842538L181.64711438271604,33.99613134838856L181.91393851851853,34.63767880903313L182.20100641975307,36.20927395208656L182.44930919753085,32.40556437125193L182.6974848765432,30.123338622751163L182.99212172839506,34.68733650698405L183.25732425925926,32.679068570857055L183.50511864197534,30.287441142514268L183.75278592592593,28.85246468550855L184.0008125925926,27.991478811305143L184.26641395061728,28.661553953449754L184.57022820987655,37.37026570540317L184.8303424074074,34.28882608990858L185.07870654320988,31.253295653945116L185.32677265432102,29.431977392367088L185.58796061728393,30.712519768753594L185.8364124074074,29.107511861252135L186.08471080246915,28.1445071167513L186.38396703703702,34.68670427005077L186.63428148148148,32.678689228697124L186.9046512345679,32.6605468705516L187.16161425925927,31.462994788997634L187.4241301851852,30.744463540065254L187.6809135185185,29.12667812403913L187.92884814814818,28.156006874423497L188.2049987037037,29.946937457987445L188.483787654321,32.20816247479246L188.7460099382716,31.19156415154214L188.99410672839508,29.394938490925284L189.26854802469137,31.87696309455515L189.58032567901233,39.299511190066426L189.85346092592593,36.633040047373214L190.11941290123454,36.219824028423915L190.38122759259258,33.59856108372102L190.65263604938275,34.399136650232606L190.91801827160492,33.6928153234729L191.19885395061726,34.45568919408373L191.44647740740743,31.353413516450274L191.71672006172838,31.86538144320349L192.07121604938274,42.85256219925543L192.35554475308643,41.13820398621991L192.61330543209877,36.549589058398595L192.88355685185184,34.98308676837249L193.13157913580247,31.669852061023477L193.37939543209873,29.6819112366141L193.6595649382716,33.235813408635124L193.90744697530863,30.62148804518108L194.1554341975309,29.05289282710865L194.416547654321,30.485069029598492L194.66421055555554,28.971041417759125L194.93870006172838,31.622624850655484L195.21335172839508,32.02690824372664L195.46149672839508,29.89614494623595L195.71015012345677,28.617686967741577L195.98081790123456,30.223945513978293L196.24220746913582,30.001033975053616L196.49879796296295,29.86728705169884L196.74679395061727,28.60037223101932L197.01134783950616,29.02689000527826L197.28537716049382,31.656134003166954L197.5662128395062,34.420347068566855L197.8513348148148,34.89220824114011L198.14188697530867,36.3619916113507L198.39059296296298,32.49719496681044L198.639009691358,30.178316980086265L198.91248240740742,31.160323521385095L199.16905098765432,30.562860779497726L199.41779203703706,29.01771646769862L199.69001567901233,30.463963213952525L199.93771802469135,28.958377928371505L200.19563648148147,29.241693423689554L200.44360179012347,28.225016054213768L200.7108598148148,29.98834296586159L200.96691561728397,29.859672446183623L201.2290721604938,29.78247013437681L201.4855925308642,29.736148747292788L201.78355586419752,34.45502258170899L202.13613222222224,44.40634688235872L202.39283666666668,38.510474796081894L202.66843938271606,37.34628487764914L202.92395172839505,34.27443759325615L203.18997820987656,32.43132922262035L203.44686234567902,31.325464200238883L203.7181787654321,31.848611853476683L204.01140438271605,34.535833778752675L204.34333376543213,38.52150026725158L204.67029314814815,40.91290016035097L204.94102666666666,37.6010734295439L205.1887027160494,33.24064405772634L205.45550055555555,32.99771976796916L205.7267424691358,32.851965194114825L206.00173598765434,32.764512449802226L206.24943833333333,30.338707469881342L206.51059999999998,31.25655781526214L206.79825518518516,31.807268022490604L207.0518435185185,30.95102748016103L207.33831098765435,32.81061648809663L207.60310154320987,32.739703226191324L207.86908419753087,33.883821935714764L208.15239611111113,35.75695982809552L208.4001598148148,32.1341758968573L208.65750413580247,31.147172204781043L208.93691543209877,32.92830332286863L209.19359796296294,31.623648660387857L209.4881953703704,37.960855862899365L209.77385203703702,38.20318018440628L210.05869790123455,37.161908110643765L210.30621617283953,32.97714486638628L210.564520308642,31.652953586498427L210.82052790123458,30.85843881856573L211.1192275308642,37.501729957806106L211.36708765432098,33.18103797468365L211.61457524691357,30.588622784810184L211.86146679012347,29.03317367088613L212.10888425925924,28.09990420253169L212.36920444444445,28.726609188185677L212.6311374691358,29.10263217957808L212.88796462962964,29.328245974413505L213.13531635802468,28.2769475846481L213.40670290123458,31.206168550788846L213.65411160493827,29.40370113047331L213.91738574074074,30.695554011617304L214.1743487654321,30.283999073637062L214.43613716049381,30.03706611084891L214.70590209876542,31.075572999842677L214.95315302469137,29.325343799905596L215.2102738271605,29.461872946610043L215.465917654321,29.543790434632683L215.71313351851853,28.40627426077961L215.96824703703703,28.910431223134452L216.24228950617282,30.399592067214L216.5439562345679,34.85308857366175L216.79138246913578,31.591853144197017L217.0406625925926,30.821778553184885L217.29916833333337,31.54640046524426L217.61379913580245,39.1011736124799L217.92519987654322,40.07403750082128L218.18071222222224,35.911089167159446L218.4277264814815,32.22665350029567L218.67519216049382,30.015992100177414L218.9305248148148,29.87626192677311L219.19977697530862,30.97909048939721L219.4476809259259,29.267454293638338L219.74890061728397,32.98713924284965L220.02518703703703,32.84561687904312L220.28637938271604,32.7607034607592L220.55102969135802,32.70975540978887L220.8289333333333,33.865853245873296L221.13226549382716,36.93284528085732L221.37981882716048,32.839707168514394L221.63824129629631,31.5704909677753L221.88591296296298,29.62229458066517L222.13339179012343,28.45337674839911L222.3808399382716,27.752026049039472L222.62841956790123,27.331215629423667L222.88545709876541,28.26539604432088L223.14264802469137,28.825904293259185L223.39023641975308,27.9755425759555L223.65678444444444,29.838658878906614L223.92801320987653,30.95652866067732L224.21129444444446,31.62725052973971L224.50536592592593,34.40301698451049L224.81075796296295,36.06847685737296L225.0680014814815,33.50775278109046L225.3255737037037,31.971318335320944L225.58212037037038,31.04945766785923L225.82985339506175,29.309674600715567L226.09302672839505,30.639138093762654L226.36031981481483,31.436816189590928L226.60803969135802,29.542089713754564L226.87246209876542,29.591920494919407L227.1374937037037,30.808485630284963L227.41433234567901,32.72509137817099L227.693182654321,35.06172149356925L227.96281611111112,34.09036622947488L228.22278567901233,32.3208864043516L228.49483401234568,33.632531842610945L228.75672320987653,33.232852438899926L229.01371253086418,31.806378130006607L229.2791122839506,32.13716021133732L229.53575098765432,31.148962793469053L229.80267154320987,31.74271100941479L230.0595162345679,30.912293272315537L230.32447333333332,31.60070929672267L230.58281691358025,32.01375891136695L230.85783234567901,33.44825534682016L231.15086074074074,34.308953208092106L231.39891808641974,31.26537192485526L231.65490814814814,30.62588982157982L231.9282011728395,32.615533892947866L232.20688055555553,32.62265366910205L232.4824613580247,32.626925534794566L232.74512191358025,32.62948865421009L233.0398551851852,37.37769319252607L233.33649493827158,39.039949248848984L233.6273451234568,37.6639695493094L233.8753411111111,33.27838172958562L234.13738808641972,31.833695704418062L234.3851649382716,29.78021742265082L234.64096654320988,29.734797120257184L234.90000697530863,29.707544938820973L235.18867456790122,32.06452696329259L235.43663549382717,29.91871617797554L235.6841274691358,28.63122970678532L235.94530666666668,29.045404490737894L236.21132,31.667242694442734L236.45980246913578,29.68034561666562L236.7324074074074,30.861540703332707L237.0391186419753,35.13025775533296L237.29443814814817,32.944821319866435L237.56863839506173,34.00689279191985L237.83809654320987,33.45746900848525L238.08558851851853,30.754481405091127L238.34596567901235,30.319355509721362L238.59309827160496,28.871613305832796L238.84021333333334,28.002967983499673L239.09678191358023,28.6684474567665L239.34426950617282,27.881068474059873L239.62310228395063,30.968641084435916L239.88040716049383,30.44785131732823L240.12822783950617,28.948710790396945L240.39488543209876,30.422559807571474L240.66912074074074,31.306869217876226L240.93118086419753,31.837454864059055L241.18831481481482,30.969139585102113L241.43597771604936,29.261483751061263L241.68349160493827,28.236890250636748L241.93122901234568,27.622134150382067L242.1791724074074,27.25328049022923L242.46994808641978,32.965301627470865L242.7317145679012,31.64584764314918L243.0037234567901,32.040841919222856L243.25136444444442,29.904505151533726L243.4987512345679,28.622703090920226L243.76841537037038,30.226955187885494L244.0163412345679,28.816173112731263L244.27779216049385,29.156370534305438L244.5401941358025,30.547155653916604L244.80408185185186,31.381626725683304L245.0707175308642,31.882309368743336L245.3282371604938,30.996052287912647L245.58700148148148,31.65096470608094L245.86844197530866,33.23057882364856L246.12136413580245,31.805013960855803L246.38354697530863,30.94967504318015L246.63151666666667,29.249805025908103L246.8977885802469,29.416549682211524L247.15193790123456,29.516596475993595L247.41438808641976,30.76329121892948" style="fill: none;" fill="none"></path></g></g></g></g><g opacity="0.2"><g><g><g><path stroke="rgb(0, 119, 187)" stroke-width="2px" d="M31.555555555555554,151.3L31.56720481481482,148.33333333333334L31.58005055555555,148.33333333333334L31.591542037037033,151.3L31.602893271604938,148.33333333333334L31.616839074074072,148.33333333333334L31.627028888888887,151.3L31.63823549382716,151.3L31.65137049382716,148.33333333333334L31.668024814814814,142.4L31.713337716049384,148.33333333333334L31.85209450617284,148.33333333333334L31.980635185185186,148.33333333333334L32.103526543209874,148.33333333333334L32.22122438271605,151.3L32.38093932098765,145.36666666666667L32.50343185185185,151.3L32.631950617283955,148.33333333333334L32.776032407407406,148.33333333333334L32.89447969135802,148.33333333333334L33.02699549382716,151.3L33.14537265432099,148.33333333333334L33.26981111111111,151.3L33.42099290123457,142.4L33.5741162345679,145.36666666666667L33.69899296296296,151.3L33.80655358024691,151.3L33.933981049382716,151.3L34.05827487654321,151.3L34.18465049382716,151.3L34.32690030864198,148.33333333333334L34.50607012345679,139.43333333333334L34.65092765432099,151.3L34.76461530864198,151.3L34.89213481481481,148.33333333333334L35.00598024691358,151.3L35.13663777777778,151.3L35.28072395061728,151.3L35.39283820987654,151.3L35.54281037037037,145.36666666666667L35.69384314814815,145.36666666666667L35.822813333333336,151.3L35.95855481481482,148.33333333333334L36.086902654320994,151.3L36.21946666666667,145.36666666666667L36.331940308641975,151.3L36.47995339506173,148.33333333333334L36.65926345679012,145.36666666666667L36.85905395061729,139.43333333333334L36.99729796296296,151.3L37.12129376543209,151.3L37.29001080246914,142.4L37.45365265432098,145.36666666666667L37.65145339506173,139.43333333333334L37.80455919753086,151.3L37.96269635802469,142.4L38.136716481481486,145.36666666666667L38.28813055555555,148.33333333333334L38.46496438271605,145.36666666666667L38.602919135802466,148.33333333333334L38.76729290123457,148.33333333333334L38.908749444444446,151.3L39.04943462962963,151.3L39.191750185185185,151.3L39.366589876543216,148.33333333333334L39.526949074074075,148.33333333333334L39.7042737654321,148.33333333333334L39.87913975308642,145.36666666666667L40.026250000000005,148.33333333333334L40.22063660493827,145.36666666666667L40.41806481481481,142.4L40.61481808641975,145.36666666666667L40.823680802469134,142.4L41.04072166666666,139.43333333333334L41.264270864197535,142.4L41.45511185185185,148.33333333333334L41.65939901234568,136.46666666666667L41.86582055555556,145.36666666666667L42.12145561728395,139.43333333333334L42.371524629629626,136.46666666666667L42.63117425925927,130.53333333333333L42.881966419753084,136.46666666666667L43.12801648148148,136.46666666666667L43.389704074074075,133.5L43.64485265432099,148.33333333333334L43.90937148148148,133.5L44.12918222222222,142.4L44.44641635802469,118.66666666666667L44.74839864197531,118.66666666666667L44.99454074074074,130.53333333333333L45.251705370370374,136.46666666666667L45.4818987654321,136.46666666666667L45.76061320987654,136.46666666666667L45.97412598765431,145.36666666666667L46.235559382716055,133.5L46.583599629629624,121.63333333333333L46.88177771604938,124.6L47.21641561728395,118.66666666666667L47.48693876543209,139.43333333333334L47.72582308641976,139.43333333333334L47.99444851851852,133.5L48.33082635802469,124.6L48.605666481481485,127.56666666666666L48.913333148148155,124.6L49.20063333333333,121.63333333333333L49.6272512962963,112.73333333333333L50.04222876543209,100.86666666666666L50.3276662962963,136.46666666666667L50.65744814814815,118.66666666666667L51.04068598765433,109.76666666666667L51.36732981481481,118.66666666666667L51.733545185185186,115.7L52.08000327160494,112.73333333333333L52.45966481481481,124.6L52.81500228395062,112.73333333333333L53.26479166666667,97.89999999999999L53.66196654320987,109.76666666666667L54.03053543209877,115.7L54.45785901234568,68.23333333333333L54.86943987654321,68.23333333333333L55.304065061728394,83.06666666666666L55.739820987654326,71.2L56.13386222222223,68.23333333333333L56.5344862962963,74.16666666666666L56.96761259259259,86.03333333333332L57.37462228395062,68.23333333333333L57.67523716049383,44.5L58.018246049382725,53.400000000000006L58.37583623456789,59.33333333333334L58.78561141975308,74.16666666666666L59.079722345679016,47.46666666666667L59.37852716049383,41.53333333333333L59.63728709876543,32.633333333333326L59.90706956790123,35.599999999999994L60.205589506172835,47.46666666666667L60.49354271604938,41.53333333333333L60.82908783950617,109.76666666666667L61.1072237654321,32.633333333333326L61.398152839506174,38.56666666666666L61.75397679012345,65.26666666666667L62.05126956790123,41.53333333333333L62.40594962962963,59.33333333333334L62.78022481481482,56.36666666666666L63.10321345679012,44.5L63.413698209876536,41.53333333333333L63.7004812345679,41.53333333333333L64.04470851851852,53.400000000000006L64.36662777777778,53.400000000000006L64.6539586419753,38.56666666666666L65.04339802469136,62.3L65.31416660493828,29.666666666666657L65.64418950617284,50.43333333333334L65.93866419753085,38.56666666666666L66.20970888888888,32.633333333333326L66.54061271604938,53.400000000000006L66.79384604938272,26.700000000000017L67.0491962345679,29.666666666666657L67.34195290123456,35.599999999999994L67.66732135802468,47.46666666666667L67.98043574074073,50.43333333333334L68.22769543209877,26.700000000000017L68.53967469135803,44.5L68.8632900617284,50.43333333333334L69.12870734567902,35.599999999999994L69.40318808641976,32.633333333333326L69.71264728395062,44.5L69.98238154320988,32.633333333333326L70.2850650617284,38.56666666666666L70.583585,38.56666666666666L70.87968567901234,44.5L71.1696637037037,38.56666666666666L71.45571919753085,38.56666666666666L71.70333388888889,29.666666666666657L72.05260567901236,47.46666666666667L72.33140339506171,38.56666666666666L72.61461450617284,38.56666666666666L72.90896648148149,38.56666666666666L73.1736562345679,35.599999999999994L73.4495613580247,35.599999999999994L73.70957475308643,29.666666666666657L73.96032308641975,29.666666666666657L74.21978864197531,32.633333333333326L74.49506265432098,38.56666666666666L74.75898543209877,32.633333333333326L75.00989592592593,29.666666666666657L75.30769271604939,41.53333333333333L75.59113172839506,38.56666666666666L75.90706858024691,44.5L76.17734191358025,38.56666666666666L76.43241598765432,29.666666666666657L76.73467438271605,56.36666666666666L77.15252253086419,80.1L77.41767685185185,35.599999999999994L77.66833314814815,29.666666666666657L77.95639154320988,44.5L78.28546339506174,53.400000000000006L78.57974524691359,41.53333333333333L78.87329518518519,41.53333333333333L79.12418814814815,29.666666666666657L79.41186524691359,35.599999999999994L79.68190191358025,32.633333333333326L79.97495222222221,35.599999999999994L80.28289061728395,41.53333333333333L80.59344549382715,50.43333333333334L80.8686187037037,38.56666666666666L81.16372450617285,38.56666666666666L81.47829833333333,50.43333333333334L81.77746253086418,38.56666666666666L82.04557956790121,32.633333333333326L82.30030302469136,29.666666666666657L82.6571437654321,50.43333333333334L82.9965938888889,50.43333333333334L83.28391598765431,38.56666666666666L83.57460839506173,38.56666666666666L83.87462283950617,38.56666666666666L84.130827654321,32.633333333333326L84.38726037037038,29.666666666666657L84.6758972839506,38.56666666666666L84.93513055555555,29.666666666666657L85.21312185185185,32.633333333333326L85.47977944444445,35.599999999999994L85.72853364197532,29.666666666666657L86.06818975308643,56.36666666666666L86.39380802469135,53.400000000000006L86.72195950617284,50.43333333333334L87.05235055555556,44.5L87.31667216049384,32.633333333333326L87.61629216049384,50.43333333333334L88.00340870370371,62.3L88.30457141975309,47.46666666666667L88.58320697530864,32.633333333333326L88.83528327160494,29.666666666666657L89.11170993827162,38.56666666666666L89.41720277777779,50.43333333333334L89.7847987037037,56.36666666666666L90.03348716049382,26.700000000000017L90.29738802469136,32.633333333333326L90.66783709876543,53.400000000000006L90.9395961728395,38.56666666666666L91.19964024691359,32.633333333333326L91.45427166666666,26.700000000000017L91.75237962962964,41.53333333333333L92.0560974691358,44.5L92.3322787037037,38.56666666666666L92.65502191358024,50.43333333333334L92.90968839506172,26.700000000000017L93.17703845679011,32.633333333333326L93.49341796296297,50.43333333333334L93.74864543209877,26.700000000000017L94.08680703703703,59.33333333333334L94.34914765432099,29.666666666666657L94.6259074074074,38.56666666666666L94.93459524691357,50.43333333333334L95.26066055555556,47.46666666666667L95.5670562345679,47.46666666666667L95.83544061728394,32.633333333333326L96.0942662962963,29.666666666666657L96.38910913580247,44.5L96.65991277777778,32.633333333333326L96.90813228395062,26.700000000000017L97.20189697530863,41.53333333333333L97.47766185185186,35.599999999999994L97.76172320987655,35.599999999999994L98.01084555555555,26.700000000000017L98.31123691358023,50.43333333333334L98.60455456790123,38.56666666666666L98.95421641975308,77.13333333333334L99.24227481481482,38.56666666666666L99.61455586419753,77.13333333333334L99.86025969135802,26.700000000000017L100.12811814814815,32.633333333333326L100.46994808641976,56.36666666666666L100.7746651851852,38.56666666666666L101.02226672839507,29.666666666666657L101.33386030864197,41.53333333333333L101.59386055555557,29.666666666666657L101.8689110493827,41.53333333333333L102.22100092592594,62.3L102.53962438271606,59.33333333333334L102.79008783950616,29.666666666666657L103.05446203703704,32.633333333333326L103.31670185185186,32.633333333333326L103.57419080246912,29.666666666666657L103.88017888888888,47.46666666666667L104.18158265432098,41.53333333333333L104.4314851234568,26.700000000000017L104.70505864197531,35.599999999999994L104.98450061728396,38.56666666666666L105.2354286419753,29.666666666666657L105.58129944444445,62.3L105.8643790740741,38.56666666666666L106.13946024691359,35.599999999999994L106.39903537037037,26.700000000000017L106.64753537037038,26.700000000000017L106.92861209876543,32.633333333333326L107.2451712962963,44.5L107.51640444444445,32.633333333333326L107.8083064814815,35.599999999999994L108.06863104938272,29.666666666666657L108.34543024691358,35.599999999999994L108.65673018518518,50.43333333333334L108.94534518518519,35.599999999999994L109.22441024691358,38.56666666666666L109.47324333333333,26.700000000000017L109.76655660493827,41.53333333333333L110.08997475308642,53.400000000000006L110.4073885802469,47.46666666666667L110.6954951851852,41.53333333333333L110.95072703703703,26.700000000000017L111.23577012345679,38.56666666666666L111.49448185185184,29.666666666666657L111.77301660493828,38.56666666666666L112.04595024691358,38.56666666666666L112.3606774691358,44.5L112.6635713580247,47.46666666666667L112.92841450617283,32.633333333333326L113.23304833333333,41.53333333333333L113.57947574074073,65.26666666666667L113.83831895061729,29.666666666666657L114.09215709876543,26.700000000000017L114.36365759259259,35.599999999999994L114.65798765432099,41.53333333333333L114.91882500000001,32.633333333333326L115.16740388888888,29.666666666666657L115.4463024074074,32.633333333333326L115.70149919753086,26.700000000000017L115.97796530864197,35.599999999999994L116.28586425925926,41.53333333333333L116.60899314814814,44.5L116.93873993827162,53.400000000000006L117.21017469135802,32.633333333333326L117.49187814814815,38.56666666666666L117.78741783950616,41.53333333333333L118.06749092592592,35.599999999999994L118.36531401234568,44.5L118.63791456790123,32.633333333333326L118.94834672839507,41.53333333333333L119.21262012345679,29.666666666666657L119.4873112345679,32.633333333333326L119.74710987654322,32.633333333333326L120.0108485802469,29.666666666666657L120.26071160493828,29.666666666666657L120.51938827160494,29.666666666666657L120.78678216049383,32.633333333333326L121.18499135802467,86.03333333333332L121.46139172839504,32.633333333333326L121.74398925925925,38.56666666666666L122.10569919753087,65.26666666666667L122.36289450617284,29.666666666666657L122.62496777777777,32.633333333333326L122.89164290123456,26.700000000000017L123.1700549382716,35.599999999999994L123.44502216049382,35.599999999999994L123.76456598765432,50.43333333333334L124.03620672839506,32.633333333333326L124.30377154320986,35.599999999999994L124.55189024691357,26.700000000000017L124.82466172839506,35.599999999999994L125.11760246913579,41.53333333333333L125.39213580246913,35.599999999999994L125.65223246913581,29.666666666666657L125.93087240740742,35.599999999999994L126.26152203703704,53.400000000000006L126.55057969135802,38.56666666666666L126.84880598765432,44.5L127.1241939506173,38.56666666666666L127.41896666666665,32.633333333333326L127.66764197530863,26.700000000000017L127.9730559259259,50.43333333333334L128.22138061728396,26.700000000000017L128.47801493827163,29.666666666666657L128.74066672839507,32.633333333333326L129.00158296296297,32.633333333333326L129.25748537037038,29.666666666666657L129.5259135802469,35.599999999999994L129.80358932098764,38.56666666666666L130.05126975308644,26.700000000000017L130.30693987654323,29.666666666666657L130.57666537037036,32.633333333333326L130.8243107407407,26.700000000000017L131.10808283950618,41.53333333333333L131.35571067901236,26.700000000000017L131.62978820987655,35.599999999999994L131.87725388888887,26.700000000000017L132.14362660493828,35.599999999999994L132.39116679012344,26.700000000000017L132.6531787037037,29.666666666666657L132.9361575308642,35.599999999999994L133.18358376543208,26.700000000000017L133.43103629629627,26.700000000000017L133.70742790123458,41.53333333333333L133.95471827160495,26.700000000000017L134.20260907407405,26.700000000000017L134.46453771604936,32.633333333333326L134.7209660493827,29.666666666666657L135.02866339506176,44.5L135.3074172839506,35.599999999999994L135.63226858024692,56.36666666666666L135.94785481481483,47.46666666666667L136.1943037037037,26.700000000000017L136.4842335185185,44.5L136.75671574074073,32.633333333333326L137.02231709876543,32.633333333333326L137.28493382716047,32.633333333333326L137.55284049382715,32.633333333333326L137.8194411111111,32.633333333333326L138.0746685802469,29.666666666666657L138.3395336419753,32.633333333333326L138.6139924691358,32.633333333333326L138.88802179012345,32.633333333333326L139.20732018518515,41.53333333333333L139.45250246913577,26.700000000000017L139.6997577777778,26.700000000000017L139.97930055555557,29.666666666666657L140.27531358024692,35.599999999999994L140.55893666666665,35.599999999999994L140.80652506172842,26.700000000000017L141.11367895061727,38.56666666666666L141.44016499999998,59.33333333333334L141.69479203703705,32.633333333333326L141.98019450617284,41.53333333333333L142.26491765432098,38.56666666666666L142.50990271604937,26.700000000000017L142.76400820987655,29.666666666666657L143.0089362962963,26.700000000000017L143.2542062345679,26.700000000000017L143.53711493827163,38.56666666666666L143.81997104938273,41.53333333333333L144.08068567901236,32.633333333333326L144.34715043209877,38.56666666666666L144.6009666666667,26.700000000000017L144.87621438271606,35.599999999999994L145.1662888271605,44.5L145.41433302469136,26.700000000000017L145.66895129629629,29.666666666666657L145.932422654321,35.599999999999994L146.21255709876542,38.56666666666666L146.49057469135803,41.53333333333333L146.76384141975308,35.599999999999994L147.03450043209875,35.599999999999994L147.3639097530864,62.3L147.61199339506175,26.700000000000017L147.86000691358024,26.700000000000017L148.1098699382716,29.666666666666657L148.45355814814815,62.3L148.7120375925926,32.633333333333326L148.96019574074074,26.700000000000017L149.2533775308642,44.5L149.50264888888887,26.700000000000017L149.76551104938272,32.633333333333326L150.04055716049385,35.599999999999994L150.30544851851852,29.666666666666657L150.55337438271607,26.700000000000017L150.81629790123455,32.633333333333326L151.12041456790124,38.56666666666666L151.45988660493828,47.46666666666667L151.71624919753089,29.666666666666657L151.99423611111112,38.56666666666666L152.26892722222223,38.56666666666666L152.56080296296295,41.53333333333333L152.8481338271605,35.599999999999994L153.1352587037037,35.599999999999994L153.41143555555556,32.633333333333326L153.71707302469136,44.5L153.97395277777778,29.666666666666657L154.29734024691356,50.43333333333334L154.57644913580248,38.56666666666666L154.8338548148148,29.666666666666657L155.08167111111112,26.700000000000017L155.3822202469136,41.53333333333333L155.67641444444442,38.56666666666666L155.95309092592592,35.599999999999994L156.22453444444446,32.633333333333326L156.47203080246913,26.700000000000017L156.72018895061728,26.700000000000017L156.9856588271605,29.666666666666657L157.27103061728394,35.599999999999994L157.5185401234568,26.700000000000017L157.78337012345676,32.633333333333326L158.1010951234568,53.400000000000006L158.37788117283952,35.599999999999994L158.65888339506174,38.56666666666666L158.9238974691358,32.633333333333326L159.17186716049383,26.700000000000017L159.45847049382718,47.46666666666667L159.70613339506173,26.700000000000017L159.95383574074074,26.700000000000017L160.20145043209874,26.700000000000017L160.44894679012347,26.700000000000017L160.69662283950618,26.700000000000017L160.94403592592593,26.700000000000017L161.20036345679014,29.666666666666657L161.4898988271605,35.599999999999994L161.75168283950617,29.666666666666657L162.0353190740741,44.5L162.297300308642,32.633333333333326L162.56609228395064,32.633333333333326L162.81371574074075,26.700000000000017L163.07594679012345,29.666666666666657L163.33332617283952,29.666666666666657L163.60760530864198,35.599999999999994L163.90467895061727,41.53333333333333L164.15258290123458,26.700000000000017L164.41108864197528,32.633333333333326L164.659032037037,26.700000000000017L164.91548666666665,29.666666666666657L165.1635352469136,26.700000000000017L165.4118424074074,26.700000000000017L165.67700111111114,32.633333333333326L165.9962600617284,47.46666666666667L166.27757783950616,35.599999999999994L166.52538975308642,26.700000000000017L166.80118092592593,35.599999999999994L167.04936098765435,26.700000000000017L167.3189287037037,32.633333333333326L167.57651845679013,32.633333333333326L167.84037549382714,35.599999999999994L168.10317191358024,32.633333333333326L168.42261055555554,47.46666666666667L168.68227333333334,32.633333333333326L168.9379478395062,29.666666666666657L169.3187401234568,86.03333333333332L169.56702537037037,26.700000000000017L169.81490302469138,26.700000000000017L170.062842037037,26.700000000000017L170.3340313580247,32.633333333333326L170.60777580246912,38.56666666666666L170.89235432098766,44.5L171.20330364197528,56.36666666666666L171.50172716049383,47.46666666666667L171.76338407407408,32.633333333333326L172.0680748765432,47.46666666666667L172.31591746913583,26.700000000000017L172.57385783950616,29.666666666666657L172.84241314814815,32.633333333333326L173.10704592592595,32.633333333333326L173.35519092592594,26.700000000000017L173.6153051234568,29.666666666666657L173.89043450617282,35.599999999999994L174.17119129629629,32.633333333333326L174.4187402469136,26.700000000000017L174.68101074074076,29.666666666666657L174.92844574074076,26.700000000000017L175.20535012345675,32.633333333333326L175.45288592592595,26.700000000000017L175.72888746913583,35.599999999999994L176.01290500000002,35.599999999999994L176.26083086419752,26.700000000000017L176.5238025925926,32.633333333333326L176.77943327160494,29.666666666666657L177.0294233950617,26.700000000000017L177.30393043209875,35.599999999999994L177.5517774074074,26.700000000000017L177.80917432098767,29.666666666666657L178.1071288888889,41.53333333333333L178.38154388888887,35.599999999999994L178.65464845679014,38.56666666666666L178.943162654321,38.56666666666666L179.2033075308642,29.666666666666657L179.491817345679,35.599999999999994L179.76601320987655,32.633333333333326L180.01431160493829,26.700000000000017L180.2932714814815,38.56666666666666L180.55410444444442,32.633333333333326L180.8273711728395,35.599999999999994L181.08753796296295,29.666666666666657L181.3726336419753,38.56666666666666L181.64711438271604,32.633333333333326L181.91393851851853,35.599999999999994L182.20100641975307,38.56666666666666L182.44930919753085,26.700000000000017L182.6974848765432,26.700000000000017L182.99212172839506,41.53333333333333L183.25732425925926,29.666666666666657L183.50511864197534,26.700000000000017L183.75278592592593,26.700000000000017L184.0008125925926,26.700000000000017L184.26641395061728,29.666666666666657L184.57022820987655,50.43333333333334L184.8303424074074,29.666666666666657L185.07870654320988,26.700000000000017L185.32677265432102,26.700000000000017L185.58796061728393,32.633333333333326L185.8364124074074,26.700000000000017L186.08471080246915,26.700000000000017L186.38396703703702,44.5L186.63428148148148,29.666666666666657L186.9046512345679,32.633333333333326L187.16161425925927,29.666666666666657L187.4241301851852,29.666666666666657L187.6809135185185,26.700000000000017L187.92884814814818,26.700000000000017L188.2049987037037,32.633333333333326L188.483787654321,35.599999999999994L188.7460099382716,29.666666666666657L188.99410672839508,26.700000000000017L189.26854802469137,35.599999999999994L189.58032567901233,50.43333333333334L189.85346092592593,32.633333333333326L190.11941290123454,35.599999999999994L190.38122759259258,29.666666666666657L190.65263604938275,35.599999999999994L190.91801827160492,32.633333333333326L191.19885395061726,35.599999999999994L191.44647740740743,26.700000000000017L191.71672006172838,32.633333333333326L192.07121604938274,59.33333333333334L192.35554475308643,38.56666666666666L192.61330543209877,29.666666666666657L192.88355685185184,32.633333333333326L193.13157913580247,26.700000000000017L193.37939543209873,26.700000000000017L193.6595649382716,38.56666666666666L193.90744697530863,26.700000000000017L194.1554341975309,26.700000000000017L194.416547654321,32.633333333333326L194.66421055555554,26.700000000000017L194.93870006172838,35.599999999999994L195.21335172839508,32.633333333333326L195.46149672839508,26.700000000000017L195.71015012345677,26.700000000000017L195.98081790123456,32.633333333333326L196.24220746913582,29.666666666666657L196.49879796296295,29.666666666666657L196.74679395061727,26.700000000000017L197.01134783950616,29.666666666666657L197.28537716049382,35.599999999999994L197.5662128395062,38.56666666666666L197.8513348148148,35.599999999999994L198.14188697530867,38.56666666666666L198.39059296296298,26.700000000000017L198.639009691358,26.700000000000017L198.91248240740742,32.633333333333326L199.16905098765432,29.666666666666657L199.41779203703706,26.700000000000017L199.69001567901233,32.633333333333326L199.93771802469135,26.700000000000017L200.19563648148147,29.666666666666657L200.44360179012347,26.700000000000017L200.7108598148148,32.633333333333326L200.96691561728397,29.666666666666657L201.2290721604938,29.666666666666657L201.4855925308642,29.666666666666657L201.78355586419752,41.53333333333333L202.13613222222224,59.33333333333334L202.39283666666668,29.666666666666657L202.66843938271606,35.599999999999994L202.92395172839505,29.666666666666657L203.18997820987656,29.666666666666657L203.44686234567902,29.666666666666657L203.7181787654321,32.633333333333326L204.01140438271605,38.56666666666666L204.34333376543213,44.5L204.67029314814815,44.5L204.94102666666666,32.633333333333326L205.1887027160494,26.700000000000017L205.45550055555555,32.633333333333326L205.7267424691358,32.633333333333326L206.00173598765434,32.633333333333326L206.24943833333333,26.700000000000017L206.51059999999998,32.633333333333326L206.79825518518516,32.633333333333326L207.0518435185185,29.666666666666657L207.33831098765435,35.599999999999994L207.60310154320987,32.633333333333326L207.86908419753087,35.599999999999994L208.15239611111113,38.56666666666666L208.4001598148148,26.700000000000017L208.65750413580247,29.666666666666657L208.93691543209877,35.599999999999994L209.19359796296294,29.666666666666657L209.4881953703704,47.46666666666667L209.77385203703702,38.56666666666666L210.05869790123455,35.599999999999994L210.30621617283953,26.700000000000017L210.564520308642,29.666666666666657L210.82052790123458,29.666666666666657L211.1192275308642,47.46666666666667L211.36708765432098,26.700000000000017L211.61457524691357,26.700000000000017L211.86146679012347,26.700000000000017L212.10888425925924,26.700000000000017L212.36920444444445,29.666666666666657L212.6311374691358,29.666666666666657L212.88796462962964,29.666666666666657L213.13531635802468,26.700000000000017L213.40670290123458,35.599999999999994L213.65411160493827,26.700000000000017L213.91738574074074,32.633333333333326L214.1743487654321,29.666666666666657L214.43613716049381,29.666666666666657L214.70590209876542,32.633333333333326L214.95315302469137,26.700000000000017L215.2102738271605,29.666666666666657L215.465917654321,29.666666666666657L215.71313351851853,26.700000000000017L215.96824703703703,29.666666666666657L216.24228950617282,32.633333333333326L216.5439562345679,41.53333333333333L216.79138246913578,26.700000000000017L217.0406625925926,29.666666666666657L217.29916833333337,32.633333333333326L217.61379913580245,50.43333333333334L217.92519987654322,41.53333333333333L218.18071222222224,29.666666666666657L218.4277264814815,26.700000000000017L218.67519216049382,26.700000000000017L218.9305248148148,29.666666666666657L219.19977697530862,32.633333333333326L219.4476809259259,26.700000000000017L219.74890061728397,38.56666666666666L220.02518703703703,32.633333333333326L220.28637938271604,32.633333333333326L220.55102969135802,32.633333333333326L220.8289333333333,35.599999999999994L221.13226549382716,41.53333333333333L221.37981882716048,26.700000000000017L221.63824129629631,29.666666666666657L221.88591296296298,26.700000000000017L222.13339179012343,26.700000000000017L222.3808399382716,26.700000000000017L222.62841956790123,26.700000000000017L222.88545709876541,29.666666666666657L223.14264802469137,29.666666666666657L223.39023641975308,26.700000000000017L223.65678444444444,32.633333333333326L223.92801320987653,32.633333333333326L224.21129444444446,32.633333333333326L224.50536592592593,38.56666666666666L224.81075796296295,38.56666666666666L225.0680014814815,29.666666666666657L225.3255737037037,29.666666666666657L225.58212037037038,29.666666666666657L225.82985339506175,26.700000000000017L226.09302672839505,32.633333333333326L226.36031981481483,32.633333333333326L226.60803969135802,26.700000000000017L226.87246209876542,29.666666666666657L227.1374937037037,32.633333333333326L227.41433234567901,35.599999999999994L227.693182654321,38.56666666666666L227.96281611111112,32.633333333333326L228.22278567901233,29.666666666666657L228.49483401234568,35.599999999999994L228.75672320987653,32.633333333333326L229.01371253086418,29.666666666666657L229.2791122839506,32.633333333333326L229.53575098765432,29.666666666666657L229.80267154320987,32.633333333333326L230.0595162345679,29.666666666666657L230.32447333333332,32.633333333333326L230.58281691358025,32.633333333333326L230.85783234567901,35.599999999999994L231.15086074074074,35.599999999999994L231.39891808641974,26.700000000000017L231.65490814814814,29.666666666666657L231.9282011728395,35.599999999999994L232.20688055555553,32.633333333333326L232.4824613580247,32.633333333333326L232.74512191358025,32.633333333333326L233.0398551851852,44.5L233.33649493827158,41.53333333333333L233.6273451234568,35.599999999999994L233.8753411111111,26.700000000000017L234.13738808641972,29.666666666666657L234.3851649382716,26.700000000000017L234.64096654320988,29.666666666666657L234.90000697530863,29.666666666666657L235.18867456790122,35.599999999999994L235.43663549382717,26.700000000000017L235.6841274691358,26.700000000000017L235.94530666666668,29.666666666666657L236.21132,35.599999999999994L236.45980246913578,26.700000000000017L236.7324074074074,32.633333333333326L237.0391186419753,41.53333333333333L237.29443814814817,29.666666666666657L237.56863839506173,35.599999999999994L237.83809654320987,32.633333333333326L238.08558851851853,26.700000000000017L238.34596567901235,29.666666666666657L238.59309827160496,26.700000000000017L238.84021333333334,26.700000000000017L239.09678191358023,29.666666666666657L239.34426950617282,26.700000000000017L239.62310228395063,35.599999999999994L239.88040716049383,29.666666666666657L240.12822783950617,26.700000000000017L240.39488543209876,32.633333333333326L240.66912074074074,32.633333333333326L240.93118086419753,32.633333333333326L241.18831481481482,29.666666666666657L241.43597771604936,26.700000000000017L241.68349160493827,26.700000000000017L241.93122901234568,26.700000000000017L242.1791724074074,26.700000000000017L242.46994808641978,41.53333333333333L242.7317145679012,29.666666666666657L243.0037234567901,32.633333333333326L243.25136444444442,26.700000000000017L243.4987512345679,26.700000000000017L243.76841537037038,32.633333333333326L244.0163412345679,26.700000000000017L244.27779216049385,29.666666666666657L244.5401941358025,32.633333333333326L244.80408185185186,32.633333333333326L245.0707175308642,32.633333333333326L245.3282371604938,29.666666666666657L245.58700148148148,32.633333333333326L245.86844197530866,35.599999999999994L246.12136413580245,29.666666666666657L246.38354697530863,29.666666666666657L246.63151666666667,26.700000000000017L246.8977885802469,29.666666666666657L247.15193790123456,29.666666666666657L247.41438808641976,32.633333333333326" style="fill: none;" fill="none"></path></g></g></g></g></g></g><g transform="translate(46, 178)" clip-path="url(#clip_1)"><clipPath id="clip_1"><rect width="284" height="22"></rect></clipPath><g><g><line x1="0" y1="0" x2="0" y2="5" style="visibility: inherit;" fill="rgb(0, 0, 0)" stroke="rgb(204, 204, 204)" stroke-width="1px"></line><line x1="31.555555555555554" y1="0" x2="31.555555555555554" y2="5" style="visibility: inherit;" fill="rgb(0, 0, 0)" stroke="rgb(204, 204, 204)" stroke-width="1px"></line><line x1="63.11111111111111" y1="0" x2="63.11111111111111" y2="5" style="visibility: inherit;" fill="rgb(0, 0, 0)" stroke="rgb(204, 204, 204)" stroke-width="1px"></line><line x1="94.66666666666666" y1="0" x2="94.66666666666666" y2="5" style="visibility: inherit;" fill="rgb(0, 0, 0)" stroke="rgb(204, 204, 204)" stroke-width="1px"></line><line x1="126.22222222222221" y1="0" x2="126.22222222222221" y2="5" style="visibility: inherit;" fill="rgb(0, 0, 0)" stroke="rgb(204, 204, 204)" stroke-width="1px"></line><line x1="157.77777777777777" y1="0" x2="157.77777777777777" y2="5" style="visibility: inherit;" fill="rgb(0, 0, 0)" stroke="rgb(204, 204, 204)" stroke-width="1px"></line><line x1="189.33333333333331" y1="0" x2="189.33333333333331" y2="5" style="visibility: inherit;" fill="rgb(0, 0, 0)" stroke="rgb(204, 204, 204)" stroke-width="1px"></line><line x1="220.88888888888889" y1="0" x2="220.88888888888889" y2="5" style="visibility: inherit;" fill="rgb(0, 0, 0)" stroke="rgb(204, 204, 204)" stroke-width="1px"></line><line x1="252.44444444444443" y1="0" x2="252.44444444444443" y2="5" style="visibility: inherit;" fill="rgb(0, 0, 0)" stroke="rgb(204, 204, 204)" stroke-width="1px"></line><line x1="284" y1="0" x2="284" y2="5" style="visibility: inherit;" fill="rgb(0, 0, 0)" stroke="rgb(204, 204, 204)" stroke-width="1px"></line></g><g transform="translate(0, 8)"><text x="0" y="0" dx="0em" dy="0.95em" style="text-anchor: middle; visibility: hidden; font-family: &quot;Helvetica Neue&quot;, sans-serif; font-size: 12px; font-weight: 200;" fill="rgb(50, 49, 63)" stroke="none" stroke-width="1px">-2</text><text x="31.555555555555554" y="0" dx="0em" dy="0.95em" style="text-anchor: middle; visibility: inherit; font-family: &quot;Helvetica Neue&quot;, sans-serif; font-size: 12px; font-weight: 200;" fill="rgb(50, 49, 63)" stroke="none" stroke-width="1px">0</text><text x="63.11111111111111" y="0" dx="0em" dy="0.95em" style="text-anchor: middle; visibility: inherit; font-family: &quot;Helvetica Neue&quot;, sans-serif; font-size: 12px; font-weight: 200;" fill="rgb(50, 49, 63)" stroke="none" stroke-width="1px">2</text><text x="94.66666666666666" y="0" dx="0em" dy="0.95em" style="text-anchor: middle; visibility: inherit; font-family: &quot;Helvetica Neue&quot;, sans-serif; font-size: 12px; font-weight: 200;" fill="rgb(50, 49, 63)" stroke="none" stroke-width="1px">4</text><text x="126.22222222222221" y="0" dx="0em" dy="0.95em" style="text-anchor: middle; visibility: inherit; font-family: &quot;Helvetica Neue&quot;, sans-serif; font-size: 12px; font-weight: 200;" fill="rgb(50, 49, 63)" stroke="none" stroke-width="1px">6</text><text x="157.77777777777777" y="0" dx="0em" dy="0.95em" style="text-anchor: middle; visibility: inherit; font-family: &quot;Helvetica Neue&quot;, sans-serif; font-size: 12px; font-weight: 200;" fill="rgb(50, 49, 63)" stroke="none" stroke-width="1px">8</text><text x="189.33333333333331" y="0" dx="0em" dy="0.95em" style="text-anchor: middle; visibility: inherit; font-family: &quot;Helvetica Neue&quot;, sans-serif; font-size: 12px; font-weight: 200;" fill="rgb(50, 49, 63)" stroke="none" stroke-width="1px">10</text><text x="220.88888888888889" y="0" dx="0em" dy="0.95em" style="text-anchor: middle; visibility: inherit; font-family: &quot;Helvetica Neue&quot;, sans-serif; font-size: 12px; font-weight: 200;" fill="rgb(50, 49, 63)" stroke="none" stroke-width="1px">12</text><text x="252.44444444444443" y="0" dx="0em" dy="0.95em" style="text-anchor: middle; visibility: inherit; font-family: &quot;Helvetica Neue&quot;, sans-serif; font-size: 12px; font-weight: 200;" fill="rgb(50, 49, 63)" stroke="none" stroke-width="1px">14</text><text x="284" y="0" dx="0em" dy="0.95em" style="text-anchor: middle; visibility: hidden; font-family: &quot;Helvetica Neue&quot;, sans-serif; font-size: 12px; font-weight: 200;" fill="rgb(50, 49, 63)" stroke="none" stroke-width="1px">16</text></g><line x1="0" y1="0" x2="284" y2="0" fill="rgb(0, 0, 0)" stroke="rgb(204, 204, 204)" stroke-width="1px"></line></g></g></g></g></svg>