<svg viewBox="0 0 330 200" xmlns="http://www.w3.org/2000/svg"><g><g><g><g><g><line x1="46" y1="178" x2="41" y2="178" style="visibility: inherit;" fill="rgb(0, 0, 0)" stroke="rgb(204, 204, 204)" stroke-width="1px"></line><line x1="46" y1="163.16666666666666" x2="41" y2="163.16666666666666" style="visibility: inherit;" fill="rgb(0, 0, 0)" stroke="rgb(204, 204, 204)" stroke-width="1px"></line><line x1="46" y1="148.33333333333334" x2="41" y2="148.33333333333334" style="visibility: inherit;" fill="rgb(0, 0, 0)" stroke="rgb(204, 204, 204)" stroke-width="1px"></line><line x1="46" y1="133.5" x2="41" y2="133.5" style="visibility: inherit;" fill="rgb(0, 0, 0)" stroke="rgb(204, 204, 204)" stroke-width="1px"></line><line x1="46" y1="118.66666666666667" x2="41" y2="118.66666666666667" style="visibility: inherit;" fill="rgb(0, 0, 0)" stroke="rgb(204, 204, 204)" stroke-width="1px"></line><line x1="46" y1="103.83333333333333" x2="41" y2="103.83333333333333" style="visibility: inherit;" fill="rgb(0, 0, 0)" stroke="rgb(204, 204, 204)" stroke-width="1px"></line><line x1="46" y1="89" x2="41" y2="89" style="visibility: inherit;" fill="rgb(0, 0, 0)" stroke="rgb(204, 204, 204)" stroke-width="1px"></line><line x1="46" y1="74.16666666666666" x2="41" y2="74.16666666666666" style="visibility: inherit;" fill="rgb(0, 0, 0)" stroke="rgb(204, 204, 204)" stroke-width="1px"></line><line x1="46" y1="59.33333333333334" x2="41" y2="59.33333333333334" style="visibility: inherit;" fill="rgb(0, 0, 0)" stroke="rgb(204, 204, 204)" stroke-width="1px"></line><line x1="46" y1="44.5" x2="41" y2="44.5" style="visibility: inherit;" fill="rgb(0, 0, 0)" stroke="rgb(204, 204, 204)" stroke-width="1px"></line><line x1="46" y1="29.666666666666657" x2="41" y2="29.666666666666657" style="visibility: inherit;" fill="rgb(0, 0, 0)" stroke="rgb(204, 204, 204)" stroke-width="1px"></line><line x1="46" y1="14.833333333333343" x2="41" y2="14.833333333333343" style="visibility: inherit;" fill="rgb(0, 0, 0)" stroke="rgb(204, 204, 204)" stroke-width="1px"></line><line x1="46" y1="0" x2="41" y2="0" style="visibility: inherit;" fill="rgb(0, 0, 0)" stroke="rgb(204, 204, 204)" stroke-width="1px"></line></g><g transform="translate(36, 0)"><text x="0" y="178" dx="0em" dy="0.3em" style="text-anchor: end; visibility: hidden; font-family: &quot;Helvetica Neue&quot;, sans-serif; font-size: 12px; font-weight: 200;" fill="rgb(50, 49, 63)" stroke="none" stroke-width="1px">-30</text><text x="0" y="163.16666666666666" dx="0em" dy="0.3em" style="text-anchor: end; visibility: inherit; font-family: &quot;Helvetica Neue&quot;, sans-serif; font-size: 12px; font-weight: 200;" fill="rgb(50, 49, 63)" stroke="none" stroke-width="1px">-25</text><text x="0" y="148.33333333333334" dx="0em" dy="0.3em" style="text-anchor: end; visibility: hidden; font-family: &quot;Helvetica Neue&quot;, sans-serif; font-size: 12px; font-weight: 200;" fill="rgb(50, 49, 63)" stroke="none" stroke-width="1px">-20</text><text x="0" y="133.5" dx="0em" dy="0.3em" style="text-anchor: end; visibility: inherit; font-family: &quot;Helvetica Neue&quot;, sans-serif; font-size: 12px; font-weight: 200;" fill="rgb(50, 49, 63)" stroke="none" stroke-width="1px">-15</text><text x="0" y="118.66666666666667" dx="0em" dy="0.3em" style="text-anchor: end; visibility: hidden; font-family: &quot;Helvetica Neue&quot;, sans-serif; font-size: 12px; font-weight: 200;" fill="rgb(50, 49, 63)" stroke="none" stroke-width="1px">-10</text><text x="0" y="103.83333333333333" dx="0em" dy="0.3em" style="text-anchor: end; visibility: inherit; font-family: &quot;Helvetica Neue&quot;, sans-serif; font-size: 12px; font-weight: 200;" fill="rgb(50, 49, 63)" stroke="none" stroke-width="1px">-5</text><text x="0" y="89" dx="0em" dy="0.3em" style="text-anchor: end; visibility: hidden; font-family: &quot;Helvetica Neue&quot;, sans-serif; font-size: 12px; font-weight: 200;" fill="rgb(50, 49, 63)" stroke="none" stroke-width="1px">0</text><text x="0" y="74.16666666666666" dx="0em" dy="0.3em" style="text-anchor: end; visibility: inherit; font-family: &quot;Helvetica Neue&quot;, sans-serif; font-size: 12px; font-weight: 200;" fill="rgb(50, 49, 63)" stroke="none" stroke-width="1px">5</text><text x="0" y="59.33333333333334" dx="0em" dy="0.3em" style="text-anchor: end; visibility: hidden; font-family: &quot;Helvetica Neue&quot;, sans-serif; font-size: 12px; font-weight: 200;" fill="rgb(50, 49, 63)" stroke="none" stroke-width="1px">10</text><text x="0" y="44.5" dx="0em" dy="0.3em" style="text-anchor: end; visibility: inherit; font-family: &quot;Helvetica Neue&quot;, sans-serif; font-size: 12px; font-weight: 200;" fill="rgb(50, 49, 63)" stroke="none" stroke-width="1px">15</text><text x="0" y="29.666666666666657" dx="0em" dy="0.3em" style="text-anchor: end; visibility: hidden; font-family: &quot;Helvetica Neue&quot;, sans-serif; font-size: 12px; font-weight: 200;" fill="rgb(50, 49, 63)" stroke="none" stroke-width="1px">20</text><text x="0" y="14.833333333333343" dx="0em" dy="0.3em" style="text-anchor: end; visibility: inherit; font-family: &quot;Helvetica Neue&quot;, sans-serif; font-size: 12px; font-weight: 200;" fill="rgb(50, 49, 63)" stroke="none" stroke-width="1px">25</text><text x="0" y="0" dx="0em" dy="0.3em" style="text-anchor: end; visibility: hidden; font-family: &quot;Helvetica Neue&quot;, sans-serif; font-size: 12px; font-weight: 200;" fill="rgb(50, 49, 63)" stroke="none" stroke-width="1px">30</text></g><line x1="46" y1="0" x2="46" y2="178" fill="rgb(0, 0, 0)" stroke="rgb(204, 204, 204)" stroke-width="1px"></line></g></g><g transform="translate(46, 0)" clip-path="url(#clip_0)"><clipPath id="clip_0"><rect width="284" height="178"></rect></clipPath><g><g><g><line x1="0" y1="0" x2="0" y2="178" fill="rgb(0, 0, 0)" stroke="rgb(60, 60, 60)" stroke-width="1px" opacity="0.25"></line><line x1="31.555555555555554" y1="0" x2="31.555555555555554" y2="178" fill="rgb(0, 0, 0)" stroke="rgb(60, 60, 60)" stroke-width="1px" opacity="0.25"></line><line x1="63.11111111111111" y1="0" x2="63.11111111111111" y2="178" fill="rgb(0, 0, 0)" stroke="rgb(60, 60, 60)" stroke-width="1px" opacity="0.25"></line><line x1="94.66666666666666" y1="0" x2="94.66666666666666" y2="178" fill="rgb(0, 0, 0)" stroke="rgb(60, 60, 60)" stroke-width="1px" opacity="0.25"></line><line x1="126.22222222222221" y1="0" x2="126.22222222222221" y2="178" fill="rgb(0, 0, 0)" stroke="rgb(60, 60, 60)" stroke-width="1px" opacity="0.25"></line><line x1="157.77777777777777" y1="0" x2="157.77777777777777" y2="178" fill="rgb(0, 0, 0)" stroke="rgb(60, 60, 60)" stroke-width="1px" opacity="0.25"></line><line x1="189.33333333333331" y1="0" x2="189.33333333333331" y2="178" fill="rgb(0, 0, 0)" stroke="rgb(60, 60, 60)" stroke-width="1px" opacity="0.25"></line><line x1="220.88888888888889" y1="0" x2="220.88888888888889" y2="178" fill="rgb(0, 0, 0)" stroke="rgb(60, 60, 60)" stroke-width="1px" opacity="0.25"></line><line x1="252.44444444444443" y1="0" x2="252.44444444444443" y2="178" fill="rgb(0, 0, 0)" stroke="rgb(60, 60, 60)" stroke-width="1px" opacity="0.25"></line><line x1="284" y1="0" x2="284" y2="178" fill="rgb(0, 0, 0)" stroke="rgb(60, 60, 60)" stroke-width="1px" opacity="0.25"></line></g><g><line x1="0" y1="178" x2="284" y2="178" fill="rgb(0, 0, 0)" stroke="rgb(60, 60, 60)" stroke-width="1px" opacity="0.25"></line><line x1="0" y1="163.16666666666666" x2="284" y2="163.16666666666666" fill="rgb(0, 0, 0)" stroke="rgb(60, 60, 60)" stroke-width="1px" opacity="0.25"></line><line x1="0" y1="148.33333333333334" x2="284" y2="148.33333333333334" fill="rgb(0, 0, 0)" stroke="rgb(60, 60, 60)" stroke-width="1px" opacity="0.25"></line><line x1="0" y1="133.5" x2="284" y2="133.5" fill="rgb(0, 0, 0)" stroke="rgb(60, 60, 60)" stroke-width="1px" opacity="0.25"></line><line x1="0" y1="118.66666666666667" x2="284" y2="118.66666666666667" fill="rgb(0, 0, 0)" stroke="rgb(60, 60, 60)" stroke-width="1px" opacity="0.25"></line><line x1="0" y1="103.83333333333333" x2="284" y2="103.83333333333333" fill="rgb(0, 0, 0)" stroke="rgb(60, 60, 60)" stroke-width="1px" opacity="0.25"></line><line x1="0" y1="89" x2="284" y2="89" fill="rgb(0, 0, 0)" stroke="rgb(60, 60, 60)" stroke-width="1px" opacity="0.25"></line><line x1="0" y1="74.16666666666666" x2="284" y2="74.16666666666666" fill="rgb(0, 0, 0)" stroke="rgb(60, 60, 60)" stroke-width="1px" opacity="0.25"></line><line x1="0" y1="59.33333333333334" x2="284" y2="59.33333333333334" fill="rgb(0, 0, 0)" stroke="rgb(60, 60, 60)" stroke-width="1px" opacity="0.25"></line><line x1="0" y1="44.5" x2="284" y2="44.5" fill="rgb(0, 0, 0)" stroke="rgb(60, 60, 60)" stroke-width="1px" opacity="0.25"></line><line x1="0" y1="29.666666666666657" x2="284" y2="29.666666666666657" fill="rgb(0, 0, 0)" stroke="rgb(60, 60, 60)" stroke-width="1px" opacity="0.25"></line><line x1="0" y1="14.833333333333343" x2="284" y2="14.833333333333343" fill="rgb(0, 0, 0)" stroke="rgb(60, 60, 60)" stroke-width="1px" opacity="0.25"></line><line x1="0" y1="0" x2="284" y2="0" fill="rgb(0, 0, 0)" stroke="rgb(60, 60, 60)" stroke-width="1px" opacity="0.25"></line></g></g></g><g><g><line x1="0" y1="89" x2="284" y2="89" fill="rgb(0, 0, 0)" stroke="rgb(153, 153, 153)" stroke-width="1.5px"></line></g></g><g><g><line x1="31.555555555555554" y1="0" x2="31.555555555555554" y2="178" fill="rgb(0, 0, 0)" stroke="rgb(153, 153, 153)" stroke-width="1.5px"></line></g></g><g><g><g><g><g><path stroke="rgb(0, 119, 187)" stroke-width="2px" d="M31.555555555555554,151.3L31.56720481481482,150.37291666666667L31.580046172839506,149.8368490348868L31.591537654320987,149.8275740494915L31.60288888888889,149.69417051844317L31.616839074074072,149.538110833769L31.627028888888887,149.5655394101016L31.638231111111114,149.66770632456974L31.65137049382716,149.66130022827906L31.668024814814814,149.36566008610197L31.713333333333328,149.16776881127046L31.85209450617284,149.03147496136606L31.980635185185186,148.93465665771996L32.103526543209874,148.86359480377928L32.22122438271605,148.88883632247212L32.38093493827161,148.81494761533355L32.50343185185185,148.83171557351164L32.6319462345679,148.83013954069392L32.776032407407406,148.81878407209197L32.89447969135802,148.8026027322957L33.02699111111111,148.84092669721073L33.14537265432099,148.85364688908024L33.26981111111111,148.9034936621943L33.42099290123457,148.82376248618655L33.5741162345679,148.72252378001855L33.69899296296296,148.70377116859908L33.80655358024691,148.73139786127103L33.933981049382716,148.78407716769178L34.05827049382716,148.84929604083192L34.18465049382716,148.91980016409292L34.326895925925925,148.95317130161274L34.50607012345679,148.85356943970731L34.65092327160494,148.82527393582936L34.76461092592592,148.8379085279159L34.89213043209877,148.83950715087536L35.00598024691358,148.86777861637833L35.13663777777778,148.91057805876375L35.28072395061728,148.96073172822605L35.39283820987654,149.0140462809102L35.542805987654326,149.0087615545498L35.69384314814815,148.97013476066113L35.822808950617286,148.9696989339925L35.95855043209877,148.96352547103012L36.086902654320994,148.9811447626016L36.21946666666667,148.95935442958017L36.331940308641975,148.96691779283972L36.47994901234568,148.96596709721257L36.65926345679012,148.93541359166022L36.85905395061729,148.8398886731833L36.99729796296296,148.80339914629252L37.12128938271604,148.8015160350167L37.29001080246914,148.75116655358636L37.45365265432098,148.69598265208174L37.65145339506173,148.5948733742079L37.80455919753086,148.5549857005501L37.96269635802469,148.48751458317184L38.136716481481486,148.42584208323643L38.28813055555555,148.38883858327517L38.46496438271605,148.34652402602305L38.602919135802466,148.32147027295431L38.76728851851852,148.3067616854604L38.908745061728396,148.31739034460958L39.04943462962963,148.3426034470815L39.191745802469136,148.37597873491558L39.366589876543216,148.39543353408084L39.526949074074075,148.4065541471412L39.70426938271605,148.4126878288609L39.87913975308642,148.3983967447612L40.026250000000005,148.38956859495244L40.22063660493827,148.3670744903048L40.41806043209877,148.32015006425937L40.61481808641975,148.27597968190685L40.82367641975309,148.21764291371767L41.04072166666666,148.13563030389466L41.264270864197535,148.05648944434037L41.455107469135804,148.01108724468853L41.65939901234568,147.92422831015134L41.86582055555556,147.85966432068554L42.12145561728395,147.77875223621015L42.371524629629626,147.6742517944035L42.631169876543204,147.527679459007L42.881966419753084,147.38685201947973L43.12801648148148,147.2507458043799L43.389704074074075,147.10457554455826L43.64484827160494,147.02368618366856L43.90936709876542,146.91281662454847L44.12917783950618,146.82631144486254L44.44641635802469,146.64700001694194L44.748394259259264,146.4148657613045L44.99453635802469,146.2065496396847L45.251705370370374,146.0401196133193L45.4818987654321,145.89972433553714L45.76061320987654,145.77582131091702L45.97412598765431,145.70052887358634L46.235559382716055,145.60445662672342L46.583599629629624,145.4475343326828L46.88177771604938,145.26838398258496L47.21641561728395,145.05341231195493L47.48693876543209,144.90302445829926L47.72581870370371,144.79181467497955L47.99444851851852,144.65388943873612L48.33082635802469,144.4762010541922L48.605662098765436,144.28652171894112L48.913333148148155,144.06591393671948L49.20063333333333,143.82674908631554L49.6272512962963,143.54084918018287L50.04222876543209,143.16757581263445L50.3276662962963,142.88427936412688L50.65744814814815,142.5956343756783L51.04068598765433,142.29191332499192L51.36732981481481,141.99101357523605L51.73354080246914,141.67994193115237L52.08000327160494,141.35089794881185L52.459660432098765,141.0585383166097L52.81500228395062,140.72885686651205L53.26478728395062,140.34118151085775L53.66196654320987,139.94244142502865L54.03053543209877,139.57266557930103L54.45785901234568,139.03039952865157L54.86943987654321,138.38463935504902L55.304065061728394,137.72425046076705L55.739820987654326,137.01948351925807L56.13386222222223,136.26435700456022L56.53448191358025,135.53834717392755L56.96761259259259,134.8654081685533L57.37462228395062,134.12937841553628L57.67523277777778,133.2605598394422L58.018246049382725,132.34766878432126L58.37583185185185,131.4320681183304L58.78561141975308,130.57417411379606L59.07971796296297,129.65597086333787L59.37852716049383,128.71344900359844L59.637282716049384,127.6732696737655L59.90706956790123,126.58636166845608L60.205589506172835,125.5307500175328L60.49353833333333,124.45831649611537L60.82908783950617,123.64872377421545L61.1072237654321,122.6883007953927L61.398152839506174,121.66111353896252L61.7539724074074,120.72440177358503L62.05126956790123,119.7470409283478L62.40594962962963,118.79275838828715L62.78022481481482,117.85232169963896L63.10321345679012,116.86086009385971L63.413698209876536,115.85064934438142L63.7004812345679,114.805456363831L64.04470851851852,113.79860703846258L64.36662777777778,112.82663084447647L64.65395425925925,111.83997828034718L65.04339802469136,110.89198708137765L65.31416222222222,109.83665864388682L65.64418950617284,108.83559498262726L65.93866419753085,107.80775719328119L66.20970888888888,106.76385436123645L66.54060833333334,105.7459127525451L66.79384166666667,104.67234737992061L67.0491962345679,103.56540831478301L67.34195290123456,102.45031168948728L67.66732135802468,101.38965380484532L67.98043135802469,100.36165888167224L68.22769543209877,99.25832877550603L68.53967030864197,98.1691305533692L68.86328567901235,97.11214505527286L69.12870296296298,96.01515363192877L69.40318808641976,94.89415879489772L69.71264728395062,93.80622867251512L69.98238154320988,92.69067054533011L70.28506067901235,91.59413565204369L70.583585,90.49714805700874L70.87968567901234,89.43548885118065L71.1696637037037,88.38315996605812L71.45571919753085,87.3245626180092L71.70333388888889,86.238470881505L72.05260567901236,85.21894924083739L72.33140339506171,84.19190275334948L72.61461450617284,83.1366083299933L72.90896209876544,82.11183176651504L73.1736562345679,81.0578990146413L73.4495613580247,80.01020614335306L73.70957037037039,78.95439026214304L73.9603187037037,77.91743388567936L74.21978864197531,76.87992683963719L74.49506265432098,75.86582270254738L74.75898543209877,74.85389337255587L75.00989592592593,73.77206956057167L75.30769271604939,72.75510867461611L75.59113172839506,71.72959835703203L75.90706858024691,70.81762549981494L76.17734191358025,69.95004180811851L76.43241160493828,69.02602531120982L76.73467438271605,68.15121543569848L77.15252253086419,67.40086277582337L77.4176724691358,66.5471843321607L77.66833314814815,65.5721768585534L77.95639154320988,64.63117327974388L78.28546339506174,63.793637210644164L78.57974524691359,62.95884921939188L78.87329518518519,62.14944281970071L79.12418814814815,61.22473244902258L79.41186524691359,60.254572440604946L79.68190191358025,59.269009587816754L79.97495222222221,58.32167278149866L80.28289061728395,57.4091374096422L80.59344549382715,56.56494951986164L80.8686187037037,55.72616930450732L81.16372450617285,54.92623450862804L81.47829833333333,54.244540207231694L81.77746253086418,53.44392371692933L82.04557518518519,52.61942053468235L82.30030302469136,51.804319213814765L82.65713938271605,51.04232449948027L82.9965938888889,50.32406181903224L83.28391598765431,49.596437544096744L83.57460839506173,48.81572969106986L83.87462283950617,48.05063831258707L84.13082327160495,47.33051650195654L84.38726037037038,46.57804287236533L84.6758972839506,45.81802622136436L84.9351261728395,45.20774942829385L85.21312185185185,44.69918348825482L85.47977944444445,44.204176306942145L85.72853364197532,43.74103938910508L86.06818975308643,43.41569061700389L86.39380364197531,43.137413917524924L86.72195950617284,42.82804803364078L87.05235055555556,42.54749526051242L87.31666777777778,42.33169697523647L87.61628777777779,42.19035106579784L88.00340870370371,42.11741045840773L88.30457141975309,41.9668459129027L88.58320259259258,41.81717475762119L88.83528327160494,41.67990431135982L89.11170993827162,41.62127592014923L89.41720277777779,41.64543244509491L89.7847987037037,41.695526043188124L90.03348716049382,41.66624864237204L90.29738802469136,41.340149728636106L90.66783271604938,41.22755668491931L90.9395961728395,41.160000858689216L91.19964024691359,40.98893330533397L91.45426728395061,40.826960345342314L91.75237524691359,40.65857720309566L92.05609308641975,40.51007956465526L92.3322787037037,40.397247105044784L92.65502191358024,40.36514844409783L92.90968401234568,40.28655681955115L93.17703845679011,40.15633327691134L93.49341796296297,40.06633221305435L93.74864104938271,39.96486608503477L94.08680703703703,39.892119469949904L94.34914765432099,39.84847150089897L94.6259074074074,39.774817229763016L94.93459524691357,39.778090156786845L95.26066055555556,39.83938634097967L95.5670562345679,39.85243243833614L95.8354362345679,39.88399170990925L96.0942662962963,39.902927272853105L96.38910913580247,39.949889425438755L96.65991277777778,39.91873428901161L96.90813228395062,39.80510796435749L97.20189697530863,39.79626459754354L97.47766185185186,39.75535776263584L97.76172320987655,39.671481233712655L98.01084555555555,39.58555450153946L98.3112325308642,39.605200091874224L98.60455456790123,39.5932535695288L98.95421641975308,39.764085203444154L99.24227481481482,39.86658418379338L99.61455586419753,40.08235150616633L99.86025969135802,40.140610269951424L100.12811376543209,40.15183391506332L100.46994808641976,40.22976746838208L100.77466080246913,40.312126151805614L101.02226672839507,40.29034199560812L101.33386030864197,40.2891384401627L101.59386055555557,40.25281549207617L101.8689110493827,40.24288866149732L102.22099654320988,40.34373274422097L102.53962438271606,40.499172436653026L102.79008345679011,40.592436252112236L103.05446203703704,40.66026147966093L103.31670185185186,40.7009566161901L103.57419080246912,40.6897728832883L103.88017888888888,40.74239733491274L104.18158265432098,40.82143749559282L104.43148074074075,40.809529164022365L104.70505864197531,40.79051722680697L104.9844962345679,40.75537618793149L105.2354286419753,40.69869301317394L105.5812950617284,40.79521490254956L105.8643790740741,40.781928669923275L106.13946024691359,40.59595738302494L106.39903537037037,40.448773796066575L106.64753537037038,40.34859670561846L106.92861209876543,40.24102496164417L107.2451712962963,40.14088110044031L107.51640444444445,40.04519623228566L107.80830209876544,39.96405143484665L108.06863104938272,39.91536455638328L108.34543024691358,39.88615242930521L108.65672580246914,39.93982451931001L108.94534080246913,39.9720277733129L109.22441024691358,39.979482787441526L109.47323895061727,39.88902255312084L109.76655222222223,39.84661335080153L110.08997475308642,39.88050025738849L110.4073885802469,39.88896772645455L110.6954951851852,39.905912882780285L110.95072703703703,39.892348363416545L111.23576574074075,39.91980820323059L111.49448185185184,39.85321780259426L111.77301660493828,39.76579807250707L112.04595024691358,39.713346234454775L112.36067308641974,39.70560674478256L112.6635713580247,39.73656386579859L112.92841450617283,39.75513813840817L113.23304833333333,39.81375045506638L113.57947574074073,39.955718026132274L113.83831456790122,40.04089856877181L114.09215709876543,40.06827301780933L114.36365759259259,40.084697687231824L114.65798327160493,40.14201797859073L114.91882061728396,40.08147691060822L115.16740388888888,39.950219027020864L115.4463024074074,39.800264930616805L115.70149919753086,39.63909310652275L115.97796530864197,39.554256950339436L116.28586425925926,39.467754441810115L116.60899314814814,39.34465357044087L116.93873993827162,39.294524660778535L117.21017469135802,39.26444731498114L117.49187376543209,39.28200172232198L117.78741345679013,39.30440130499966L118.06749092592592,39.258506363240684L118.36531401234568,39.18350390847988L118.63791456790123,39.162236312169625L118.94834672839507,39.18507430581579L119.21262012345679,39.103843859205625L119.48730685185186,39.03137397808035L119.74710549382716,38.98789204940516L120.01084419753086,38.973667567086125L120.26071160493828,38.917667387989326L120.5193838888889,38.824734852552695L120.78678216049383,38.7452414547445L121.18498697530863,38.839944148562864L121.46139172839504,38.920499641400085L121.74398487654321,38.99256681364864L122.10569481481481,39.09513954497629L122.3628901234568,39.168550122046014L122.62496777777777,39.10579628721686L122.89164290123456,39.05627704804627L123.17005055555555,39.014698566270766L123.44502216049382,38.930419049227L123.76456598765432,38.89171827727384L124.03620672839506,38.8091653861234L124.30377154320986,38.77149832631923L124.55189024691357,38.73703341555063L124.82466172839506,38.68075365427018L125.11759808641975,38.68258661232122L125.39213141975308,38.71928493858414L125.65222808641977,38.69383844463647L125.93087240740742,38.678570548267885L126.26152203703704,38.74060917669837L126.55057969135802,38.82529784346207L126.84880598765432,38.85237943036108L127.1241939506173,38.8686283825005L127.41896666666665,38.70037594307453L127.66764197530863,38.55195898971354L127.9730559259259,38.356108636625976L128.22138061728396,38.23859842477344L128.47801493827163,38.1562253593888L128.74066672839507,38.01186827736018L129.00158296296297,37.90152015159677L129.25748537037038,37.835311276138725L129.5259135802469,37.77185433770475L129.80358932098764,37.76937872607661L130.05126975308644,37.70856093112121L130.30693987654323,37.541536196530814L130.57666098765432,37.3345211747056L130.8243063580247,37.19844522333733L131.10808283950618,37.15240046733575L131.35571067901236,37.10103973718856L131.62978820987655,37.093957175646494L131.87725388888887,37.0066413341965L132.1436222222222,36.930517952780264L132.39116679012344,36.88484392393053L132.65317432098766,36.83370563007446L132.93615314814815,36.79115571548772L133.18357938271606,36.75376109184958L133.43103629629627,36.588923321776434L133.7074235185185,36.501887598005595L133.95471827160495,36.41406534892383L134.20260469135803,36.361371999474756L134.46453771604936,36.35348986635151L134.7209660493827,36.33689364820444L135.02865901234566,36.326935917316234L135.3074172839506,36.3328282170564L135.63226858024692,36.41942990142525L135.94785043209876,36.54259027829818L136.1943037037037,36.58088795298963L136.48422913580248,36.580132681258306L136.75671574074073,36.567812579946406L137.02231271604938,36.536686642613034L137.28492944444446,36.54174495675923L137.55284049382715,36.50918139381463L137.8194411111111,36.40657468813612L138.0746685802469,36.27381129847737L138.3395336419753,36.15855244986278L138.6139924691358,36.11313101724028L138.88802179012345,36.06214428112054L139.20732018518515,36.07901999254116L139.45250246913577,36.04167766630107L139.6997577777778,35.97180678085158L139.97930055555557,35.870551821603414L140.27531358024692,35.76233109296203L140.55893666666665,35.70926559405032L140.80652506172842,35.618091603337746L141.11367456790126,35.456589291226265L141.44016499999998,35.47835275991645L141.69479203703705,35.51514471767675L141.98019450617284,35.56095376887916L142.26491765432098,35.5765722613275L142.50989833333335,35.56220948025029L142.76400820987655,35.55359181160395L143.0089362962963,35.524687333869934L143.2542062345679,35.5073446472295L143.53711055555556,35.50880597351838L143.81997104938273,35.509682769291686L144.08068567901236,35.46274335705027L144.34715043209877,35.375245018339854L144.6009666666667,35.29901440195442L144.87621438271606,35.24140909385008L145.1662888271605,35.218712847260576L145.41433302469136,35.16949428448751L145.66895129629629,35.080630718845185L145.932422654321,35.03917951773289L146.21255271604937,35.002441858792395L146.49057469135803,35.027864753133514L146.76384141975308,35.05498542801129L147.03450043209875,35.08312477121109L147.3639097530864,35.230542434748145L147.61199339506175,35.30712609459724L147.86000691358024,35.34120935223362L148.1098699382716,35.349792368542296L148.4535537654321,35.26000893552967L148.7120375925926,35.206138875722104L148.9601913580247,35.12634908674511L149.2533775308642,34.99540890883418L149.50264450617283,34.90497786381448L149.76550666666668,34.85071923680269L150.04055277777778,34.853764875414925L150.30544851851852,34.831858382036074L150.55337438271607,34.78311593457647L150.81629351851853,34.68266883646203L151.12041456790124,34.64613445413957L151.45988660493828,34.67168157783857L151.71624919753089,34.698874526944024L151.99423611111112,34.72705723468039L152.26892722222223,34.73209992104913L152.56079858024694,34.75885940941657L152.84812944444445,34.798648978983266L153.1352587037037,34.8225227207233L153.41143117283949,34.75378066124256L153.71707302469136,34.73626930210037L153.97395277777778,34.66642779524949L154.29734024691356,34.671990644231386L154.57644913580248,34.699059966779714L154.8338548148148,34.72716849858185L155.08167111111112,34.64910037486524L155.3822202469136,34.66159419200085L155.67641444444442,34.704689033714516L155.95308654320988,34.74241287701582L156.22453444444446,34.7650471829966L156.47203080246913,34.76676082831196L156.72018895061728,34.73219046406888L156.9856588271605,34.6758474307037L157.27103061728394,34.67764242550393L157.5185401234568,34.66685248411096L157.78337012345676,34.660378519275156L158.10109074074074,34.76329432144465L158.37787679012345,34.80130992620013L158.65888339506174,34.87158704214585L158.9238974691358,34.90188637344019L159.17186716049383,34.920065972216776L159.45847049382718,34.978439221188125L159.70612901234568,35.01346317057096L159.95383574074074,35.02261060192754L160.20145043209874,34.992500509309195L160.44894679012347,34.97443445373821L160.69662283950618,34.9635948203956L160.94403592592593,34.89775634902446L161.20035907407407,34.870120204474915L161.4898988271605,34.8891393325645L161.75168283950617,34.88868387114513L162.0353190740741,34.94774302227202L162.297300308642,34.93571302324278L162.56608790123457,34.916628085552134L162.81371135802468,34.78651000359366L163.07594240740738,34.63723978816694L163.33332617283952,34.55954459718399L163.60760530864198,34.47732666777492L163.90467895061727,34.463596724948786L164.15258290123458,34.4316248827069L164.41108864197528,34.41244177736178L164.659027654321,34.37719803760848L164.91548666666665,34.34418485548338L165.1635352469136,34.3125100079352L165.4118424074074,34.26977348624712L165.67700111111114,34.244131573234284L165.99625567901234,34.288078853405096L166.27757783950616,34.29071334496135L166.52538537037037,34.2922940398951L166.80118092592593,34.328843271674714L167.04936098765435,34.338905872469326L167.3189287037037,34.33307649467298L167.57651845679013,34.317711929722094L167.84037549382714,34.344094005570895L168.10317191358024,34.336189374533944L168.4226061728395,34.28398110620637L168.68227333333334,34.25265614520981L168.9379478395062,34.18639341551946L169.3187401234568,34.33650226330093L169.56702537037037,34.42656757196983L169.81489864197528,34.46873981889803L170.062842037037,34.49404316705497L170.3340313580247,34.532959052495386L170.60777580246912,34.556308583759574L170.89234993827162,34.58218524079123L171.20330364197528,34.692644477808074L171.50172716049383,34.7945208348375L171.76338407407408,34.879378262214345L172.06807049382715,34.97776047173292L172.31591308641976,34.965590431192425L172.57385783950616,34.97015534514122L172.8424087654321,34.98475896839656L173.10704592592595,34.98165646746375L173.35518654320987,34.93232721381156L173.6153051234568,34.85526190852784L173.89043450617282,34.80902272535758L174.17119129629629,34.769414540569386L174.4187402469136,34.603248633806146L174.6810063580247,34.51541602802129L174.92844574074076,34.462716464550425L175.20534574074074,34.44296366474097L175.45288592592595,34.28871098896505L175.72888746913583,34.20802632177259L176.01290500000002,34.19521633627642L176.26082648148147,34.116328715340074L176.5238025925926,34.092730019324506L176.7794288888889,34.06670386344203L177.0294233950617,34.015489618480274L177.30393043209875,34.00849268466237L177.55177302469136,34.00429452437163L177.80917432098767,33.98991095331115L178.10712450617282,33.99314548556089L178.38153950617286,33.947620715205346L178.65464407407407,33.95590666781138L178.943162654321,33.96087823937495L179.2033075308642,33.928260367493806L179.491817345679,33.884955767818866L179.76601320987655,33.84710606974082L180.01430722222221,33.78879769946167L180.2932714814815,33.77754429045336L180.55410444444442,33.72332675534301L180.82736679012345,33.71453011082298L181.08753796296295,33.626185819586254L181.37262925925927,33.5731792448442L181.64711438271604,33.55323997488503L181.91393413580246,33.57687722772886L182.20100641975307,33.57919264116205L182.44930919753085,33.53311639951659L182.6974848765432,33.46986983970996L182.99212172839506,33.467522718645284L183.25731987654322,33.477981384279644L183.50511864197534,33.484256583660226L183.75278592592593,33.47615476501545L184.0008125925926,33.43569285900929L184.26641395061728,33.42328265367868L184.57022820987655,33.48703589673195L184.8303424074074,33.43035459976602L185.07870654320988,33.36074500676719L185.32677265432102,33.27151376126247L185.58796061728393,33.2179750139596L185.8364124074074,33.18585176557792L186.08470641975308,33.08351151202416L186.38396703703702,33.09330672614354L186.63428148148148,33.11105079288828L186.90464685185185,33.145431109481336L187.16161425925927,33.17792623771027L187.42412580246915,33.20928798953372L187.6809135185185,33.22810504062778L187.92884376543208,33.22753059639814L188.2049987037037,33.21531899158725L188.48378327160495,33.23172364185993L188.7460099382716,33.182234004045L188.994102345679,33.12880634480982L189.26854802469137,33.108616687541826L189.58032567901233,33.19143613597885L189.85346092592593,33.25299474331419L190.11941290123454,33.31366378426162L190.38122759259258,33.32633133228387L190.65263604938275,33.31019798455097L190.91801827160492,33.32425185245748L191.19885395061726,33.34455111147449L191.44647740740743,33.356730666884715L191.71672006172838,33.375905338403925L192.07121604938274,33.51794419893267L192.35554037037036,33.650633004955296L192.61330543209877,33.71837935029578L192.88355685185184,33.69969472952155L193.13157913580247,33.65288314223767L193.37939104938272,33.62479618986737L193.65956055555554,33.619810956718254L193.90744697530863,33.61681981682881L194.15542981481482,33.59129125634891L194.416547654321,33.57597412006098L194.66421055555554,33.53118528685593L194.9386956790123,33.51617892520602L195.21335172839508,33.44784041685048L195.461492345679,33.38310343529096L195.71015012345677,33.332394308082115L195.98081790123456,33.088370733001966L196.24220746913582,32.95382352622693L196.49879796296295,32.884959877048004L196.74679395061727,32.84364168754067L197.01134783950616,32.806986098950176L197.28537716049382,32.7731258075228L197.56620845679012,32.729075756120125L197.85133043209876,32.61957942075378L198.14188697530867,32.518280804714635L198.3905885802469,32.433767758544946L198.639009691358,32.299993626318354L198.91248240740742,32.24346302352865L199.16905098765432,32.20954466185481L199.41779203703706,32.16545976830429L199.69001567901233,32.139008832174L199.93771802469135,32.123138270495815L200.19563648148147,32.11361593348889L200.44360179012347,32.07230397985245L200.7108598148148,32.047516807670576L200.9669112345679,32.04450917924751L201.2290721604938,32.04270460219371L201.4855925308642,32.05348879423451L201.78355586419752,32.095560124278336L202.13613222222224,32.25133697992183L202.39283666666668,32.321069216761686L202.66843938271606,32.3629085588656L202.923947345679,32.39987910240109L203.18997382716051,32.41019449024924L203.44685796296298,32.41638372295813L203.7181787654321,32.44383113912971L204.0114,32.472164263718724L204.34333376543213,32.560365768110785L204.67029314814815,32.67261909872454L204.94102228395062,32.704372545660505L205.1887027160494,32.68782379900276L205.45550055555555,32.65416067446188L205.72673808641974,32.61022892319113L206.00173598765434,32.595736810701766L206.2494339506173,32.55144299177587L206.51059999999998,32.52486670042035L206.79825518518516,32.5326525387662L207.0518435185185,32.501725490341414L207.33831098765435,32.49503619955965L207.60310154320987,32.479155686817506L207.86907981481482,32.493358992331395L208.15239611111113,32.50188097563972L208.4001598148148,32.48326255246553L208.65750413580247,32.44835762201478L208.93691543209877,32.41554772547124L209.19359796296294,32.40772872581823L209.4881953703704,32.486103630551156L209.77385203703702,32.52126163511781L210.05869790123455,32.56609031440402L210.30621617283953,32.59298752197574L210.564520308642,32.620992784791895L210.82052790123458,32.649662880754704L211.1192275308642,32.738064304583986L211.36708765432098,32.69617191608373L211.61457524691357,32.659169544710466L211.86146679012347,32.6369681218865L212.10888425925924,32.623647268192116L212.36920444444445,32.60378781770237L212.6311374691358,32.60373908568164L212.88796024691356,32.6155767847423L213.13531197530864,32.551480037927064L213.40670290123458,32.53675360299715L213.65411160493827,32.50418612888001L213.91738574074074,32.49651258268281L214.1743487654321,32.49190845496449L214.43613277777777,32.501010653219595L214.70590209876542,32.53020584871888L214.95315302469137,32.523989089472195L215.21026944444444,32.496527420765034L215.465917654321,32.48005041954073L215.71313351851853,32.47016421880613L215.96824703703703,32.44049862181916L216.24228512345678,32.35149989737536L216.5439562345679,32.33369921414135L216.79137808641977,32.28742025276867L217.0406625925926,32.25965287594505L217.29916833333337,32.23112551157777L217.61379475308644,32.28520845920903L217.92519987654322,32.341392104334034L218.18071222222224,32.38696922968211L218.4277264814815,32.39058162834476L218.67519216049382,32.26221500992514L218.9305248148148,32.14959648744107L219.19977697530862,32.09389231222377L219.4476809259259,32.03673593054714L219.74890061728397,32.04990759124661L220.025182654321,32.08154446421244L220.28637938271604,32.07679271144576L220.55102530864198,32.09767553633199L220.8289333333333,32.14580604608304L221.13226111111112,32.210282903365965L221.37981882716048,32.24896901773573L221.63824129629631,32.2484490731984L221.88591296296298,32.22440322992978L222.13339179012343,32.209975723968626L222.38083555555556,32.201319220391895L222.62841956790123,32.17239144169969L222.88545709876541,32.15503477448431L223.14264802469137,32.1446207741551L223.39023203703704,32.138372373957566L223.65678444444444,32.1464902721122L223.92801320987653,32.13949407273182L224.21129444444446,32.111562476557395L224.5053615432099,32.10667045712583L224.8107535802469,32.10373524546691L225.0680014814815,32.11384105674469L225.3255737037037,32.131771481784426L225.58212037037038,32.130662798535184L225.82984901234568,32.11813065031251L226.09302672839505,32.134345237925146L226.36031543209876,32.14407399049273L226.60803969135802,32.149911242033255L226.87246209876542,32.153413592957605L227.1374937037037,32.179248880058395L227.41433234567901,32.20661699059201L227.693182654321,32.258636408344444L227.96281611111112,32.301714997269045L228.22278567901233,32.327562150623805L228.49483401234568,32.31933656609044L228.75672320987653,32.207601034299444L229.0137081481481,32.14055971522487L229.27910790123457,32.088470248894026L229.53575098765432,32.057216569095544L229.80267154320987,32.05032903610251L230.0595162345679,32.04619651630668L230.32446895061727,32.0437170044292L230.58281691358025,32.01849768414354L230.85783234567901,31.96776527715278L231.15086074074074,31.90172501813899L231.39891808641974,31.83836924957157L231.65490814814814,31.812220463317175L231.92819679012345,31.808398129837627L232.20688055555553,31.806104729749876L232.4824613580247,31.80472868969727L232.74511753086418,31.82763694221191L233.0398551851852,31.888849646813156L233.33649055555554,31.96117582100618L233.6273451234568,32.02830540206821L233.8753411111111,32.03298233588612L234.1373837037037,32.02392382129079L234.38516055555556,31.98288789771425L234.64096654320988,31.92266552874898L234.90000697530863,31.898399045642947L235.18867456790122,31.90757303232556L235.43663549382717,31.87747660951578L235.6841274691358,31.84755181755679L235.94530666666668,31.758397576129795L236.21132,31.69303809300044L236.45980246913578,31.618223851690573L236.7324074074074,31.59706692006384L237.0391186419753,31.631840514180226L237.2944337654321,31.65270467065008L237.56863839506173,31.617755411439532L237.83809654320987,31.620519732459428L238.08558851851853,31.62217832507139L238.34596567901235,31.635040418911643L238.59309827160496,31.64275767521579L238.84021333333334,31.635521090725177L239.09678191358023,31.63117914003081L239.34426950617282,31.616707031341065L239.62309790123456,31.64362458094655L239.88040716049383,31.636041234163656L240.12822783950617,31.631491226093885L240.39488543209876,31.628761221252034L240.6691163580247,31.638990156620054L240.93118086419753,31.65699445611395L241.18831043209875,31.65593009753718L241.43597333333335,31.655291482391135L241.68349160493827,31.64304137503038L241.93122901234568,31.623824372340835L242.1791724074074,31.61229417072707L242.46994808641978,31.652843802851265L242.7317145679012,31.665306643852716L243.0037234567901,31.637183533634186L243.25136444444442,31.620309667503108L243.4987512345679,31.598318409551325L243.76841537037038,31.58512365478029L244.0163412345679,31.48227355911979L244.27779216049385,31.37309801201809L244.5401941358025,31.319459622030195L244.80408185185186,31.311008201196643L245.07071314814814,31.32967122524272L245.3282371604938,31.340869039670366L245.58700148148148,31.34758772832697L245.8684375925926,31.387219756340244L246.12136413580245,31.375398158328892L246.38354697530863,31.356438261248968L246.63151666666667,31.321330709841817L246.8977885802469,31.288399240724402L247.15193790123456,31.244906482707762L247.4143837037037,31.183210013078423" style="fill: none;" fill="none"></path></g></g></g></g><g opacity="0.2"><g><g><g><path stroke="rgb(0, 119, 187)" stroke-width="2px" d="M31.555555555555554,151.3L31.56720481481482,149.81666666666666L31.580046172839506,149.3222241083781L31.591537654320987,149.81666666666666L31.60288888888889,149.5199988683065L31.616839074074072,149.3222241083781L31.627028888888887,149.6047627131144L31.638231111111114,149.81666666666666L31.65137049382716,149.65185248057048L31.668024814814814,148.92666893005372L31.713333333333328,148.87272675832114L31.85209450617284,148.8277758916219L31.980635185185186,148.78974533081055L32.103526543209874,148.75714124043782L32.22122438271605,148.92666893005372L32.38093493827161,148.70416666666665L32.50343185185185,148.85686041514077L32.6319462345679,148.8277758916219L32.776032407407406,148.8017525990804L32.89447969135802,148.7783322016398L33.02699111111111,148.898410542806L33.14537265432099,148.87272675832114L33.26981111111111,148.97826283772787L33.42099290123457,148.70416666666665L33.5741162345679,148.57066644032795L33.69899296296296,148.67564233144125L33.80655358024691,148.77283782958983L33.933981049382716,148.86309604644777L34.05827049382716,148.94712429046632L34.18465049382716,149.02555631001792L34.326895925925925,149.00322799682618L34.50607012345679,148.70416666666665L34.65092327160494,148.7828306833903L34.76461092592592,148.85686041514077L34.89213043209877,148.84190508524577L35.00598024691358,148.9101858139038L35.13663777777778,148.9747772216797L35.28072395061728,149.03596223195393L35.39283820987654,149.09401810963948L35.542805987654326,149.00083446502686L35.69384314814815,148.9121945699056L35.822808950617286,148.96904519399007L35.95855043209877,148.95426527659097L36.086902654320994,149.00757369995117L36.21946666666667,148.92666893005372L36.331940308641975,148.97826283772787L36.47994901234568,148.96454105377197L36.65926345679012,148.88958333333335L36.85905395061729,148.6966012954712L36.99729796296296,148.74866485595703L37.12128938271604,148.79869136810302L37.29001080246914,148.67564233144125L37.45365265432098,148.61320679982504L37.65145339506173,148.44320945739747L37.80455919753086,148.4951541900635L37.96269635802469,148.38630790710448L38.136716481481486,148.33333333333334L38.28813055555555,148.33333333333334L38.46496438271605,148.28305219014487L38.602919135802466,148.28388964335124L38.76728851851852,148.28469880421957L38.908745061728396,148.33333333333334L39.04943462962963,148.3804231007894L39.191745802469136,148.42604166666666L39.366589876543216,148.42461573282878L39.526949074074075,148.42323506673176L39.70426938271605,148.42188835144043L39.87913975308642,148.37696011861166L40.026250000000005,148.37632637023927L40.22063660493827,148.33333333333334L40.41806043209877,148.24976342519125L40.61481808641975,148.20972410837808L40.82367641975309,148.13013776143393L41.04072166666666,148.01261138916016L41.264270864197535,147.93777815500894L41.455107469135804,147.94298394521078L41.65939901234568,147.79393990834555L41.86582055555556,147.76281833648682L42.12145561728395,147.65738410949706L42.371524629629626,147.5175011316935L42.631169876543204,147.30782095591226L42.881966419753084,147.1756108601888L43.12801648148148,147.04658648173015L43.389704074074075,146.88532015482585L43.64484827160494,146.902352142334L43.90936709876542,146.74651228586833L44.12917783950618,146.69655367533366L44.44641635802469,146.37803287506102L44.748394259259264,146.0666643778483L44.99453635802469,145.89407545725504L45.251705370370374,145.79047457377115L45.4818987654321,145.68913141886392L45.76061320987654,145.58996677398682L45.97412598765431,145.58759021759033L46.235559382716055,145.46034825642903L46.583599629629624,145.21215089162192L46.88177771604938,144.99965845743816L47.21641561728395,144.73095480600992L47.48693876543209,144.67744267781575L47.72581870370371,144.625L47.99444851851852,144.44700158437092L48.33082635802469,144.2096684773763L48.605662098765436,144.00200271606445L48.913333148148155,143.73500226338706L49.20063333333333,143.46800181070964L49.6272512962963,143.1119993209839L50.04222876543209,142.60766576131186L50.3276662962963,142.45933469136557L50.65744814814815,142.16266689300537L51.04068598765433,141.8363317489624L51.36732981481481,141.5396639506022L51.73354080246914,141.21333446502686L52.08000327160494,140.85733197530112L52.459660432098765,140.61999886830648L52.81500228395062,140.23433469136558L53.26478728395062,139.7596684773763L53.66196654320987,139.344331296285L54.03053543209877,139.01800181070962L54.45785901234568,138.2170004526774L54.86943987654321,137.41599909464517L55.304065061728394,136.7336671193441L55.739820987654326,135.96233310699463L56.13386222222223,135.13166723251342L56.53448191358025,134.4493324279785L56.96761259259259,133.85599966049193L57.37462228395062,133.02533378601075L57.67523277777778,131.9573319753011L58.018246049382725,130.97833220163983L58.37583185185185,130.05866711934408L58.78561141975308,129.28733310699462L59.07971796296297,128.27866598765056L59.37852716049383,127.29966621398925L59.637282716049384,126.11300067901611L59.90706956790123,124.95599966049194L60.205589506172835,123.94733254114787L60.49353833333333,122.84966621398925L60.82908783950617,122.43433469136556L61.1072237654321,121.24766632715861L61.398152839506174,120.12033265431722L61.7539724074074,119.3193341255188L62.05126956790123,118.28099966049194L62.40594962962963,117.36133457819619L62.78022481481482,116.44166666666666L63.10321345679012,115.37366768519084L63.413698209876536,114.33533322016399L63.7004812345679,113.23766689300537L64.04470851851852,112.28833305040995L64.36662777777778,111.3686665534973L64.65395425925925,110.35999943415324L65.04339802469136,109.47000028292338L65.31416222222222,108.25366598765055L65.64418950617284,107.33399949073792L65.93866419753085,106.26600050926208L66.20970888888888,105.19800011316936L66.54060833333334,104.21900033950806L66.79384166666667,103.06199932098389L67.0491962345679,101.90499971707662L67.34195290123456,100.77766675154368L67.66732135802468,99.79866697788238L67.98043135802469,98.81966649691263L68.22769543209877,97.6033336162567L68.53967030864197,96.53533322016398L68.86328567901235,95.52666680812835L69.12870296296298,94.36966649691264L69.40318808641976,93.21266653935115L69.71264728395062,92.1743334889412L69.98238154320988,91.01733335455259L70.28506067901235,89.94933331211408L70.583585,88.85166666445633L70.87968567901234,87.8430000424385L71.1696637037037,86.80466663837433L71.45571919753085,85.73666659593582L71.70333388888889,84.60933327674866L72.05260567901236,83.689666779836L72.33140339506171,82.65133302211761L72.61461450617284,81.553666694959L72.90896209876544,80.5746669212977L73.1736562345679,79.47699988683065L73.4495613580247,78.4386668364207L73.70957037037039,77.37066644032797L73.9603187037037,76.36199932098388L74.21978864197531,75.32366627057394L74.49506265432098,74.34466649691264L74.75898543209877,73.33599937756857L75.00989592592593,72.14933384259542L75.30769271604939,71.22966734568277L75.59113172839506,70.19133288065592L75.90706858024691,69.44966621398926L76.17734191358025,68.64866627057394L76.43241160493828,67.64000056584676L76.73467438271605,66.83900062243143L77.15252253086419,66.27533378601075L77.4176724691358,65.26666666666667L77.66833314814815,64.1096656481425L77.95639154320988,63.21966791152954L78.28546339506174,62.53733310699462L78.57974524691359,61.706667232513425L78.87329518518519,60.935333220164L79.12418814814815,59.83766689300538L79.41186524691359,58.79933242797851L79.68190191358025,57.79066530863443L79.97495222222221,56.90066757202149L80.28289061728395,56.04033435185751L80.59344549382715,55.298667685190836L80.8686187037037,54.46799898147583L81.16372450617285,53.72633231480917L81.47829833333333,53.22199875513712L81.77746253086418,52.242998981475836L82.04557518518519,51.382665761311856L82.30030302469136,50.581667232513425L82.65713938271605,49.89933242797852L82.9965938888889,49.24666779836019L83.28391598765431,48.50500113169352L83.57460839506173,47.644667911529524L83.87462283950617,46.90300124486288L84.13082327160495,46.25033378601074L84.38726037037038,45.44933242797853L84.6758972839506,44.678001244862884L84.9351261728395,44.29233423868814L85.21312185185185,43.93633457819621L85.47977944444445,43.46166553497315L85.72853364197532,43.04633401234943L86.06818975308643,42.92766745885214L86.39380364197531,42.719998868306476L86.72195950617284,42.363999207814544L87.05235055555556,42.126666100819904L87.31666777777778,42.007999547322584L87.61628777777779,41.9783322016398L88.00340870370371,42.007999547322584L88.30457141975309,41.74099909464519L88.58320259259258,41.592668024698895L88.83528327160494,41.47399864196777L89.11170993827162,41.53333333333333L89.41720277777779,41.68166723251343L89.7847987037037,41.77066644032797L90.03348716049382,41.62233254114787L90.29738802469136,40.85100135803222L90.66783271604938,41.05866711934408L90.9395961728395,41.05866711934408L91.19964024691359,40.73233197530109L91.45426728395061,40.58400090535483L91.75237524691359,40.40600248972575L92.05609308641975,40.28733310699462L92.3322787037037,40.22799841562906L92.65502191358024,40.317000452677405L92.90968401234568,40.16866938273111L93.17703845679011,39.960997962951666L93.49341796296297,39.931330617268884L93.74864104938271,39.81266689300537L94.08680703703703,39.78299954732259L94.34914765432099,39.78299954732259L94.6259074074074,39.664335823059076L94.93459524691357,39.78299954732259L95.26066055555556,39.931330617268884L95.5670562345679,39.872001584370935L95.8354362345679,39.931330617268884L96.0942662962963,39.931330617268884L96.38910913580247,40.02033265431723L96.65991277777778,39.872001584370935L96.90813228395062,39.634668477376295L97.20189697530863,39.78299954732259L97.47766185185186,39.693997510274244L97.76172320987655,39.54566644032795L98.01084555555555,39.45666440327963L98.3112325308642,39.634668477376295L98.60455456790123,39.57533378601076L98.95421641975308,40.02033265431723L99.24227481481482,40.02033265431723L99.61455586419753,40.40600248972575L99.86025969135802,40.22799841562906L100.12811376543209,40.16866938273111L100.46994808641976,40.34666779836019L100.77466080246913,40.43566417694092L101.02226672839507,40.25766576131184L101.33386030864197,40.28733310699462L101.59386055555557,40.198331069946306L101.8689110493827,40.22799841562906L102.22099654320988,40.49499886830648L102.53962438271606,40.73233197530109L102.79008345679011,40.73233197530109L103.05446203703704,40.761999320983904L103.31670185185186,40.761999320983904L103.57419080246912,40.67299728393553L103.88017888888888,40.82133401234944L104.18158265432098,40.93999773661295L104.43148074074075,40.79166666666666L104.70505864197531,40.761999320983904L104.9844962345679,40.70266462961834L105.2354286419753,40.61366825103758L105.5812950617284,40.93999773661295L105.8643790740741,40.761999320983904L106.13946024691359,40.317000452677405L106.39903537037037,40.22799841562906L106.64753537037038,40.198331069946306L106.92861209876543,40.07966734568279L107.2451712962963,39.99066530863445L107.51640444444445,39.90166893005372L107.80830209876544,39.84233423868815L108.06863104938272,39.84233423868815L108.34543024691358,39.84233423868815L108.65672580246914,40.02033265431723L108.94534080246913,40.02033265431723L109.22441024691358,39.99066530863445L109.47323895061727,39.75333220163981L109.76655222222223,39.78299954732259L110.08997475308642,39.931330617268884L110.4073885802469,39.90166893005372L110.6954951851852,39.931330617268884L110.95072703703703,39.872001584370935L111.23576574074075,39.960997962951666L111.49448185185184,39.75333220163981L111.77301660493828,39.634668477376295L112.04595024691358,39.634668477376295L112.36067308641974,39.693997510274244L112.6635713580247,39.78299954732259L112.92841450617283,39.78299954732259L113.23304833333333,39.90166893005372L113.57947574074073,40.16866938273111L113.83831456790122,40.16866938273111L114.09215709876543,40.10933469136555L114.36365759259259,40.10933469136555L114.65798327160493,40.22799841562906L114.91882061728396,39.99066530863445L115.16740388888888,39.75333220163981L115.4463024074074,39.57533378601076L115.70149919753086,39.39733537038168L115.97796530864197,39.427002716064436L116.28586425925926,39.33800067901612L116.60899314814814,39.16000226338704L116.93873993827162,39.21933129628499L117.21017469135802,39.21933129628499L117.49187376543209,39.30833333333334L117.78741345679013,39.33800067901612L118.06749092592592,39.18966395060221L118.36531401234568,39.0710002263387L118.63791456790123,39.13033491770426L118.94834672839507,39.21933129628499L119.21262012345679,38.98199818929035L119.48730685185186,38.9226691563924L119.74710549382716,38.9226691563924L120.01084419753086,38.9523308436076L120.26071160493828,38.833667119344085L120.5193838888889,38.68533604939779L120.78678216049383,38.62600135803223L121.18498697530863,38.98199818929035L121.46139172839504,39.041332880655915L121.74398487654321,39.10066757202148L122.10569481481481,39.24899864196777L122.3628901234568,39.278665987650555L122.62496777777777,39.01166553497316L122.89164290123456,38.98199818929035L123.17005055555555,38.9523308436076L123.44502216049382,38.8039997736613L123.76456598765432,38.833667119344085L124.03620672839506,38.68533604939779L124.30377154320986,38.71499773661296L124.55189024691357,38.68533604939779L124.82466172839506,38.596334012349445L125.11759808641975,38.68533604939779L125.39213141975308,38.77433242797852L125.65222808641977,38.65566870371501L125.93087240740742,38.65566870371501L126.26152203703704,38.833667119344085L126.55057969135802,38.9523308436076L126.84880598765432,38.89300181070965L127.1241939506173,38.89300181070965L127.41896666666665,38.447997283935564L127.66764197530863,38.32933355967205L127.9730559259259,38.06233310699463L128.22138061728396,38.06233310699463L128.47801493827163,38.03266576131185L128.74066672839507,37.79533265431721L129.00158296296297,37.73599796295164L129.25748537037038,37.73599796295164L129.5259135802469,37.676668930053694L129.80358932098764,37.76566530863445L130.05126975308644,37.61733423868816L130.30693987654323,37.29099909464517L130.57666098765432,37.02399864196778L130.8243063580247,36.994331296285L131.10808283950618,37.08333333333334L131.35571067901236,37.02399864196778L131.62978820987655,37.08333333333334L131.87725388888887,36.875667572021484L132.1436222222222,36.81633288065592L132.39116679012344,36.81633288065592L132.65317432098766,36.75699818929036L132.93615314814815,36.727330843607575L133.18357938271606,36.69766915639241L133.43103629629627,36.34166666666667L133.7074235185185,36.37133401234945L133.95471827160495,36.282331975301105L134.20260469135803,36.282331975301105L134.46453771604936,36.34166666666667L134.7209660493827,36.31199932098389L135.02865901234566,36.31199932098389L135.3074172839506,36.34166666666667L135.63226858024692,36.5493324279785L135.94785043209876,36.727330843607575L136.1943037037037,36.63833446502687L136.48422913580248,36.57899977366131L136.75671574074073,36.5493324279785L137.02231271604938,36.48999773661296L137.28492944444446,36.5493324279785L137.55284049382715,36.460336049397796L137.8194411111111,36.25266462961832L138.0746685802469,36.074666213989275L138.3395336419753,35.9856641769409L138.6139924691358,36.044998868306465L138.88802179012345,35.9856641769409L139.20732018518515,36.10433355967203L139.45250246913577,35.9856641769409L139.6997577777778,35.867000452677416L139.97930055555557,35.71866938273112L140.27531358024692,35.599999999999994L140.55893666666665,35.629667345682776L140.80652506172842,35.48133061726887L141.11367456790126,35.21433582305909L141.44016499999998,35.51099796295168L141.69479203703705,35.57033265431721L141.98019450617284,35.629667345682776L142.26491765432098,35.599999999999994L142.50989833333335,35.54066530863443L142.76400820987655,35.54066530863443L143.0089362962963,35.48133061726887L143.2542062345679,35.48133061726887L143.53711055555556,35.51099796295168L143.81997104938273,35.51099796295168L144.08068567901236,35.392334238688164L144.34715043209877,35.243997510274255L144.6009666666667,35.184668477376306L144.87621438271606,35.155001131693524L145.1662888271605,35.184668477376306L145.41433302469136,35.09566644032796L145.66895129629629,34.947335370381666L145.932422654321,34.97700271606445L146.21255271604937,34.947335370381666L146.49057469135803,35.06599909464518L146.76384141975308,35.09566644032796L147.03450043209875,35.12533378601074L147.3639097530864,35.45166893005373L147.61199339506175,35.42200158437092L147.86000691358024,35.392334238688164L148.1098699382716,35.362666893005354L148.4535537654321,35.12533378601074L148.7120375925926,35.12533378601074L148.9601913580247,35.006664403279615L149.2533775308642,34.798998641967756L149.50264450617283,34.769331296285L149.76550666666668,34.769331296285L150.04055277777778,34.85833333333332L150.30544851851852,34.798998641967756L150.55337438271607,34.710002263387054L150.81629351851853,34.53199818929036L151.12041456790124,34.591332880655926L151.45988660493828,34.710002263387054L151.71624919753089,34.73966395060222L151.99423611111112,34.769331296285L152.26892722222223,34.73966395060222L152.56079858024694,34.798998641967756L152.84812944444445,34.85833333333332L153.1352587037037,34.85833333333332L153.41143117283949,34.65066757202149L153.71707302469136,34.710002263387054L153.97395277777778,34.561665534973145L154.29734024691356,34.68033491770427L154.57644913580248,34.73966395060222L154.8338548148148,34.769331296285L155.08167111111112,34.53199818929036L155.3822202469136,34.68033491770427L155.67641444444442,34.769331296285L155.95308654320988,34.798998641967756L156.22453444444446,34.798998641967756L156.47203080246913,34.769331296285L156.72018895061728,34.68033491770427L156.9856588271605,34.591332880655926L157.27103061728394,34.68033491770427L157.5185401234568,34.65066757202149L157.78337012345676,34.65066757202149L158.10109074074074,34.917668024698884L158.37787679012345,34.85833333333332L158.65888339506174,34.97700271606445L158.9238974691358,34.947335370381666L159.17186716049383,34.947335370381666L159.45847049382718,35.06599909464518L159.70612901234568,35.06599909464518L159.95383574074074,35.0363317489624L160.20145043209874,34.947335370381666L160.44894679012347,34.947335370381666L160.69662283950618,34.947335370381666L160.94403592592593,34.798998641967756L161.20035907407407,34.82866598765057L161.4898988271605,34.917668024698884L161.75168283950617,34.88800067901613L162.0353190740741,35.0363317489624L162.297300308642,34.917668024698884L162.56608790123457,34.88800067901613L162.81371135802468,34.591332880655926L163.07594240740738,34.41333446502685L163.33332617283952,34.44300181070963L163.60760530864198,34.353999773661286L163.90467895061727,34.44300181070963L164.15258290123458,34.38366711934407L164.41108864197528,34.38366711934407L164.659027654321,34.32433242797853L164.91548666666665,34.29466508229572L165.1635352469136,34.26499773661297L165.4118424074074,34.20566870371502L165.67700111111114,34.20566870371502L165.99625567901234,34.353999773661286L166.27757783950616,34.29466508229572L166.52538537037037,34.29466508229572L166.80118092592593,34.38366711934407L167.04936098765435,34.353999773661286L167.3189287037037,34.32433242797853L167.57651845679013,34.29466508229572L167.84037549382714,34.38366711934407L168.10317191358024,34.32433242797853L168.4226061728395,34.20566870371502L168.68227333333334,34.20566870371502L168.9379478395062,34.08699932098389L169.3187401234568,34.561665534973145L169.56702537037037,34.561665534973145L169.81489864197528,34.53199818929036L170.062842037037,34.53199818929036L170.3340313580247,34.591332880655926L170.60777580246912,34.591332880655926L170.89234993827162,34.62100022633871L171.20330364197528,34.85833333333332L171.50172716049383,34.947335370381666L171.76338407407408,35.006664403279615L172.06807049382715,35.12533378601074L172.31591308641976,34.947335370381666L172.57385783950616,34.97700271606445L172.8424087654321,35.006664403279615L173.10704592592595,34.97700271606445L173.35518654320987,34.85833333333332L173.6153051234568,34.73966395060222L173.89043450617282,34.73966395060222L174.17119129629629,34.710002263387054L174.4187402469136,34.353999773661286L174.6810063580247,34.38366711934407L174.92844574074076,34.38366711934407L175.20534574074074,34.41333446502685L175.45288592592595,34.05733197530111L175.72888746913583,34.08699932098389L176.01290500000002,34.17600135803221L176.26082648148147,33.99799728393555L176.5238025925926,34.05733197530111L176.7794288888889,34.02766462961833L177.0294233950617,33.9386682510376L177.30393043209875,33.99799728393555L177.55177302469136,33.99799728393555L177.80917432098767,33.96833559672038L178.10712450617282,33.99799728393555L178.38153950617286,33.879333559672034L178.65464407407407,33.96833559672038L178.943162654321,33.96833559672038L179.2033075308642,33.879333559672034L179.491817345679,33.81999886830647L179.76601320987655,33.79033152262369L180.01430722222221,33.701335144042986L180.2932714814815,33.760664176940935L180.55410444444442,33.64200045267742L180.82736679012345,33.701335144042986L181.08753796296295,33.49366938273113L181.37262925925927,33.49366938273113L181.64711438271604,33.523331069946295L181.91393413580246,33.61233310699461L182.20100641975307,33.58266576131186L182.44930919753085,33.464002037048346L182.6974848765432,33.375L182.99212172839506,33.464002037048346L183.25731987654322,33.49366938273113L183.50511864197534,33.49366938273113L183.75278592592593,33.464002037048346L184.0008125925926,33.375L184.26641395061728,33.40466734568278L184.57022820987655,33.58266576131186L184.8303424074074,33.34533265431722L185.07870654320988,33.25633061726887L185.32677265432102,33.13766689300539L185.58796061728393,33.13766689300539L185.8364124074074,33.13766689300539L186.08470641975308,32.93000113169353L186.38396703703702,33.10799954732258L186.63428148148148,33.13766689300539L186.90464685185185,33.19700158437092L187.16161425925927,33.226668930053705L187.42412580246915,33.25633061726887L187.6809135185185,33.25633061726887L187.92884376543208,33.226668930053705L188.2049987037037,33.19700158437092L188.48378327160495,33.25633061726887L188.7460099382716,33.10799954732258L188.994102345679,33.048664855957014L189.26854802469137,33.078332201639824L189.58032567901233,33.315665308634436L189.85346092592593,33.34533265431722L190.11941290123454,33.40466734568278L190.38122759259258,33.34533265431722L190.65263604938275,33.285997962951654L190.91801827160492,33.34533265431722L191.19885395061726,33.375L191.44647740740743,33.375L191.71672006172838,33.40466734568278L192.07121604938274,33.73100248972574L192.35554037037036,33.84966621398925L192.61330543209877,33.81999886830647L192.88355685185184,33.671667798360176L193.13157913580247,33.58266576131186L193.37939104938272,33.58266576131186L193.65956055555554,33.61233310699461L193.90744697530863,33.61233310699461L194.15542981481482,33.55299841562908L194.416547654321,33.55299841562908L194.66421055555554,33.464002037048346L194.9386956790123,33.49366938273113L195.21335172839508,33.34533265431722L195.461492345679,33.285997962951654L195.71015012345677,33.25633061726887L195.98081790123456,32.72233537038167L196.24220746913582,32.75200271606445L196.49879796296295,32.78166440327962L196.74679395061727,32.78166440327962L197.01134783950616,32.75200271606445L197.28537716049382,32.72233537038167L197.56620845679012,32.66300067901611L197.85133043209876,32.45533491770428L198.14188697530867,32.36633288065593L198.3905885802469,32.30699818929037L198.639009691358,32.09933242797851L198.91248240740742,32.158667119344074L199.16905098765432,32.158667119344074L199.41779203703706,32.09933242797851L199.69001567901233,32.09933242797851L199.93771802469135,32.09933242797851L200.19563648148147,32.09933242797851L200.44360179012347,32.01033604939778L200.7108598148148,32.01033604939778L200.9669112345679,32.039997736612946L201.2290721604938,32.039997736612946L201.4855925308642,32.06966508229573L201.78355586419752,32.158667119344074L202.13613222222224,32.48500226338703L202.39283666666668,32.42566757202147L202.66843938271606,32.42566757202147L202.923947345679,32.45533491770428L203.18997382716051,32.42566757202147L203.44685796296298,32.42566757202147L203.7181787654321,32.48500226338703L204.0114,32.51466395060223L204.34333376543213,32.69266802469889L204.67029314814815,32.840999094645184L204.94102228395062,32.75200271606445L205.1887027160494,32.66300067901611L205.45550055555555,32.603665987650544L205.72673808641974,32.54433129628498L206.00173598765434,32.57399864196779L206.2494339506173,32.48500226338703L206.51059999999998,32.48500226338703L206.79825518518516,32.54433129628498L207.0518435185185,32.45533491770428L207.33831098765435,32.48500226338703L207.60310154320987,32.45533491770428L207.86907981481482,32.51466395060223L208.15239611111113,32.51466395060223L208.4001598148148,32.45533491770428L208.65750413580247,32.396000226338714L208.93691543209877,32.36633288065593L209.19359796296294,32.396000226338714L209.4881953703704,32.603665987650544L209.77385203703702,32.57399864196779L210.05869790123455,32.633333333333326L210.30621617283953,32.633333333333326L210.564520308642,32.66300067901611L210.82052790123458,32.69266802469889L211.1192275308642,32.870666440327966L211.36708765432098,32.633333333333326L211.61457524691357,32.603665987650544L211.86146679012347,32.603665987650544L212.10888425925924,32.603665987650544L212.36920444444445,32.57399864196779L212.6311374691358,32.603665987650544L212.88796024691356,32.633333333333326L213.13531197530864,32.45533491770428L213.40670290123458,32.51466395060223L213.65411160493827,32.45533491770428L213.91738574074074,32.48500226338703L214.1743487654321,32.48500226338703L214.43613277777777,32.51466395060223L214.70590209876542,32.57399864196779L214.95315302469137,32.51466395060223L215.21026944444444,32.45533491770428L215.465917654321,32.45533491770428L215.71313351851853,32.45533491770428L215.96824703703703,32.396000226338714L216.24228512345678,32.21800181070964L216.5439562345679,32.30699818929037L216.79137808641977,32.21800181070964L217.0406625925926,32.21800181070964L217.29916833333337,32.188334465026855L217.61379475308644,32.36633288065593L217.92519987654322,32.42566757202147L218.18071222222224,32.45533491770428L218.4277264814815,32.396000226338714L218.67519216049382,32.06966508229573L218.9305248148148,31.980668703714997L219.19977697530862,32.01033604939778L219.4476809259259,31.951001358032244L219.74890061728397,32.06966508229573L220.025182654321,32.12899977366129L220.28637938271604,32.06966508229573L220.55102530864198,32.12899977366129L220.8289333333333,32.21800181070964L221.13226111111112,32.30699818929037L221.37981882716048,32.30699818929037L221.63824129629631,32.24766915639242L221.88591296296298,32.188334465026855L222.13339179012343,32.188334465026855L222.38083555555556,32.188334465026855L222.62841956790123,32.12899977366129L222.88545709876541,32.12899977366129L223.14264802469137,32.12899977366129L223.39023203703704,32.12899977366129L223.65678444444444,32.158667119344074L223.92801320987653,32.12899977366129L224.21129444444446,32.06966508229573L224.5053615432099,32.09933242797851L224.8107535802469,32.09933242797851L225.0680014814815,32.12899977366129L225.3255737037037,32.158667119344074L225.58212037037038,32.12899977366129L225.82984901234568,32.09933242797851L226.09302672839505,32.158667119344074L226.36031543209876,32.158667119344074L226.60803969135802,32.158667119344074L226.87246209876542,32.158667119344074L227.1374937037037,32.21800181070964L227.41433234567901,32.24766915639242L227.693182654321,32.33666553497315L227.96281611111112,32.36633288065593L228.22278567901233,32.36633288065593L228.49483401234568,32.30699818929037L228.75672320987653,32.039997736612946L229.0137081481481,32.039997736612946L229.27910790123457,32.01033604939778L229.53575098765432,32.01033604939778L229.80267154320987,32.039997736612946L230.0595162345679,32.039997736612946L230.32446895061727,32.039997736612946L230.58281691358025,31.980668703714997L230.85783234567901,31.89166666666668L231.15086074074074,31.802664629618334L231.39891808641974,31.743335596720385L231.65490814814814,31.772997283935553L231.92819679012345,31.802664629618334L232.20688055555553,31.802664629618334L232.4824613580247,31.802664629618334L232.74511753086418,31.86199932098387L233.0398551851852,31.980668703714997L233.33649055555554,32.06966508229573L233.6273451234568,32.12899977366129L233.8753411111111,32.039997736612946L234.1373837037037,32.01033604939778L234.38516055555556,31.921334012349433L234.64096654320988,31.832331975301116L234.90000697530863,31.86199932098387L235.18867456790122,31.921334012349433L235.43663549382717,31.832331975301116L235.6841274691358,31.802664629618334L235.94530666666668,31.624666213989258L236.21132,31.594998868306476L236.45980246913578,31.506002489725745L236.7324074074074,31.565331522623694L237.0391186419753,31.68400090535482L237.2944337654321,31.68400090535482L237.56863839506173,31.565331522623694L237.83809654320987,31.624666213989258L238.08558851851853,31.624666213989258L238.34596567901235,31.65433355967204L238.59309827160496,31.65433355967204L238.84021333333334,31.624666213989258L239.09678191358023,31.624666213989258L239.34426950617282,31.594998868306476L239.62309790123456,31.68400090535482L239.88040716049383,31.624666213989258L240.12822783950617,31.624666213989258L240.39488543209876,31.624666213989258L240.6691163580247,31.65433355967204L240.93118086419753,31.68400090535482L241.18831043209875,31.65433355967204L241.43597333333335,31.65433355967204L241.68349160493827,31.624666213989258L241.93122901234568,31.594998868306476L242.1791724074074,31.594998868306476L242.46994808641978,31.713668251037603L242.7317145679012,31.68400090535482L243.0037234567901,31.594998868306476L243.25136444444442,31.594998868306476L243.4987512345679,31.565331522623694L243.76841537037038,31.565331522623694L244.0163412345679,31.327998415629082L244.27779216049385,31.20933469136557L244.5401941358025,31.239002037048323L244.80408185185186,31.298331069946272L245.07071314814814,31.357665761311836L245.3282371604938,31.357665761311836L245.58700148148148,31.357665761311836L245.8684375925926,31.44666779836018L246.12136413580245,31.357665761311836L246.38354697530863,31.327998415629082L246.63151666666667,31.268669382731133L246.8977885802469,31.239002037048323L247.15193790123456,31.179667345682788L247.4143837037037,31.090665308634442" style="fill: none;" fill="none"></path></g></g></g></g></g></g><g transform="translate(46, 178)" clip-path="url(#clip_1)"><clipPath id="clip_1"><rect width="284" height="22"></rect></clipPath><g><g><line x1="0" y1="0" x2="0" y2="5" style="visibility: inherit;" fill="rgb(0, 0, 0)" stroke="rgb(204, 204, 204)" stroke-width="1px"></line><line x1="31.555555555555554" y1="0" x2="31.555555555555554" y2="5" style="visibility: inherit;" fill="rgb(0, 0, 0)" stroke="rgb(204, 204, 204)" stroke-width="1px"></line><line x1="63.11111111111111" y1="0" x2="63.11111111111111" y2="5" style="visibility: inherit;" fill="rgb(0, 0, 0)" stroke="rgb(204, 204, 204)" stroke-width="1px"></line><line x1="94.66666666666666" y1="0" x2="94.66666666666666" y2="5" style="visibility: inherit;" fill="rgb(0, 0, 0)" stroke="rgb(204, 204, 204)" stroke-width="1px"></line><line x1="126.22222222222221" y1="0" x2="126.22222222222221" y2="5" style="visibility: inherit;" fill="rgb(0, 0, 0)" stroke="rgb(204, 204, 204)" stroke-width="1px"></line><line x1="157.77777777777777" y1="0" x2="157.77777777777777" y2="5" style="visibility: inherit;" fill="rgb(0, 0, 0)" stroke="rgb(204, 204, 204)" stroke-width="1px"></line><line x1="189.33333333333331" y1="0" x2="189.33333333333331" y2="5" style="visibility: inherit;" fill="rgb(0, 0, 0)" stroke="rgb(204, 204, 204)" stroke-width="1px"></line><line x1="220.88888888888889" y1="0" x2="220.88888888888889" y2="5" style="visibility: inherit;" fill="rgb(0, 0, 0)" stroke="rgb(204, 204, 204)" stroke-width="1px"></line><line x1="252.44444444444443" y1="0" x2="252.44444444444443" y2="5" style="visibility: inherit;" fill="rgb(0, 0, 0)" stroke="rgb(204, 204, 204)" stroke-width="1px"></line><line x1="284" y1="0" x2="284" y2="5" style="visibility: inherit;" fill="rgb(0, 0, 0)" stroke="rgb(204, 204, 204)" stroke-width="1px"></line></g><g transform="translate(0, 8)"><text x="0" y="0" dx="0em" dy="0.95em" style="text-anchor: middle; visibility: hidden; font-family: &quot;Helvetica Neue&quot;, sans-serif; font-size: 12px; font-weight: 200;" fill="rgb(50, 49, 63)" stroke="none" stroke-width="1px">-2</text><text x="31.555555555555554" y="0" dx="0em" dy="0.95em" style="text-anchor: middle; visibility: inherit; font-family: &quot;Helvetica Neue&quot;, sans-serif; font-size: 12px; font-weight: 200;" fill="rgb(50, 49, 63)" stroke="none" stroke-width="1px">0</text><text x="63.11111111111111" y="0" dx="0em" dy="0.95em" style="text-anchor: middle; visibility: inherit; font-family: &quot;Helvetica Neue&quot;, sans-serif; font-size: 12px; font-weight: 200;" fill="rgb(50, 49, 63)" stroke="none" stroke-width="1px">2</text><text x="94.66666666666666" y="0" dx="0em" dy="0.95em" style="text-anchor: middle; visibility: inherit; font-family: &quot;Helvetica Neue&quot;, sans-serif; font-size: 12px; font-weight: 200;" fill="rgb(50, 49, 63)" stroke="none" stroke-width="1px">4</text><text x="126.22222222222221" y="0" dx="0em" dy="0.95em" style="text-anchor: middle; visibility: inherit; font-family: &quot;Helvetica Neue&quot;, sans-serif; font-size: 12px; font-weight: 200;" fill="rgb(50, 49, 63)" stroke="none" stroke-width="1px">6</text><text x="157.77777777777777" y="0" dx="0em" dy="0.95em" style="text-anchor: middle; visibility: inherit; font-family: &quot;Helvetica Neue&quot;, sans-serif; font-size: 12px; font-weight: 200;" fill="rgb(50, 49, 63)" stroke="none" stroke-width="1px">8</text><text x="189.33333333333331" y="0" dx="0em" dy="0.95em" style="text-anchor: middle; visibility: inherit; font-family: &quot;Helvetica Neue&quot;, sans-serif; font-size: 12px; font-weight: 200;" fill="rgb(50, 49, 63)" stroke="none" stroke-width="1px">10</text><text x="220.88888888888889" y="0" dx="0em" dy="0.95em" style="text-anchor: middle; visibility: inherit; font-family: &quot;Helvetica Neue&quot;, sans-serif; font-size: 12px; font-weight: 200;" fill="rgb(50, 49, 63)" stroke="none" stroke-width="1px">12</text><text x="252.44444444444443" y="0" dx="0em" dy="0.95em" style="text-anchor: middle; visibility: inherit; font-family: &quot;Helvetica Neue&quot;, sans-serif; font-size: 12px; font-weight: 200;" fill="rgb(50, 49, 63)" stroke="none" stroke-width="1px">14</text><text x="284" y="0" dx="0em" dy="0.95em" style="text-anchor: middle; visibility: hidden; font-family: &quot;Helvetica Neue&quot;, sans-serif; font-size: 12px; font-weight: 200;" fill="rgb(50, 49, 63)" stroke="none" stroke-width="1px">16</text></g><line x1="0" y1="0" x2="284" y2="0" fill="rgb(0, 0, 0)" stroke="rgb(204, 204, 204)" stroke-width="1px"></line></g></g></g></g></svg>